<?xml version="1.0" standalone="no"?>
<!DOCTYPE svg PUBLIC "-//W3C//DTD SVG 1.1//EN" "http://www.w3.org/Graphics/SVG/1.1/DTD/svg11.dtd" >
<svg xmlns="http://www.w3.org/2000/svg" xmlns:xlink="http://www.w3.org/1999/xlink" version="1.1">
<metadata>
Created by FontForge 20170731 at Fri Sep 30 16:26:48 2016
 By Aleksey,,,
Copyright 2016 The Bevan Project Authors (www.sansoxygen.com)
</metadata>
<defs>
<font id="Bevan-Regular" horiz-adv-x="0" >
  <font-face 
    font-family="Bevan"
    font-weight="400"
    font-stretch="normal"
    units-per-em="1000"
    panose-1="0 0 5 0 0 0 0 0 0 0"
    ascent="800"
    descent="-200"
    x-height="523"
    cap-height="777"
    bbox="-278 -425 1827 1313"
    underline-thickness="50"
    underline-position="-150"
    unicode-range="U+000D-FB02"
  />
<missing-glyph horiz-adv-x="293" 
 />
    <glyph glyph-name="fi" unicode="fi" horiz-adv-x="823" 
d="M511 588q-38 33 -38 89q0 57 38 88.5t97 31.5q62 0 101.5 -32t39.5 -88q0 -57 -40 -89.5t-100 -32.5h-1q-59 0 -97 33zM42 146h41v225h-41v152h40l-1 66q0 197 186 197q38 0 81 -6.5t69 -15.5v-152q-28 6 -47 6q-34 0 -45 -23.5t-9 -70.5l431 -1v-377h41v-146h-316v146
h40v225h-192v-225h54v-146h-332v146z" />
    <glyph glyph-name="fl" unicode="fl" horiz-adv-x="828" 
d="M476 148h36v494h-82q-55 0 -84 -13.5t-29 -54.5v-51h87v-152h-84v-225h54v-146h-332v146h41v225h-41v152h40l-0.5 11t-0.5 55q0 92 47 137t127 57.5t216 12.5h282v-648h39v-149h-316v149z" />
    <glyph glyph-name="f_f" unicode="ff" horiz-adv-x="888" 
d="M841 523v-152h-94v-225h54v-146h-332v146h41v225h-41v152h40l-0.5 11t-0.5 55q0 197 186 197q38 0 81 -6.5t69 -15.5v-152q-28 6 -47 6q-34 0 -45 -23.5t-9 -71.5h98zM81 569q0 197 174 197q39 0 82.5 -7t71.5 -16v-143q-37 6 -51 6q-43 0 -43 -66v-17h87v-152h-84v-225
h54v-146h-332v146h41v225h-41v152h41v46z" />
    <glyph glyph-name="f_f_i" unicode="ffi" horiz-adv-x="1244" 
d="M936 588q-39 33 -39 89q0 55 38 88q38 32 98 32q61 0 101 -32q39 -33 39 -88q0 -56 -40 -89t-100 -33h-1q-59 0 -96 33zM466 146h41v226h-41v151h40l-1 66q0 197 186 197q39 0 78 -6l53 -10l19 -6v-152q-28 6 -47 6q-30 0 -44 -20q-13 -23 -10 -74l431 -1v-377h41v-146
h-316v146h40v226h-192v-226h54v-146h-332v146zM81 569q0 197 174 197q39 0 82.5 -7t71.5 -16v-143q-37 6 -51 6q-43 0 -43 -66v-17h87v-152h-84v-225h54v-146h-332v146h41v225h-41v152h41v46z" />
    <glyph glyph-name="f_f_l" unicode="ffl" horiz-adv-x="1256" 
d="M903 148h36v494h-82q-55 0 -83.5 -13.5t-28.5 -54.5v-51h86v-152h-84v-225h54v-146h-332v146h41v225h-41v152h40l-0.5 11t-0.5 55q0 92 47 137t127 57.5t216 12.5h283v-648h38v-149h-316v149zM81 569q0 197 174 197q39 0 82.5 -7t71.5 -16v-143q-37 6 -51 6
q-43 0 -43 -66v-17h87v-152h-84v-225h54v-146h-332v146h41v225h-41v152h41v46z" />
    <glyph glyph-name=".notdef" horiz-adv-x="293" 
 />
    <glyph glyph-name=".null" 
 />
    <glyph glyph-name="nonmarkingreturn" unicode="&#xd;" horiz-adv-x="206" 
 />
    <glyph glyph-name="NULL" 
 />
    <glyph glyph-name="NULL" 
 />
    <glyph glyph-name="space" unicode=" " horiz-adv-x="206" 
 />
    <glyph glyph-name="exclam" unicode="!" horiz-adv-x="332" 
d="M62 271l-41 379v146h287v-146l-41 -378zM66 16q-38 33 -38 88q0 56 38 89q39 33 97 33h1q59 0 100 -33q40 -33 40 -89q0 -55 -39 -88q-40 -32 -101 -32q-60 0 -98 32z" />
    <glyph glyph-name="quotedbl" unicode="&#x22;" horiz-adv-x="561" 
d="M59 461l-39 332h234l-48 -332h-147zM346 461l-39 332h234l-49 -332h-146z" />
    <glyph glyph-name="numbersign" unicode="#" horiz-adv-x="661" 
d="M51 0l31 140h-66l30 146h69l39 176h-67l31 146h69l41 184h158l-43 -184h77l41 184h159l-43 -184h69l-31 -146h-71l-41 -176h71l-31 -146h-73l-32 -140h-153l31 140h-80l-32 -140h-153zM270 286h79l39 176h-78z" />
    <glyph glyph-name="dollar" unicode="$" horiz-adv-x="632" 
d="M268 23q-69 14 -123 40l-21 -31h-96v234l118 1q2 -27 21 -55.5t46.5 -47t51.5 -18.5v141q-84 23 -135.5 49.5t-78.5 69t-27 108.5q0 102 68 160.5t178 63.5v94h110v-103q36 -7 71 -29l21 21h89v-214h-112q-7 32 -27 61.5t-41 34.5v-120q113 -30 173 -84.5t60 -150.5
q0 -62 -31.5 -114t-85 -83.5t-116.5 -33.5v-99h-113v105zM267 620q-22 1 -39 -12t-17 -31v-1q0 -22 16 -38t40 -21v103zM410.5 165q15.5 15 15.5 37q0 21 -13 37t-37 19v-108q19 0 34.5 15z" />
    <glyph glyph-name="percent" unicode="%" horiz-adv-x="1315" 
d="M128.5 297q-54.5 34 -83.5 97t-29 148q0 81 29.5 141t84 92t127.5 32q74 0 129.5 -32t85 -92t29.5 -141q0 -85 -30 -148t-85 -97t-130 -34q-73 0 -127.5 34zM446 0l167 792h246l-167 -792h-246zM293.5 459.5q11.5 25.5 11.5 82.5q0 52 -11.5 75.5t-36.5 23.5
q-24 -1 -35.5 -24.5t-11.5 -74.5q0 -56 11.5 -82t35.5 -26q25 0 36.5 25.5zM921.5 19q-54.5 34 -83.5 97t-29 148q0 80 29.5 140t84 92t127.5 32q74 0 129.5 -32t85 -92t29.5 -140q0 -85 -30 -148t-85 -97t-130 -34q-73 0 -127.5 34zM1086.5 181.5q11.5 25.5 11.5 82.5
q0 51 -11.5 74.5t-34.5 23.5q-25 0 -37 -23t-12 -75q0 -57 11.5 -82.5t35.5 -25.5q25 0 36.5 25.5z" />
    <glyph glyph-name="ampersand" unicode="&#x26;" horiz-adv-x="841" 
d="M712 339l-83 -86q4 -2 72 -73h112v-180h-263v-1q-30 30 -85 89q-90 -100 -225 -103q-95 2 -157 53q-61 52 -64 145q2 76 40 126q38 51 114 84q-56 61 -58 148q0 47 19 84q17 37 51 63q35 26 75 38q45 13 90 13q36 0 74 -11q35 -11 67 -32q30 -21 48 -54q19 -35 19 -72
q0 -22 -4 -50q-4 -21 -15 -39q-8 -15 -24 -32q-11 -13 -39 -37l87 -85l13 11q17 17 26 28q13 14 13 23q0 17 -13 17h-23v144h236v-141q-37 -13 -53 -25q-20 -15 -50 -45zM433 561q0 23 -14 42q-12 17 -38 17q-18 0 -32 -15q-13 -14 -13 -33q0 -15 9 -30q12 -18 18 -23
q10 -10 25 -21q24 18 34 29q11 14 11 34zM374 181l-102 104l-3 -2l-7 -7l-9 -10q-4 -6 -7 -14q-3 -7 -3 -16v-1q0 -32 21 -53t54 -21q30 0 56 20z" />
    <glyph glyph-name="quotesingle" unicode="'" horiz-adv-x="274" 
d="M59 461l-39 332h234l-48 -332h-147z" />
    <glyph glyph-name="parenleft" unicode="(" horiz-adv-x="447" 
d="M273 12q-68 22 -118 60q-48 39 -82 91q-32 50 -49 111q-15 59 -15 124q0 101 24 176q22 74 73 128q48 51 130 79q83 26 193 26v-162l-1 -1q-36 0 -67 -11q-30 -11 -48 -29q-19 -21 -30 -41q-13 -21 -19 -51q-7 -34 -8 -55q-2 -18 -2 -58q0 -42 4 -71q4 -27 16 -66
q12 -35 31 -57q19 -25 49 -38q32 -15 73 -15v-162q-82 0 -154 22z" />
    <glyph glyph-name="parenright" unicode=")" horiz-adv-x="447" 
d="M18 807h1h-1zM438 398q0 -67 -16 -125q-15 -59 -48 -111q-33 -50 -82 -90q-50 -38 -118 -60q-74 -22 -154 -22v162q41 0 72 15q32 14 50 38q20 26 30 57q13 37 16 66q5 37 5 71q0 24 -2 58q-5 39 -8 55q-5 27 -19 51q-13 24 -31 41q-18 20 -48 30q-30 11 -66 11v162
q112 0 191 -27q80 -25 131 -79q49 -52 73 -127t24 -176z" />
    <glyph glyph-name="asterisk" unicode="*" horiz-adv-x="607" 
d="M247 142q-23 22 -23 64q0 24 5 46q4 24 9 44l14 51l14 44l-28 -34l-35 -42l-30 -30q-14 -14 -36 -30q-29 -17 -53 -17q-5 0 -15 2q-31 6 -48 33q-13 21 -13 42q0 19 10 36q10 20 33 37q22 14 57 28q40 16 80 26l61 19l-19.5 6.5t-41.5 12.5q-43 13 -79 26q-36 15 -56 28
q-23 16 -34 37q-9 18 -9 36q0 23 12 41l-4 -3q16 27 47 33q10 2 15 2q25 0 54 -17q18 -13 35 -30q21 -19 31 -31l35 -41q22 -28 29 -35l-13 43l-15 52q-5 17 -9 43q-5 30 -5 46q0 42 24 64q23 24 55 24q31 0 55 -24q23 -22 23 -64q0 -10 -2 -34l-7 -39l-10 -36l-11 -39
l-11 -35l30 35q11 14 34 40q12 14 32 32q17 17 35 30q29 17 53 17q5 0 15 -2q32 -6 48 -33q13 -21 13 -42q0 -19 -10 -36q-10 -20 -33 -37q-22 -14 -57 -28q-48 -17 -80 -26q-23 -7 -60 -19q11 -4 61 -19q32 -9 80 -26q37 -15 57 -29q23 -15 33 -36q10 -19 10 -36
q0 -22 -13 -42q-16 -26 -48 -34q-4 -1 -14 -1q-26 0 -54 17q-15 9 -36 29q-14 13 -31 32q-24 26 -35 41l-30 35l14 -43l15 -52q4 -15 9 -42q5 -30 5 -46q0 -41 -24 -64q-22 -24 -55 -24q-31 0 -55 24z" />
    <glyph glyph-name="plus" unicode="+" horiz-adv-x="422" 
d="M150 116v136h-132v120h132v141h125v-141h129v-120h-129v-136h-125z" />
    <glyph glyph-name="comma" unicode="," horiz-adv-x="291" 
d="M18 -109q22 0 38 3q17 3 26 10t16 15q6 9 9 23q3 15 3 26q1 7 1 32h-92v178h249q11 -79 11 -135q0 -136 -63 -199q-64 -63 -198 -63v110z" />
    <glyph glyph-name="hyphen" unicode="-" horiz-adv-x="371" 
d="M18 262v146h335v-146h-335z" />
    <glyph glyph-name="period" unicode="." horiz-adv-x="301" 
d="M51 20q-38 32 -38 89q0 56 38 87q38 33 97 33q63 0 102 -33t39 -87q0 -55 -40 -89q-40 -33 -100 -33l-1 -1q-57 0 -97 34z" />
    <glyph glyph-name="slash" unicode="/" horiz-adv-x="428" 
d="M8 0l166 792h246l-167 -792h-245z" />
    <glyph glyph-name="zero" unicode="0" horiz-adv-x="675" 
d="M115 80q-80 93 -80 259q0 157 79.5 244.5t222.5 87.5t222.5 -87.5t79.5 -244.5q0 -110 -36 -189t-103.5 -121t-161.5 -42q-143 0 -223 93zM394.5 421.5q-5.5 34.5 -19 49.5t-37.5 15q-25 0 -39.5 -15t-20.5 -49t-6 -96q0 -60 6 -93.5t20 -48t38 -14.5q25 0 38.5 14.5
t19.5 47.5t6 93q0 62 -5.5 96.5z" />
    <glyph glyph-name="one" unicode="1" horiz-adv-x="441" 
d="M70 0v159l44 -1v306h-80v126l323 81l3 -513h47v-158h-337z" />
    <glyph glyph-name="two" unicode="2" horiz-adv-x="649" 
d="M56 148q92 35 157 89q59 50 84 88.5t25 92.5q0 35 -20 59.5t-48 24.5q-31 0 -48 -19.5t-17 -49.5q0 -17 9 -34.5t21 -29.5l-110 -85q-34 30 -54.5 79.5t-18.5 97.5q-1 61 33.5 108.5t97 74.5t142.5 27q76 0 135.5 -28t93 -78.5t33.5 -114.5q0 -60 -34.5 -114t-77 -91
t-97.5 -77l-19 -13h79q48 1 76.5 15t28.5 57h84l3 -227h-558v148z" />
    <glyph glyph-name="three" unicode="3" horiz-adv-x="633" 
d="M145 0q-55 9 -97 38v169q89 -71 181 -71q43 0 75.5 17.5t32.5 54.5q0 43 -35.5 62t-84.5 19q-17 0 -37 -4.5t-25 -5.5h-10v82l167 142v5h-108q-24 0 -36 -7.5t-18 -21t-13 -41.5l-95 1v221h522v-129l-138 -115q47 -4 86 -31t62 -68t23 -86q0 -120 -88 -180t-229 -60
q-80 0 -135 9z" />
    <glyph glyph-name="four" unicode="4" horiz-adv-x="654" 
d="M230 0v141h62v64h-260v131l269 319h214v-325l111 1v-126h-111v-64h59v-141h-344zM292 331v114l-92 -114h92z" />
    <glyph glyph-name="five" unicode="5" horiz-adv-x="565" 
d="M122 1.5q-53 11.5 -77 34.5l1 1v132q56 -32 108 -32q41 0 74 20.5t33 59.5t-32 61.5t-77 22.5q-54 0 -101 -31l-6 5v388h447v-145h-298v-68q48 8 103 8q63 0 116 -26.5t84.5 -74t31.5 -107.5q0 -82 -38 -141t-107 -89t-160 -30q-49 0 -102 11.5z" />
    <glyph glyph-name="six" unicode="6" horiz-adv-x="676" 
d="M190 22.5q-70 31.5 -113 92.5t-43 146q0 66 33.5 129t81.5 117.5t143 149.5h265q-112 -112 -145 -157q78 -4 130 -37t76.5 -85t24.5 -113q0 -69 -37 -132t-106 -102.5t-160 -39.5q-80 0 -150 31.5zM379 187q13 26 13 80q0 112 -53 112q-55 0 -55 -110q0 -108 55 -108
q27 0 40 26z" />
    <glyph glyph-name="seven" unicode="7" horiz-adv-x="626" 
d="M323 498h-118q-37 0 -50.5 -16t-13.5 -54l-106 1v224h558v-132l-257 -521h-260z" />
    <glyph glyph-name="eight" unicode="8" horiz-adv-x="657" 
d="M118.5 38.5q-81.5 47.5 -81.5 144.5l-1 -1q0 125 127 173q-43 16 -66 52.5t-23 84.5q0 87 70.5 133t186.5 46q110 0 181.5 -45t71.5 -133q0 -48 -23 -84.5t-66 -52.5q127 -48 127 -173q0 -99 -82.5 -145.5t-209.5 -46.5q-130 0 -211.5 47.5zM361 419q9 17 9 57
q0 38 -9.5 54.5t-29.5 16.5q-21 0 -30 -16.5t-9 -54.5q0 -40 9 -57t31 -17q20 0 29 17zM358.5 135q9.5 19 9.5 62q0 45 -9 64.5t-29 19.5q-22 0 -31 -19.5t-9 -64.5q0 -44 9 -62.5t30 -18.5q20 0 29.5 19z" />
    <glyph glyph-name="nine" unicode="9" horiz-adv-x="671" 
d="M118 0q118 117 149 157q-67 0 -121 29t-85 80t-31 115q0 84 41 149t112 101t160 36q78 0 146 -32t110 -93.5t42 -145.5q0 -60 -31 -120.5t-84.5 -123t-144.5 -153.5zM374.5 304q11.5 25 11.5 82t-11.5 82t-39.5 25q-27 0 -38.5 -25t-11.5 -82t11.5 -82t38.5 -25
q28 0 39.5 25z" />
    <glyph glyph-name="colon" unicode=":" horiz-adv-x="307" 
d="M55 324q-39 33 -39 89q0 55 38 87q39 33 98 33q62 0 101 -33q39 -31 39 -87t-40 -89t-100 -33h-1q-57 0 -96 33zM54 23q-39 33 -39 90q0 55 38 87t98 32q63 0 101 -32q39 -31 39 -87q0 -57 -40 -90q-39 -32 -100 -32l-1 -1q-57 0 -96 33z" />
    <glyph glyph-name="semicolon" unicode=";" horiz-adv-x="306" 
d="M55 322q-39 33 -39 90q0 55 38 87t98 32q63 0 101 -32q39 -31 39 -87q0 -57 -40 -90q-39 -32 -100 -32l-1 -1q-57 0 -96 33zM21 -219v110q22 0 39 3t26 10t16 15q6 9 9 23q3 15 3 25q1 8 1 32h-93v178h249q12 -75 12 -135q0 -136 -63 -199q-64 -63 -198 -63z" />
    <glyph glyph-name="less" unicode="&#x3c;" horiz-adv-x="384" 
d="M367 -10l-349 291v181l349 291v-227l-163 -154l163 -155v-227z" />
    <glyph glyph-name="equal" unicode="=" horiz-adv-x="351" 
d="M18 341v109h315v-109h-315zM18 161v109h315v-109h-315z" />
    <glyph glyph-name="greater" unicode="&#x3e;" horiz-adv-x="384" 
d="M18 -10v227l162 155l-162 154v227l349 -291v-181z" />
    <glyph glyph-name="question" unicode="?" horiz-adv-x="615" 
d="M160 436q194 87 194 174q0 7 -2 17q-1 9 -6 21q-4 11 -14 19q-10 7 -25 7q-58 0 -64 -79h-230q6 109 89 182q83 71 208 71q81 0 150 -29q68 -30 105 -81q39 -52 39 -116q0 -34 -10 -63q-9 -31 -24 -53q-14 -23 -38 -44q-18 -16 -45 -36q-30 -18 -52 -29q-32 -16 -53 -23
q-29 -12 -53 -20v-91h-169v173zM150 21q-39 32 -39 89q0 55 38 87t98 32q63 0 101 -32q39 -31 39 -87q0 -58 -40 -89q-40 -33 -99 -33l-1 -1q-57 0 -97 34z" />
    <glyph glyph-name="at" unicode="@" horiz-adv-x="887" 
d="M282 -69q-89 30 -147 81q-58 52 -89 118t-31 145q0 84 29 152q29 69 85 125q58 55 140 85q83 31 187 31q95 0 176 -26q80 -27 132 -73q53 -47 81 -108q29 -63 29 -132q0 -53 -16 -92q-16 -42 -49 -73q-33 -32 -88 -48q-51 -17 -129 -17h-73l-19 44q-16 -24 -46 -38
q-31 -13 -57 -13q-57 0 -99 54q-41 55 -41 141q0 38 12 69q11 30 35 59q23 26 65 41q40 15 95 15q17 0 25 -1q4 0 32 -4q26 -5 38 -10q22 -11 35 -20q21 -15 31 -31q13 -16 21 -46q9 -28 9 -65l1 -100l2 -1q9 0 21 2q10 3 21 11t18 22q8 14 12 40q5 21 5 62q0 98 -70 156
q-71 58 -208 58q-139 0 -214 -72q-75 -73 -75 -196q0 -53 20 -101q22 -50 59 -82q36 -34 98 -56q57 -20 136 -20q44 0 80 10l25 -111q-56 -14 -105 -14q-107 0 -199 29zM502 198v128q0 39 -8 55q-9 16 -29 16q-12 0 -21 -9q-8 -12 -11 -27q-4 -18 -6 -36q-1 -12 -1 -42
l-1 -1q0 -42 10 -74q9 -27 26 -27q27 0 41 17z" />
    <glyph glyph-name="A" unicode="A" horiz-adv-x="859" 
d="M16 0v172h77l134 433h-102v172h484l173 -605h77v-172h-437v172h63l-21 83h-176l-22 -83h93v-172h-343zM313 373h128l-57 238z" />
    <glyph glyph-name="B" unicode="B" horiz-adv-x="822" 
d="M31 172h94v433h-81v173h397q98 0 165 -16t106.5 -61t39.5 -128q0 -58 -33.5 -101t-85.5 -62q68 -29 100.5 -75.5t32.5 -127.5q0 -99 -77.5 -153t-219.5 -54h-438v172zM402 464q56 0 82.5 15.5t26.5 58.5q0 30 -18.5 48.5t-48.5 18.5h-69v-141h27zM393 172q59 0 91 16.5
t32 68.5q0 80 -98 80q-22 0 -43 -1v-164h18z" />
    <glyph glyph-name="C" unicode="C" horiz-adv-x="755" 
d="M227.5 31.5q-89.5 45.5 -143 137t-53.5 224.5q0 112 40.5 202.5t119 143.5t189.5 53q57 0 102 -26.5t65 -67.5l20 79h152v-319h-156v16q0 62 -28.5 101.5t-84.5 39.5q-38 0 -69.5 -29t-49.5 -76t-18 -97q0 -98 49 -153.5t134 -55.5q60 0 111.5 20t84.5 43l11 -9v-208
q-62 -36 -131 -50t-147 -14q-108 0 -197.5 45.5z" />
    <glyph glyph-name="D" unicode="D" horiz-adv-x="881" 
d="M31 172h78v433h-78v172h360q212 0 324.5 -98t112.5 -290q0 -187 -112 -288t-326 -101h-359v172zM390 172q82 0 119.5 61.5t37.5 155.5q0 96 -37 156t-120 60h-31v-433h31z" />
    <glyph glyph-name="E" unicode="E" horiz-adv-x="708" 
d="M47 0v172h94v433h-94v172h656v-309h-125l-47 137h-140v-127h125v-128h-125v-178h140l47 159h125v-331h-656z" />
    <glyph glyph-name="F" unicode="F" horiz-adv-x="700" 
d="M47 0v172h94v433h-94v172h641v-314h-141l-31 142h-125v-147h109v-125h-109v-161h93v-172h-437z" />
    <glyph glyph-name="G" unicode="G" horiz-adv-x="841" 
d="M247.5 30q-98.5 44 -157.5 137t-59 234q0 112 46.5 201t135 139.5t208.5 50.5q51 0 99 -17t76 -50l16 52h169v-287h-151q-15 62 -58 93.5t-90 31.5q-78 0 -123.5 -57t-45.5 -157q0 -101 45 -158.5t127 -57.5q21 0 42 4t34 8.5t17 5.5v69h-94v145h313v-349
q-75 -40 -161 -61t-171 -21q-119 0 -217.5 44z" />
    <glyph glyph-name="H" unicode="H" horiz-adv-x="915" 
d="M36 0v172h78v433h-78v172l390 1v-173h-62v-128h187v128h-62v173l390 -1v-172h-78v-433h78v-172h-390v172h62v138h-187v-138h62v-172h-390z" />
    <glyph glyph-name="I" unicode="I" horiz-adv-x="502" 
d="M63 0v172h78v433h-78v172h406v-172h-78v-433h78v-172h-406z" />
    <glyph glyph-name="J" unicode="J" horiz-adv-x="668" 
d="M238.5 2.5q-35.5 17.5 -58.5 45.5l-18 -54h-131v315h141q0 -71 13 -104t53 -33q34 0 54.5 32t20.5 75v326h-94v173h422v-173h-78v-373q0 -113 -65 -180t-178 -67q-46 0 -81.5 17.5z" />
    <glyph glyph-name="K" unicode="K" horiz-adv-x="886" 
d="M63 172h78v433h-78v172h390v-172h-62v-177l129 177v172h304v-172h-67l-155 -188v-7q79 0 124 -27t45 -94v-79q0 -15 8.5 -26.5t23.5 -11.5h56v-172h-179q-164 0 -164 150v85q0 25 -16 49t-38 24h-71v-136h78v-172h-406v172z" />
    <glyph glyph-name="L" unicode="L" horiz-adv-x="701" 
d="M63 0v175h78v430h-78v172h406v-172h-78v-430h125l47 171h124v-346h-624z" />
    <glyph glyph-name="M" unicode="M" horiz-adv-x="1158" 
d="M31 0v172h94v433h-94v172h419l151 -374l149 374h391v-172h-94v-433h94v-172h-407v172h63v290l-172 -462h-141l-203 473v-301h78v-172h-328z" />
    <glyph glyph-name="N" unicode="N" horiz-adv-x="904" 
d="M40 0v175h79v431h-77v172h359l243 -462v289h-78v172h311v-172h-77v-605h-296l-231 429v-254h78v-175h-311z" />
    <glyph glyph-name="O" unicode="O" horiz-adv-x="869" 
d="M211.5 38q-88.5 52 -134.5 143.5t-46 208.5q0 121 46 212t134 140.5t211 49.5t211 -49.5t134 -140.5t46 -212q0 -117 -46 -208.5t-134.5 -143.5t-210.5 -52t-210.5 52zM503 223q28 64 28 171q0 104 -27 164.5t-82 60.5t-82 -60.5t-27 -164.5q0 -107 28 -171t81 -64t81 64
z" />
    <glyph glyph-name="P" unicode="P" horiz-adv-x="821" 
d="M40 175h76v430h-74v173h416q143 0 235.5 -48.5t92.5 -176.5q0 -149 -81 -214.5t-243 -65.5q-40 0 -73 5v-103h71v-175h-420v175zM410 432q111 0 111 98q0 36 -24.5 55.5t-65.5 19.5h-41v-173h20z" />
    <glyph glyph-name="Q" unicode="Q" horiz-adv-x="896" 
d="M227 38.5q-91 52.5 -142.5 144.5t-51.5 207q0 120 49 211t139.5 141t212.5 50t212 -50t139 -141t49 -211t-56 -215l2 1h79v-176h-311q-56 -14 -114 -14q-116 0 -207 52.5zM513 225.5q28 70.5 28 168.5q0 93 -27 157t-80 64q-54 0 -81 -64t-27 -157q0 -98 28 -168.5
t80 -70.5q51 0 79 70.5z" />
    <glyph glyph-name="R" unicode="R" horiz-adv-x="869" 
d="M63 172h78v433h-78v172h499q121 0 178 -49t57 -162q0 -76 -42.5 -117t-120.5 -55q70 -11 101 -52.5t31 -103.5v-63h109v-175h-157q-76 0 -109 10t-50.5 55t-17.5 150q0 60 -19.5 89t-71.5 29h-59v-161h78v-172h-406v172zM458 444q53 0 79 19t26 67q0 35 -26.5 55
t-68.5 20h-77v-161h67z" />
    <glyph glyph-name="S" unicode="S" horiz-adv-x="687" 
d="M307.5 -0.5q-35.5 13.5 -76.5 45.5l-17 -45h-158v238h157q15 -41 46.5 -58t77.5 -17q28 0 48 11.5t20 30.5q0 24 -20.5 36t-57.5 22q-94 26 -154.5 56t-97.5 86t-37 148q0 71 30.5 125t87.5 84t134 30q94 0 149 -60l25 46h140v-233h-150q-21 44 -46.5 61t-69.5 17
q-34 0 -52.5 -12t-18.5 -33q0 -23 26.5 -35.5t75.5 -23.5q87 -20 147.5 -49.5t97 -84t36.5 -140.5q0 -73 -30.5 -132t-87 -93t-129.5 -34q-60 0 -95.5 13.5z" />
    <glyph glyph-name="T" unicode="T" horiz-adv-x="799" 
d="M178 0v176h80v429h-69l-21 -134h-137v306h731v-306h-137l-21 134h-71v-429h80v-176h-435z" />
    <glyph glyph-name="U" unicode="U" horiz-adv-x="826" 
d="M175.5 77q-76.5 91 -76.5 267v261h-79v172h424v-172h-72v-327q0 -48 23.5 -78.5t73.5 -30.5q42 0 66.5 25t24.5 68v343h-80v172h319v-172h-75v-336q0 -140 -82 -211.5t-216 -71.5q-174 0 -250.5 91z" />
    <glyph glyph-name="V" unicode="V" horiz-adv-x="868" 
d="M276 0l-176 605h-81v172h422v-172h-56l98 -353l86 353h-64v172h339v-172h-88l-194 -605h-286z" />
    <glyph glyph-name="W" unicode="W" horiz-adv-x="1262" 
d="M269 0l-170 605h-80v173h435v-173h-74l78 -277l127 450h200l123 -435l76 262h-68v173h322v-173h-82l-167 -605h-265l-94 345l-99 -345h-262z" />
    <glyph glyph-name="X" unicode="X" horiz-adv-x="978" 
d="M38 0v175h77l212 236l-181 194h-83v173h448v-173h-40l79 -95l72 95h-70v173h365v-173h-97l-162 -210l209 -220h74v-175h-453v175h61l-118 125l-101 -125h109v-175h-401z" />
    <glyph glyph-name="Y" unicode="Y" horiz-adv-x="813" 
d="M204 0v175h75v143l-205 287h-55v172h416v-172h-44l89 -130l70 130h-71v172h311v-172h-88l-151 -261v-169h77v-175h-424z" />
    <glyph glyph-name="Z" unicode="Z" horiz-adv-x="775" 
d="M46 0v171l331 434h-154l-39 -152h-141v324h681v-160l-330 -442h150l53 164h137v-339h-688z" />
    <glyph glyph-name="bracketleft" unicode="[" horiz-adv-x="384" 
d="M18 0v792h348v-146h-96v-494h94v-152h-346z" />
    <glyph glyph-name="backslash" unicode="\" horiz-adv-x="462" 
d="M175 0l-167 792h280l167 -792h-280z" />
    <glyph glyph-name="bracketright" unicode="]" horiz-adv-x="384" 
d="M20 0v152h94v494h-96v146h348v-792h-346z" />
    <glyph glyph-name="asciicircum" unicode="^" horiz-adv-x="702" 
d="M18 444l242 349h180l243 -349h-227l-106 162l-105 -162h-227z" />
    <glyph glyph-name="underscore" unicode="_" horiz-adv-x="648" 
d="M34 -109v109h582v-109h-582z" />
    <glyph glyph-name="grave" unicode="`" horiz-adv-x="369" 
d="M294 591l-271 153l90 129l232 -213z" />
    <glyph glyph-name="a" unicode="a" horiz-adv-x="682" 
d="M128 10.5q-41 19.5 -65.5 55.5t-24.5 84q0 52 28.5 87.5t75.5 53t101 17.5q64 0 123 -19v22q0 39 -33 59.5t-89 20.5q-36 0 -83 -13t-78 -32l-14 6v142q59 21 120.5 30t114.5 9q297 0 297 -167v-219h46v-147h-250l-22 80q-21 -41 -65.5 -65t-91.5 -24q-49 0 -90 19.5z
M343 121.5q17 5.5 23 11.5v82q-7 1 -23.5 5.5t-28.5 4.5q-26 0 -41.5 -16t-15.5 -43q0 -20 14.5 -35t38.5 -15q16 0 33 5.5z" />
    <glyph glyph-name="b" unicode="b" horiz-adv-x="732" 
d="M387.5 10q-36.5 19 -61.5 46l-19 -56h-219v597h-63v133l297 32v-291q38 31 79 46.5t78 15.5q70 0 119.5 -36t74 -97.5t24.5 -136.5q0 -78 -25.5 -139.5t-77 -97t-125.5 -35.5q-45 0 -81.5 19zM456 168.5q23 34.5 23 80.5q0 57 -20 99t-61 42q-23 0 -45 -10t-31 -22v-200
q11 -9 33 -16.5t43 -7.5q35 0 58 34.5z" />
    <glyph glyph-name="c" unicode="c" horiz-adv-x="610" 
d="M172 25q-67 34 -104 96t-37 146q0 76 31 136.5t88.5 95t133.5 34.5q43 0 91.5 -15.5t61.5 -46.5l20 52h106v-216h-141q-4 39 -23 61t-47 22q-42 0 -64 -26.5t-22 -97.5q0 -73 38 -101t87 -28q35 0 76 12.5t73 39.5l7 -5v-136q0 -2 -30 -17t-79 -27.5t-110 -12.5
q-89 0 -156 34z" />
    <glyph glyph-name="d" unicode="d" horiz-adv-x="739" 
d="M139.5 28.5q-51.5 37.5 -78 101t-26.5 139.5q0 70 27 130.5t77.5 97t118.5 36.5q50 0 85.5 -16t66.5 -48v128h-78v133l313 32v-615h62v-147h-301v63q-24 -32 -61 -51.5t-83 -20.5q-71 0 -122.5 37.5zM381.5 145q18.5 11 28.5 26v185q-11 13 -30 23.5t-40 10.5
q-38 0 -62 -31t-24 -90q0 -60 22 -97.5t64 -37.5q23 0 41.5 11z" />
    <glyph glyph-name="e" unicode="e" horiz-adv-x="623" 
d="M170 24.5q-67 33.5 -103 95.5t-36 145q0 82 35 142.5t98.5 93t148.5 32.5q79 0 139 -31t93 -88t33 -133q0 -26 -8 -50h-304q0 -46 34.5 -73.5t83.5 -27.5q37 0 81.5 13t89.5 40l8 -3v-131q-50 -29 -103 -43.5t-132 -14.5q-91 0 -158 33.5zM391 317v10q0 35 -16 60t-47 25
q-26 0 -44 -25.5t-18 -55.5v-14h125z" />
    <glyph glyph-name="f" unicode="f" horiz-adv-x="490" 
d="M40 147h78v233h-78v143h78v47q0 197 174 197q38 0 82 -7t72 -16v-144q-37 6 -51 6q-43 0 -43 -65v-18h94v-143h-94v-233h94v-147h-406v147z" />
    <glyph glyph-name="g" unicode="g" horiz-adv-x="728" 
d="M100 -160v141q65 -20 107.5 -30.5t83.5 -10.5q118 0 118 117q-27 -24 -66 -40.5t-88 -16.5q-71 0 -120 35.5t-73.5 95.5t-24.5 133q0 75 25 136t74 97t119 36q96 0 154 -83l35 73h249v-151h-47v-306q0 -127 -89 -191.5t-237 -64.5q-104 0 -220 30zM389 148q19 14 23 28
v178q-9 17 -27 26.5t-42 9.5q-40 0 -64 -34.5t-24 -94.5q0 -57 24 -92t68 -35q23 0 42 14z" />
    <glyph glyph-name="h" unicode="h" horiz-adv-x="758" 
d="M47 147h62v450h-62v133l297 32v-315q19 35 66.5 60.5t105.5 25.5q85 0 128.5 -50t43.5 -140v-196h62v-147h-297v319q0 29 -17 48t-39 19q-25 0 -39 -17t-14 -46v-176h47v-147h-344v147z" />
    <glyph glyph-name="i" unicode="i" horiz-adv-x="434" 
d="M121.5 603q-39.5 29 -39.5 83t39.5 82t101.5 28t101 -27.5t39 -82.5q0 -54 -40 -83t-101 -29t-100.5 29zM42 0v147h63v225h-63v120l297 31v-376h63v-147h-360z" />
    <glyph glyph-name="j" unicode="j" horiz-adv-x="391" 
d="M105 603q-40 29 -40 83t39.5 82t101.5 28q63 0 101.5 -27.5t38.5 -82.5t-39.5 -83.5t-100.5 -28.5t-101 29zM34 -45h15q63 0 63 45v372h-78v120l312 31v-483q0 -95 -34.5 -146t-101.5 -69.5t-176 -18.5v149z" />
    <glyph glyph-name="k" unicode="k" horiz-adv-x="737" 
d="M643 147h77v-147h-233l-143 214v-214h-320v147h86v450h-86v133l320 32v-475l102 85h-54v151h312v-151h-78l-84 -70z" />
    <glyph glyph-name="l" unicode="l" horiz-adv-x="478" 
d="M45 0v147h86v450h-86v133l320 32v-615h75v-147h-395z" />
    <glyph glyph-name="m" unicode="m" horiz-adv-x="1105" 
d="M1093 141v-141h-302v333q0 21 -13.5 37t-32.5 16q-36 0 -45.5 -35.5t-9.5 -102.5v-248h-234v333q0 21 -13.5 37t-32.5 16q-36 0 -45.5 -35.5t-9.5 -102.5v-107h1v-141h-305v141h71v231h-71v132l304 29v-73q34 40 77 56.5t97 16.5q111 0 145 -94q36 51 83 72.5t107 21.5
q161 0 161 -201v-191h68z" />
    <glyph glyph-name="n" unicode="n" horiz-adv-x="771" 
d="M758 141v-141h-302v333q0 21 -13.5 37t-32.5 16q-36 0 -45.5 -35.5t-9.5 -102.5v-107h1v-141h-305v141h71v231h-71v132l304 29v-73q34 40 77 56.5t97 16.5q161 0 161 -201v-191h68z" />
    <glyph glyph-name="o" unicode="o" horiz-adv-x="667" 
d="M178 23.5q-67 32.5 -104 95t-37 148.5q0 85 37 145t104 90.5t155 30.5q135 0 216 -69.5t81 -196.5q0 -86 -37 -148.5t-104 -95t-156 -32.5q-88 0 -155 32.5zM380.5 165.5q15.5 31.5 15.5 101.5q0 65 -15 94t-48 29q-32 0 -47 -29t-15 -94q0 -70 15.5 -101.5t46.5 -31.5
q32 0 47.5 31.5z" />
    <glyph glyph-name="p" unicode="p" horiz-adv-x="738" 
d="M31 -46h63v418h-63v131l297 30v-83q25 35 64.5 59t92.5 24q70 0 119 -36t74 -97t25 -136t-24.5 -137t-74 -99t-120.5 -37q-49 0 -89.5 19.5t-66.5 47.5v-105h63v-147h-360v148zM463 169q21 35 21 92q0 59 -23 94t-60 35q-25 0 -45 -12.5t-28 -32.5v-169q22 -42 70 -42
q44 0 65 35z" />
    <glyph glyph-name="q" unicode="q" horiz-adv-x="740" 
d="M356 -47h55v105q-65 -67 -153 -67q-71 0 -121 37t-75 99t-25 137q0 74 25.5 135.5t75 97.5t119.5 36q53 0 91 -23.5t63 -59.5l35 73h248v-151h-46v-418h58v-148h-350v147zM392 157.5q19 13.5 19 32.5v144q-5 21 -22.5 33.5t-42.5 12.5q-79 0 -79 -119q0 -52 19 -84.5
t62 -32.5q25 0 44 13.5z" />
    <glyph glyph-name="r" unicode="r" horiz-adv-x="523" 
d="M31 147h63v225h-63v132l297 29v-85q23 37 77 61t95 24v-207q-57 19 -94 19q-47 0 -62.5 -27t-15.5 -71v-100h78v-147h-375v147z" />
    <glyph glyph-name="s" unicode="s" horiz-adv-x="579" 
d="M138 44l-16 -44h-91v193h109q6 -37 34.5 -66.5t65.5 -29.5q14 0 24.5 8t10.5 26t-20.5 32.5t-62.5 34.5q-50 25 -82 45.5t-55.5 54t-23.5 80.5q0 49 31.5 84t83.5 53t113 18q80 0 148 -42l12 32h81v-156h-94q-12 32 -35 50t-54 18q-17 0 -26.5 -5t-9.5 -18q1 -16 19 -27
t60 -29q52 -22 86 -42t59.5 -56.5t25.5 -90.5q0 -57 -30 -96.5t-79 -59.5t-107 -20q-100 0 -177 53z" />
    <glyph glyph-name="t" unicode="t" horiz-adv-x="466" 
d="M140.5 39.5q-46.5 48.5 -46.5 147.5v193h-78v143h78v112l234 52v-164h94v-143h-94v-176q0 -22 16.5 -36.5t41.5 -14.5q18 0 36 3v-136q-64 -29 -140 -29q-95 0 -141.5 48.5z" />
    <glyph glyph-name="u" unicode="u" horiz-adv-x="751" 
d="M94 188v184h-63v132l297 29v-345q0 -19 14 -35t33 -16q22 0 34.5 15t12.5 37v183h-47v132l281 29v-386h63v-147h-297v76q-26 -40 -69 -62.5t-102 -22.5q-157 0 -157 197z" />
    <glyph glyph-name="v" unicode="v" horiz-adv-x="724" 
d="M235 0l-163 372h-72v151h375v-151h-54l85 -246l94 246h-62v151h265v-151h-66l-153 -372h-249z" />
    <glyph glyph-name="w" unicode="w" horiz-adv-x="1006" 
d="M212 0l-116 372h-65v151h346v-151h-46l45 -181l103 332h130l106 -338l49 187h-58v151h269v-151h-66l-111 -372h-232l-63 210l-74 -210h-217z" />
    <glyph glyph-name="x" unicode="x" horiz-adv-x="649" 
d="M41 0v147h73l88 103l-89 122h-63v151h242l79 -122l90 122h134v-151h-64l-79 -89l94 -136h64v-147h-231l-92 135l-101 -135h-145z" />
    <glyph glyph-name="y" unicode="y" horiz-adv-x="755" 
d="M195 -184v154h99l27 45l-228 357h-62v151h366v-151h-48l81 -150l74 150h-53v151h273v-151h-53l-213 -402h75v-154h-338z" />
    <glyph glyph-name="z" unicode="z" horiz-adv-x="609" 
d="M40 0v138l241 242h-100l-32 -69h-96v212h499v-135l-229 -244h140l17 76h90v-220h-530z" />
    <glyph glyph-name="braceleft" unicode="{" horiz-adv-x="419" 
d="M212.5 36.5q-75.5 45.5 -107.5 128.5q-19 52 -19 108q0 40 -19.5 59t-60.5 21v117q41 2 60.5 20.5t19.5 58.5q0 119 76 198q38 39 100.5 61.5t138.5 22.5v-162q-79 0 -79 -120q0 -93 -122 -138q122 -45 122 -138q0 -120 79 -120v-162q-113 0 -188.5 45.5z" />
    <glyph glyph-name="bar" unicode="|" horiz-adv-x="228" 
d="M18 0v792h192v-792h-192z" />
    <glyph glyph-name="braceright" unicode="}" horiz-adv-x="419" 
d="M18 154q79 0 79 120q0 93 122 138q-122 45 -122 138q0 120 -79 120v162q113 0 188 -45t107 -129q20 -51 20 -107q0 -40 19.5 -59t60.5 -21v-117q-41 -2 -60.5 -21t-19.5 -59q0 -118 -76 -197q-38 -40 -100 -62.5t-139 -22.5v162z" />
    <glyph glyph-name="asciitilde" unicode="~" horiz-adv-x="620" 
d="M436 308q-31 0 -59.5 12.5t-69.5 37.5q-43 25 -70.5 37t-57.5 12q-15 0 -35 -20t-54 -61l-14 -16l-64 42q8 13 18 32t14 27q21 44 37.5 71t42.5 46t61 19q36 0 66.5 -13t75.5 -39q37 -22 63 -33.5t53 -11.5q15 0 38.5 23.5t63.5 71.5l63 -42q-18 -27 -41 -75
q-21 -42 -35.5 -65.5t-37.5 -39.5t-57 -16z" />
    <glyph glyph-name="uni00A0" unicode="&#xa0;" horiz-adv-x="206" 
 />
    <glyph glyph-name="exclamdown" unicode="&#xa1;" horiz-adv-x="336" 
d="M71 598q-39 33 -39 90q0 54 38 87q40 32 98 32q61 0 101 -32q39 -33 39 -87q0 -57 -40 -90q-41 -33 -100 -33h-1q-57 0 -96 33zM26 0v146l40 378l205 -1l42 -377v-146h-287z" />
    <glyph glyph-name="cent" unicode="&#xa2;" horiz-adv-x="538" 
d="M297 -9h-6q-78 0 -139 32t-95.5 94t-34.5 149q0 74 32 135t89.5 96.5t131.5 35.5q15 0 22 -1v133h55l2 -149q26 -13 48 -31l20 38h85v-217h-118q0 23 -9.5 41.5t-26.5 26.5v-225q14 6 25.5 25t11.5 34h117v-147q-50 -51 -155 -65v-123h-55v118zM299 370q-45 -28 -45 -120
q0 -33 10.5 -61t34.5 -39v220z" />
    <glyph glyph-name="sterling" unicode="&#xa3;" horiz-adv-x="603" 
d="M21 14v152q27 -7 46 -7q33 0 43.5 23t10.5 72v117h-60v114h60v104q0 40 17 74t46 58q40 31 100 47.5t127 16.5q92 0 155 -22v-152q-60 6 -101 6q-55 0 -83.5 -16t-28.5 -56v-60h124v-114h-124v-193q64 -17 144 -17q31 0 86 5v-152q-69 -23 -133 -23q-124 0 -124 83
q-51 -84 -167 -84q-55 0 -138 24z" />
    <glyph glyph-name="currency" unicode="&#xa4;" horiz-adv-x="603" 
d="M133 312l-40 -40l-50 50l36 36q-59 73 -59 178q0 104 56 172l-33 34l50 50l35 -35q75 51 172 51q100 0 175 -54l37 38l51 -50l-37 -36q54 -71 54 -170q0 -105 -57 -174l40 -40l-51 -50l-42 42q-72 -50 -170 -50q-95 0 -167 48zM367 355q33 12 60 36q25 22 42 61
q16 38 16 85t-16 83l-1 -1q-14 35 -42 62q-29 24 -59 35q-32 13 -68 13q-35 0 -68 -12q-37 -15 -59 -36q-26 -21 -43 -61q-16 -42 -16 -84q0 -44 16 -84q16 -38 43 -62q25 -22 59 -36q33 -12 68 -12q32 0 68 13z" />
    <glyph glyph-name="yen" unicode="&#xa5;" horiz-adv-x="812" 
d="M203 180h75v42h-206v85h206v20l-30 44h-176l2 86h115l-115 165h-54v170h416v-170h-45l90 -137q29 44 42.5 70t13.5 41t-13 20t-45 5v171h312v-171h-37q-28 0 -46 -10.5t-32 -32.5l-75 -122h151v-85h-202v-64h202v-85h-202v-42h77v-181h-424v181z" />
    <glyph glyph-name="brokenbar" unicode="&#xa6;" horiz-adv-x="266" 
d="M36 440v352h193v-352h-193zM36 0v352h193v-352h-193z" />
    <glyph glyph-name="section" unicode="&#xa7;" horiz-adv-x="496" 
d="M194 0q-34 9 -58 33l-17 -33h-83v185h108q5 -34 29.5 -58.5t58.5 -24.5q18 0 30.5 10t12.5 28q0 32 -27.5 54.5t-84.5 51.5q-48 25 -77 44.5t-50 48.5t-21 68q0 42 28 76.5t71 50.5q-80 57 -80 126q0 40 23.5 71.5t63 49t85.5 17.5q71 0 128 -32l13 25h82v-158h-98
l-16 36q-21 45 -55 45q-19 0 -29.5 -10.5t-10.5 -28.5q0 -23 24.5 -42.5t75.5 -46.5q51 -29 81 -49.5t52.5 -51t22.5 -69.5q0 -48 -28 -84.5t-76 -61.5q79 -49 79 -126q0 -42 -24 -77t-64.5 -55.5t-85.5 -20.5q-49 0 -83 9zM331 399q0 23 -30 44.5t-81 37.5
q-25 -10 -37.5 -23t-12.5 -31q0 -27 34 -49.5t85 -43.5q42 29 42 65z" />
    <glyph glyph-name="dieresis" unicode="&#xa8;" horiz-adv-x="578" 
d="M56 629q-31 32 -31 81q0 48 31.5 79.5t79.5 31.5q49 0 79.5 -31.5t30.5 -80.5q0 -48 -31 -80t-79 -32q-49 0 -80 32zM357 628.5q-31 32.5 -31 81.5q0 48 31 79.5t79 31.5q49 0 79.5 -31.5t30.5 -80.5q0 -48 -31 -80.5t-78 -32.5q-49 0 -80 32.5z" />
    <glyph glyph-name="copyright" unicode="&#xa9;" horiz-adv-x="864" 
d="M272 23q-75 31 -131 84q-55 54 -87 126q-33 74 -33 154t33 153l-1 -1q33 74 88 126q58 55 131 85q75 31 160 31t159 -31q77 -32 131 -84q55 -53 88 -126q32 -75 32 -154q0 -78 -32 -153q-33 -74 -88 -126q-55 -54 -131 -85q-74 -31 -159 -31q-82 0 -160 32zM594 106
q75 43 118 118q44 72 44 161t-44 161q-44 74 -118 117t-163 43q-67 0 -126 -25q-61 -26 -104 -69q-45 -43 -70 -103q-26 -60 -26 -124t26 -125q25 -57 70 -102q43 -43 104 -69t126 -26q86 0 163 43zM240 189q-61 68 -61 189q0 41 7 76q8 38 24 72q16 33 41 60q25 26 60 41
q36 15 79 15q80 0 111 -31l11 22h96v-196h-92q2 23 -6 42q-5 18 -23 36q-16 15 -43 15q-17 0 -29 -6q-13 -6 -20 -18q-6 -7 -14 -23q-6 -15 -7 -29l-3 -30v-29v-38q0 -11 1 -20q0 -12 2 -22l4 -19q4 -14 7 -20q1 -2 10 -16q4 -7 13 -13q7 -4 17 -7q11 -3 23 -3q25 0 45 14
q18 15 24 40q2 8 2 29h93v-127l-8 -10q-9 -7 -27 -18q-26 -14 -41 -20q-21 -10 -55 -18q-31 -7 -64 -7q-115 0 -177 69z" />
    <glyph glyph-name="ordfeminine" unicode="&#xaa;" horiz-adv-x="503" 
d="M68 426q-41 32 -41 85q0 52 44.5 83.5t112.5 31.5q56 0 92 -14v16q0 60 -76 60q-52 0 -77 -34h-63v113q94 26 174 26q95 0 150 -29t55 -93v-160h28v-110h-170l-18 43q-19 -24 -50 -37t-62 -13q-58 0 -99 32zM276 496v53q-16 8 -35 8q-16 0 -26.5 -12.5t-11.5 -27.5
q0 -17 9.5 -27t24.5 -10q23 0 39 16z" />
    <glyph glyph-name="guillemotleft" unicode="&#xab;" horiz-adv-x="642" 
d="M232 -2l-208 197v132l208 197l93 -109l-154 -154l154 -154zM530 -2l-208 197v132l208 197l93 -109l-154 -154l154 -154z" />
    <glyph glyph-name="logicalnot" unicode="&#xac;" horiz-adv-x="555" 
d="M408 265v107h-380l-1 161h494v-268h-113z" />
    <glyph glyph-name="uni00AD" unicode="&#xad;" horiz-adv-x="380" 
d="M32 262v146h316v-146h-316z" />
    <glyph glyph-name="registered" unicode="&#xae;" horiz-adv-x="864" 
d="M842 386q0 -78 -32 -153q-33 -74 -88 -126q-55 -54 -131 -85q-74 -31 -159 -31q-82 0 -160 32q-75 31 -131 84q-55 54 -87 126q-33 74 -33 154t33 153l-1 -1q33 74 88 126q58 55 131 85q75 31 160 31t159 -31q77 -32 131 -84q55 -53 88 -126q32 -75 32 -154zM756 385
q0 89 -44 161q-44 74 -118 117t-163 43q-67 0 -126 -25q-61 -26 -104 -69q-45 -43 -70 -103q-26 -60 -26 -124t26 -125q25 -57 70 -102q43 -43 104 -69t126 -26q86 0 163 43q75 43 118 118q44 72 44 161zM626 279q9 -6 37 -6v-97h-71h-31q-20 3 -28 5q-14 2 -25 10
q-8 5 -16 20q-7 18 -7 34v53q0 34 -10 50q-11 17 -41 17h-26v-89h32v-100q-121 0 -219 -1v99h42v243h-42v99h275q69 0 107 -29t38 -93q0 -39 -26 -65q-27 -27 -72 -34q39 -9 58 -26q17 -19 17 -42v-25q0 -15 8 -23zM491 474q0 22 -13 34q-14 13 -39 13h-33v-95h17
q68 0 68 48z" />
    <glyph glyph-name="macron" unicode="&#xaf;" horiz-adv-x="575" 
d="M27 784h521v-146h-521v146z" />
    <glyph glyph-name="degree" unicode="&#xb0;" horiz-adv-x="395" 
d="M119 478q-36 15 -55 39q-22 25 -32 54q-11 28 -11 62t11 60q9 26 31 53q20 23 55 38q34 14 75 14q42 0 78 -14q35 -14 55 -37q24 -27 33 -52q12 -28 12 -60t-12 -62q-9 -27 -33 -54q-20 -23 -56 -39q-35 -15 -78 -15l1 -2q-41 0 -74 15zM192 534q48 0 75 29q27 30 27 70
q0 42 -26 69q-27 28 -75 28q-47 0 -72 -28q-26 -29 -26 -69t27 -70q25 -30 71 -30z" />
    <glyph glyph-name="plusminus" unicode="&#xb1;" horiz-adv-x="383" 
d="M131 136v116h-113v120h113v131h124v-131h110v-120h-110v-116h-124zM32 0v109h316v-109h-316z" />
    <glyph glyph-name="uni00B2" unicode="&#xb2;" horiz-adv-x="426" 
d="M49 472q58 23 95 54q33 27 49.5 50.5t16.5 59.5q0 21 -12 36t-28 15q-19 0 -29 -12t-10 -30q0 -20 18 -38l-66 -51q-44 41 -44 103t45 97.5t116 35.5q73 0 117.5 -33.5t44.5 -100.5q0 -35 -16.5 -63t-43.5 -52.5t-77 -62.5h47q32 0 48 9.5t16 33.5h51v-138h-336z" />
    <glyph glyph-name="uni00B3" unicode="&#xb3;" horiz-adv-x="400" 
d="M92.5 392.5q-32.5 5.5 -57.5 21.5v98q51 -42 106 -42q26 0 45 10.5t19 32.5q0 25 -19.5 36.5t-47.5 11.5q-21 0 -41 -6h-6v48l97 83v2h-62q-17 0 -25 -8.5t-14 -31.5h-55v130h305v-75l-81 -68q42 -4 71 -35.5t29 -72.5q0 -70 -51.5 -105t-133.5 -35q-46 0 -78.5 5.5z" />
    <glyph glyph-name="acute" unicode="&#xb4;" horiz-adv-x="368" 
d="M74 591l-51 69l232 213l90 -129z" />
    <glyph glyph-name="uni00B5" unicode="&#xb5;" horiz-adv-x="680" 
d="M387 0v76q-39 -59 -110 -78q24 -95 24 -188h-242v562q0 80 -10 151l244 10v-345q0 -19 14 -35t33 -16q22 0 34.5 15t12.5 37v183q0 68 -10 151l244 10v-352q0 -104 10 -181h-244z" />
    <glyph glyph-name="paragraph" unicode="&#xb6;" horiz-adv-x="713" 
d="M689 177v-177h-199v620h-61v-620h-204v177h71v183q-63 0 -113 11q-47 10 -88 35q-37 24 -57 65q-19 38 -19 90q0 46 8 75q8 30 20 52q12 20 32 40q17 17 41 28q23 11 49 18q27 9 55 12q37 4 60 5q40 2 62 1h64h277v-173h-74v-442h76z" />
    <glyph glyph-name="periodcentered" unicode="&#xb7;" horiz-adv-x="327" 
d="M63 284q-39 33 -39 89t39 87q38 33 97 33q62 0 101 -33q39 -31 39 -87t-40 -89t-99 -33l-1 -1q-57 0 -97 34z" />
    <glyph glyph-name="cedilla" unicode="&#xb8;" horiz-adv-x="250" 
d="M29 -183q48 1 70 15.5t22 44.5q0 42 -54 55v68h87v-60q65 -23 65 -80q0 -50 -50 -74t-129 -24h-11v55z" />
    <glyph glyph-name="uni00B9" unicode="&#xb9;" horiz-adv-x="293" 
d="M58 384v93h25v179h-46v73l189 48l2 -300h27v-93h-197z" />
    <glyph glyph-name="ordmasculine" unicode="&#xba;" horiz-adv-x="503" 
d="M93.5 446q-59.5 54 -59.5 150t59 146t159 50q101 0 159.5 -50.5t58.5 -145.5q0 -96 -60.5 -150t-158.5 -54t-157.5 54zM300 594q0 41 -9.5 63t-39.5 22t-39.5 -23.5t-9.5 -65.5q0 -86 48 -86q50 0 50 90z" />
    <glyph glyph-name="guillemotright" unicode="&#xbb;" horiz-adv-x="640" 
d="M112 -2l-93 109l153 154l-153 154l93 109l208 -197v-132zM410 -2l-94 109l154 154l-154 154l94 109l208 -197v-132z" />
    <glyph glyph-name="onequarter" unicode="&#xbc;" horiz-adv-x="851" 
d="M46 399v93h25v179h-46v73l189 48l2 -300h27v-93h-197zM182 -1l239 793h178l-245 -793h-172zM594 0v82h36v38h-152v77l158 187h126v-191h65v-73h-66v-38h35v-82h-202zM630 193v68l-54 -67z" />
    <glyph glyph-name="onehalf" unicode="&#xbd;" horiz-adv-x="887" 
d="M185 -1l239 793h178l-245 -793h-172zM46 399v93h25v179h-46v73l189 48l2 -300h27v-93h-197zM524 89q58 23 95 54q33 27 49.5 50.5t16.5 59.5q0 21 -12 36t-28 15q-19 0 -29 -12t-10 -30q0 -20 18 -38l-66 -51q-44 41 -44 103t45 97.5t116 35.5q73 0 117.5 -33.5
t44.5 -100.5q0 -35 -16.5 -63t-43.5 -52.5t-77 -62.5h47q32 0 48 9.5t16 33.5h51v-138h-336z" />
    <glyph glyph-name="threequarters" unicode="&#xbe;" horiz-adv-x="938" 
d="M264 -1l239 793h178l-245 -793h-172zM85.5 407.5q-32.5 5.5 -57.5 21.5v98q51 -42 106 -42q26 0 45 10.5t19 32.5q0 25 -19.5 36.5t-47.5 11.5q-21 0 -41 -6h-6v48l97 83v2h-62q-17 0 -25 -8.5t-14 -31.5h-55v130h305v-75l-81 -68q42 -4 71 -35.5t29 -72.5
q0 -70 -51.5 -105t-133.5 -35q-46 0 -78.5 5.5zM681 1v82h36v38h-152v77l158 187h126v-191h65v-73h-66v-38h35v-82h-202zM717 194v68l-54 -67z" />
    <glyph glyph-name="questiondown" unicode="&#xbf;" horiz-adv-x="629" 
d="M276 644q-39 32 -39 87q0 56 41 89q42 34 99 34v-1q58 0 97 -33t39 -89q0 -55 -38 -87q-39 -33 -98 -33q-62 0 -101 33zM165 21q-68 30 -105 82q-39 51 -39 116q0 34 10 63q9 29 24 52q12 21 38 44q14 14 45 36q26 17 52 29q28 14 53 24q9 4 53 19v91l169 -1v-172
q-194 -87 -194 -174q0 -5 2 -17q2 -9 6 -21q5 -11 14 -19q10 -7 25 -7q58 0 64 79h230q-6 -109 -89 -182q-83 -71 -208 -71q-81 0 -150 29z" />
    <glyph glyph-name="Agrave" unicode="&#xc0;" horiz-adv-x="859" 
d="M16 0v172h77l134 433h-102v172h484l173 -605h77v-172h-437v172h63l-21 83h-176l-22 -83h93v-172h-343zM313 373h128l-57 238zM520 845l-271 94l66 134l256 -159z" />
    <glyph glyph-name="Aacute" unicode="&#xc1;" horiz-adv-x="859" 
d="M16 0v172h77l134 433h-102v172h484l173 -605h77v-172h-437v172h63l-21 83h-176l-22 -83h93v-172h-343zM313 373h128l-57 238zM300 845l-44 73l249 155l66 -134z" />
    <glyph glyph-name="Acircumflex" unicode="&#xc2;" horiz-adv-x="859" 
d="M16 0v172h77l134 433h-102v172h484l173 -605h77v-172h-437v172h63l-21 83h-176l-22 -83h93v-172h-343zM313 373h128l-57 238zM285 838l-75 50l134 154h132l134 -154l-75 -50l-125 105z" />
    <glyph glyph-name="Atilde" unicode="&#xc3;" horiz-adv-x="859" 
d="M16 0v172h77l134 433h-102v172h484l173 -605h77v-172h-437v172h63l-21 83h-176l-22 -83h93v-172h-343zM313 373h128l-57 238zM453.5 858q-21.5 5 -56.5 16q-21 7 -42.5 12.5t-35.5 5.5q-20 0 -36 -10t-35 -34l-55 36q28 69 59.5 101t72.5 32q24 0 46 -6t54 -17
q49 -19 73 -19q21 0 38 10.5t36 34.5l55 -37q-28 -61 -56.5 -95.5t-77.5 -34.5q-18 0 -39.5 5z" />
    <glyph glyph-name="Adieresis" unicode="&#xc4;" horiz-adv-x="859" 
d="M16 0v172h77l134 433h-102v172h484l173 -605h77v-172h-437v172h63l-21 83h-176l-22 -83h93v-172h-343zM313 373h128l-57 238zM180 878.5q-31 30.5 -31 76.5q0 45 31.5 74.5t79.5 29.5q49 0 79.5 -29.5t30.5 -75.5q0 -45 -31 -75.5t-79 -30.5q-49 0 -80 30.5zM480.5 878
q-30.5 30 -30.5 76t31 75.5t79 29.5q49 0 79.5 -29.5t30.5 -76.5q0 -45 -31 -75t-79 -30q-49 0 -79.5 30z" />
    <glyph glyph-name="Aring" unicode="&#xc5;" horiz-adv-x="859" 
d="M16 0v172h77l134 433h-102v172h484l173 -605h77v-172h-437v172h63l-21 83h-176l-22 -83h93v-172h-343zM313 373h128l-57 238zM312 854.5q-37 34.5 -37 83.5q0 48 36.5 80.5t98.5 32.5t98.5 -33t36.5 -81t-37.5 -82.5t-97.5 -34.5q-61 0 -98 34.5zM466.5 888
q21.5 19 21.5 49q0 29 -21 47.5t-57 18.5q-38 0 -59 -18.5t-21 -47.5q0 -30 21.5 -49t58.5 -19q35 0 56.5 19z" />
    <glyph glyph-name="AE" unicode="&#xc6;" horiz-adv-x="1070" 
d="M32 172q33 0 56 14.5t39.5 39.5t39.5 71l157 325h-104l35 170h766v-318l-130 -1l-38 147h-104v-139h100v-171h-100v-140h106l38 164h133v-335h-600l-1 184h59q5 27 5 42q0 38 -23 38h-134q-10 0 -15 -11t-5 -28t4.5 -29t12.5 -12h36v-183l-333 -1v173zM363 375h117v255z
" />
    <glyph glyph-name="Ccedilla" unicode="&#xc7;" horiz-adv-x="755" 
d="M563 458v16q0 62 -28.5 101.5t-84.5 39.5q-38 0 -69.5 -29t-49.5 -76t-18 -97q0 -98 49 -153.5t134 -55.5q60 0 111.5 20t84.5 43l11 -9v-208q-99 -58 -239 -63v-47q65 -23 65 -80q0 -50 -50 -74t-129 -24h-11v55q48 1 70 15.5t22 44.5q0 42 -54 55v56q-98 10 -176 58
t-124 136t-46 211q0 112 40.5 202.5t119 143.5t189.5 53q57 0 102 -26.5t65 -67.5l20 79h152v-319h-156z" />
    <glyph glyph-name="Egrave" unicode="&#xc8;" horiz-adv-x="708" 
d="M47 0v172h94v433h-94v172h656v-309h-125l-47 137h-140v-127h125v-128h-125v-178h140l47 159h125v-331h-656zM492 845l-271 94l66 134l256 -159z" />
    <glyph glyph-name="Eacute" unicode="&#xc9;" horiz-adv-x="708" 
d="M47 0v172h94v433h-94v172h656v-309h-125l-47 137h-140v-127h125v-128h-125v-178h140l47 159h125v-331h-656zM272 845l-44 73l249 155l66 -134z" />
    <glyph glyph-name="Ecircumflex" unicode="&#xca;" horiz-adv-x="708" 
d="M47 0v172h94v433h-94v172h656v-309h-125l-47 137h-140v-127h125v-128h-125v-178h140l47 159h125v-331h-656zM257 838l-75 50l134 154h132l134 -154l-75 -50l-125 105z" />
    <glyph glyph-name="Edieresis" unicode="&#xcb;" horiz-adv-x="708" 
d="M47 0v172h94v433h-94v172h656v-309h-125l-47 137h-140v-127h125v-128h-125v-178h140l47 159h125v-331h-656zM152 878.5q-31 30.5 -31 76.5q0 45 31.5 74.5t79.5 29.5q49 0 79.5 -29.5t30.5 -75.5q0 -45 -31 -75.5t-79 -30.5q-49 0 -80 30.5zM452.5 878q-30.5 30 -30.5 76
t31 75.5t79 29.5q49 0 79.5 -29.5t30.5 -76.5q0 -45 -31 -75t-79 -30q-49 0 -79.5 30z" />
    <glyph glyph-name="Igrave" unicode="&#xcc;" horiz-adv-x="502" 
d="M63 0v172h78v433h-78v172h406v-172h-78v-433h78v-172h-406zM376 845l-271 94l66 134l256 -159z" />
    <glyph glyph-name="Iacute" unicode="&#xcd;" horiz-adv-x="502" 
d="M63 0v172h78v433h-78v172h406v-172h-78v-433h78v-172h-406zM156 845l-44 73l249 155l66 -134z" />
    <glyph glyph-name="Icircumflex" unicode="&#xce;" horiz-adv-x="502" 
d="M63 0v172h78v433h-78v172h406v-172h-78v-433h78v-172h-406zM141 838l-75 50l134 154h132l134 -154l-75 -50l-125 105z" />
    <glyph glyph-name="Idieresis" unicode="&#xcf;" horiz-adv-x="502" 
d="M63 0v172h78v433h-78v172h406v-172h-78v-433h78v-172h-406zM36 878.5q-31 30.5 -31 76.5q0 45 31.5 74.5t79.5 29.5q49 0 79.5 -29.5t30.5 -75.5q0 -45 -31 -75.5t-79 -30.5q-49 0 -80 30.5zM336.5 878q-30.5 30 -30.5 76t31 75.5t79 29.5q49 0 79.5 -29.5t30.5 -76.5
q0 -45 -31 -75t-79 -30q-49 0 -79.5 30z" />
    <glyph glyph-name="Eth" unicode="&#xd0;" horiz-adv-x="885" 
d="M44 171h80v148h-63v146h63l1 155h-83v172h406q202 0 302 -100q100 -102 100 -294q0 -79 -27 -150t-78 -127q-51 -55 -130 -88t-179 -33h-392v171zM471 184q28 16 44 37q16 22 26 53q11 33 14 61q4 27 4 63q0 34 -3 61q-3 29 -12 59q-7 30 -23 52q-17 22 -43 35
q-27 15 -63 15h-23v-156h42v-146h-41l1 -147h15l-1 -2q36 0 63 15z" />
    <glyph glyph-name="Ntilde" unicode="&#xd1;" horiz-adv-x="904" 
d="M40 0v175h79v431h-77v172h359l243 -462v289h-78v172h311v-172h-77v-605h-296l-231 429v-254h78v-175h-311zM506.5 858q-21.5 5 -56.5 16q-21 7 -42.5 12.5t-35.5 5.5q-20 0 -36 -10t-35 -34l-55 36q28 69 59.5 101t72.5 32q24 0 46 -6t54 -17q49 -19 73 -19q21 0 38 10.5
t36 34.5l55 -37q-28 -61 -56.5 -95.5t-77.5 -34.5q-18 0 -39.5 5z" />
    <glyph glyph-name="Ograve" unicode="&#xd2;" horiz-adv-x="869" 
d="M211.5 38q-88.5 52 -134.5 143.5t-46 208.5q0 121 46 212t134 140.5t211 49.5t211 -49.5t134 -140.5t46 -212q0 -117 -46 -208.5t-134.5 -143.5t-210.5 -52t-210.5 52zM503 223q28 64 28 171q0 104 -27 164.5t-82 60.5t-82 -60.5t-27 -164.5q0 -107 28 -171t81 -64t81 64
zM529 861l-271 94l66 134l256 -159z" />
    <glyph glyph-name="Oacute" unicode="&#xd3;" horiz-adv-x="869" 
d="M211.5 38q-88.5 52 -134.5 143.5t-46 208.5q0 121 46 212t134 140.5t211 49.5t211 -49.5t134 -140.5t46 -212q0 -117 -46 -208.5t-134.5 -143.5t-210.5 -52t-210.5 52zM503 223q28 64 28 171q0 104 -27 164.5t-82 60.5t-82 -60.5t-27 -164.5q0 -107 28 -171t81 -64t81 64
zM309 861l-44 73l249 155l66 -134z" />
    <glyph glyph-name="Ocircumflex" unicode="&#xd4;" horiz-adv-x="869" 
d="M211.5 38q-88.5 52 -134.5 143.5t-46 208.5q0 121 46 212t134 140.5t211 49.5t211 -49.5t134 -140.5t46 -212q0 -117 -46 -208.5t-134.5 -143.5t-210.5 -52t-210.5 52zM503 223q28 64 28 171q0 104 -27 164.5t-82 60.5t-82 -60.5t-27 -164.5q0 -107 28 -171t81 -64t81 64
zM294 854l-75 50l134 154h132l134 -154l-75 -50l-125 105z" />
    <glyph glyph-name="Otilde" unicode="&#xd5;" horiz-adv-x="869" 
d="M211.5 38q-88.5 52 -134.5 143.5t-46 208.5q0 121 46 212t134 140.5t211 49.5t211 -49.5t134 -140.5t46 -212q0 -117 -46 -208.5t-134.5 -143.5t-210.5 -52t-210.5 52zM503 223q28 64 28 171q0 104 -27 164.5t-82 60.5t-82 -60.5t-27 -164.5q0 -107 28 -171t81 -64t81 64
zM462.5 874q-21.5 5 -56.5 16q-21 7 -42.5 12.5t-35.5 5.5q-20 0 -36 -10t-35 -34l-55 36q28 69 59.5 101t72.5 32q24 0 46 -6t54 -17q49 -19 73 -19q21 0 38 10.5t36 34.5l55 -37q-28 -61 -56.5 -95.5t-77.5 -34.5q-18 0 -39.5 5z" />
    <glyph glyph-name="Odieresis" unicode="&#xd6;" horiz-adv-x="869" 
d="M211.5 38q-88.5 52 -134.5 143.5t-46 208.5q0 121 46 212t134 140.5t211 49.5t211 -49.5t134 -140.5t46 -212q0 -117 -46 -208.5t-134.5 -143.5t-210.5 -52t-210.5 52zM503 223q28 64 28 171q0 104 -27 164.5t-82 60.5t-82 -60.5t-27 -164.5q0 -107 28 -171t81 -64t81 64
zM189 894.5q-31 30.5 -31 76.5q0 45 31.5 74.5t79.5 29.5q49 0 79.5 -29.5t30.5 -75.5q0 -45 -31 -75.5t-79 -30.5q-49 0 -80 30.5zM489.5 894q-30.5 30 -30.5 76t31 75.5t79 29.5q49 0 79.5 -29.5t30.5 -76.5q0 -45 -31 -75t-79 -30q-49 0 -79.5 30z" />
    <glyph glyph-name="multiply" unicode="&#xd7;" horiz-adv-x="403" 
d="M108 134l-85 84l94 95l-99 99l87 88l97 -100l96 100l88 -88l-100 -99l94 -95l-85 -84l-93 94z" />
    <glyph glyph-name="Oslash" unicode="&#xd8;" horiz-adv-x="868" 
d="M284 -76l20 81q-83 27 -144 84t-94 136t-33 169q0 115 47 209t137 149t216 55q24 0 54 -3l18 77l75 -15l-17 -77q129 -39 199.5 -143.5t70.5 -250.5q0 -108 -49 -202t-140 -150.5t-211 -56.5q-27 0 -51 3l-19 -84zM448 631l-14 1q-61 0 -82 -59.5t-21 -155.5
q0 -97 4 -137t17 -67zM514.5 213.5q20.5 62.5 20.5 168.5q0 89 -4 127.5t-16 65.5l-95 -422q4 -2 12 -2q62 0 82.5 62.5z" />
    <glyph glyph-name="Ugrave" unicode="&#xd9;" horiz-adv-x="826" 
d="M175.5 77q-76.5 91 -76.5 267v261h-79v172h424v-172h-72v-327q0 -48 23.5 -78.5t73.5 -30.5q42 0 66.5 25t24.5 68v343h-80v172h319v-172h-75v-336q0 -140 -82 -211.5t-216 -71.5q-174 0 -250.5 91zM516 845l-271 94l66 134l256 -159z" />
    <glyph glyph-name="Uacute" unicode="&#xda;" horiz-adv-x="826" 
d="M175.5 77q-76.5 91 -76.5 267v261h-79v172h424v-172h-72v-327q0 -48 23.5 -78.5t73.5 -30.5q42 0 66.5 25t24.5 68v343h-80v172h319v-172h-75v-336q0 -140 -82 -211.5t-216 -71.5q-174 0 -250.5 91zM296 845l-44 73l249 155l66 -134z" />
    <glyph glyph-name="Ucircumflex" unicode="&#xdb;" horiz-adv-x="826" 
d="M175.5 77q-76.5 91 -76.5 267v261h-79v172h424v-172h-72v-327q0 -48 23.5 -78.5t73.5 -30.5q42 0 66.5 25t24.5 68v343h-80v172h319v-172h-75v-336q0 -140 -82 -211.5t-216 -71.5q-174 0 -250.5 91zM281 838l-75 50l134 154h132l134 -154l-75 -50l-125 105z" />
    <glyph glyph-name="Udieresis" unicode="&#xdc;" horiz-adv-x="826" 
d="M175.5 77q-76.5 91 -76.5 267v261h-79v172h424v-172h-72v-327q0 -48 23.5 -78.5t73.5 -30.5q42 0 66.5 25t24.5 68v343h-80v172h319v-172h-75v-336q0 -140 -82 -211.5t-216 -71.5q-174 0 -250.5 91zM176 878.5q-31 30.5 -31 76.5q0 45 31.5 74.5t79.5 29.5
q49 0 79.5 -29.5t30.5 -75.5q0 -45 -31 -75.5t-79 -30.5q-49 0 -80 30.5zM476.5 878q-30.5 30 -30.5 76t31 75.5t79 29.5q49 0 79.5 -29.5t30.5 -76.5q0 -45 -31 -75t-79 -30q-49 0 -79.5 30z" />
    <glyph glyph-name="Yacute" unicode="&#xdd;" horiz-adv-x="813" 
d="M204 0v175h75v143l-205 287h-55v172h416v-172h-44l89 -130l70 130h-71v172h311v-172h-88l-151 -261v-169h77v-175h-424zM308 845l-44 73l249 155l66 -134z" />
    <glyph glyph-name="Thorn" unicode="&#xde;" horiz-adv-x="817" 
d="M38 177h77v549h-74v173h347l-1 -146q46 0 65 -1q28 0 63 -3q41 -4 61 -8q17 -3 55 -13q27 -8 51 -21q15 -9 41 -29q21 -19 32 -40q12 -22 20 -52q7 -28 7 -65q0 -65 -23 -114t-66 -77q-41 -29 -101 -43q-53 -14 -132 -14q-40 0 -73 5v-101h71v-177h-420v177zM417 437
q53 0 83 18q28 18 28 60q0 39 -26 56q-27 18 -64 18h-50v-152h29z" />
    <glyph glyph-name="germandbls" unicode="&#xdf;" horiz-adv-x="811" 
d="M472 169q71 19 71 94q0 51 -46 76.5t-129 25.5l-1 74q50 0 77.5 27t27.5 72q0 84 -72 84q-33 0 -51 -17.5t-18 -52.5l1 -405h73v-147h-371v147h63v386q0 138 77.5 198.5t231.5 60.5q135 0 211 -47t76 -142q0 -63 -28.5 -105t-81.5 -60q91 -24 143 -77.5t52 -140.5
q0 -122 -79.5 -176t-225.5 -54z" />
    <glyph glyph-name="agrave" unicode="&#xe0;" horiz-adv-x="682" 
d="M128 10.5q-41 19.5 -65.5 55.5t-24.5 84q0 52 28.5 87.5t75.5 53t101 17.5q64 0 123 -19v22q0 39 -33 59.5t-89 20.5q-36 0 -83 -13t-78 -32l-14 6v142q59 21 120.5 30t114.5 9q297 0 297 -167v-219h46v-147h-250l-22 80q-21 -41 -65.5 -65t-91.5 -24q-49 0 -90 19.5z
M343 121.5q17 5.5 23 11.5v82q-7 1 -23.5 5.5t-28.5 4.5q-26 0 -41.5 -16t-15.5 -43q0 -20 14.5 -35t38.5 -15q16 0 33 5.5zM441 601l-271 153l90 129l232 -213z" />
    <glyph glyph-name="aacute" unicode="&#xe1;" horiz-adv-x="682" 
d="M128 10.5q-41 19.5 -65.5 55.5t-24.5 84q0 52 28.5 87.5t75.5 53t101 17.5q64 0 123 -19v22q0 39 -33 59.5t-89 20.5q-36 0 -83 -13t-78 -32l-14 6v142q59 21 120.5 30t114.5 9q297 0 297 -167v-219h46v-147h-250l-22 80q-21 -41 -65.5 -65t-91.5 -24q-49 0 -90 19.5z
M343 121.5q17 5.5 23 11.5v82q-7 1 -23.5 5.5t-28.5 4.5q-26 0 -41.5 -16t-15.5 -43q0 -20 14.5 -35t38.5 -15q16 0 33 5.5zM228 601l-51 69l232 213l90 -129z" />
    <glyph glyph-name="acircumflex" unicode="&#xe2;" horiz-adv-x="682" 
d="M128 10.5q-41 19.5 -65.5 55.5t-24.5 84q0 52 28.5 87.5t75.5 53t101 17.5q64 0 123 -19v22q0 39 -33 59.5t-89 20.5q-36 0 -83 -13t-78 -32l-14 6v142q59 21 120.5 30t114.5 9q297 0 297 -167v-219h46v-147h-250l-22 80q-21 -41 -65.5 -65t-91.5 -24q-49 0 -90 19.5z
M343 121.5q17 5.5 23 11.5v82q-7 1 -23.5 5.5t-28.5 4.5q-26 0 -41.5 -16t-15.5 -43q0 -20 14.5 -35t38.5 -15q16 0 33 5.5zM206 575l-75 49l133 184h132l134 -184l-75 -49l-124 120z" />
    <glyph glyph-name="atilde" unicode="&#xe3;" horiz-adv-x="682" 
d="M128 10.5q-41 19.5 -65.5 55.5t-24.5 84q0 52 28.5 87.5t75.5 53t101 17.5q64 0 123 -19v22q0 39 -33 59.5t-89 20.5q-36 0 -83 -13t-78 -32l-14 6v142q59 21 120.5 30t114.5 9q297 0 297 -167v-219h46v-147h-250l-22 80q-21 -41 -65.5 -65t-91.5 -24q-49 0 -90 19.5z
M343 121.5q17 5.5 23 11.5v82q-7 1 -23.5 5.5t-28.5 4.5q-26 0 -41.5 -16t-15.5 -43q0 -20 14.5 -35t38.5 -15q16 0 33 5.5zM548 759q-8 -12 -32 -52q-24 -45 -45 -67t-57 -22q-19 0 -41.5 8t-54.5 24q-29 14 -47 20.5t-31 6.5q-10 0 -22 -9t-49 -44l-56 36q12 17 32 53
q26 45 46.5 67t54.5 22q23 0 45.5 -9t53.5 -25q28 -14 43.5 -20.5t30.5 -6.5q10 0 23.5 10t49.5 45zM246 802h-1h1z" />
    <glyph glyph-name="adieresis" unicode="&#xe4;" horiz-adv-x="682" 
d="M128 10.5q-41 19.5 -65.5 55.5t-24.5 84q0 52 28.5 87.5t75.5 53t101 17.5q64 0 123 -19v22q0 39 -33 59.5t-89 20.5q-36 0 -83 -13t-78 -32l-14 6v142q59 21 120.5 30t114.5 9q297 0 297 -167v-219h46v-147h-250l-22 80q-21 -41 -65.5 -65t-91.5 -24q-49 0 -90 19.5z
M343 121.5q17 5.5 23 11.5v82q-7 1 -23.5 5.5t-28.5 4.5q-26 0 -41.5 -16t-15.5 -43q0 -20 14.5 -35t38.5 -15q16 0 33 5.5zM101 639q-31 32 -31 81q0 48 31.5 79.5t79.5 31.5q49 0 79.5 -31.5t30.5 -80.5q0 -48 -31 -80t-79 -32q-49 0 -80 32zM402 638.5q-31 32.5 -31 81.5
q0 48 31 79.5t79 31.5q49 0 79.5 -31.5t30.5 -80.5q0 -48 -31 -80.5t-78 -32.5q-49 0 -80 32.5z" />
    <glyph glyph-name="aring" unicode="&#xe5;" horiz-adv-x="682" 
d="M128 10.5q-41 19.5 -65.5 55.5t-24.5 84q0 52 28.5 87.5t75.5 53t101 17.5q64 0 123 -19v22q0 39 -33 59.5t-89 20.5q-36 0 -83 -13t-78 -32l-14 6v142q59 21 120.5 30t114.5 9q297 0 297 -167v-219h46v-147h-250l-22 80q-21 -41 -65.5 -65t-91.5 -24q-49 0 -90 19.5z
M343 121.5q17 5.5 23 11.5v82q-7 1 -23.5 5.5t-28.5 4.5q-26 0 -41.5 -16t-15.5 -43q0 -20 14.5 -35t38.5 -15q16 0 33 5.5zM232 627q-36 36 -36 87q0 49 35.5 83.5t96.5 34.5q63 0 100 -34.5t37 -84.5q0 -32 -17 -60t-48 -45t-72 -17q-60 0 -96 36zM386.5 661.5
q22.5 21.5 22.5 51.5q0 29 -22 49.5t-59 20.5q-36 0 -56.5 -20.5t-20.5 -49.5q0 -31 21 -52t56 -21q36 0 58.5 21.5z" />
    <glyph glyph-name="ae" unicode="&#xe6;" horiz-adv-x="972" 
d="M926 214h-306q0 -40 34.5 -64.5t83.5 -24.5q37 0 82 13t90 40l7 -3v-131q-49 -28 -102 -43t-132 -15q-73 0 -119.5 20.5t-81.5 58.5q-44 -42 -99.5 -60.5t-130.5 -18.5q-55 0 -104 18.5t-79.5 55t-30.5 87.5q0 44 28 79t76 54.5t107 19.5q70 0 124 -18v22q0 81 -117 81
q-36 0 -82.5 -13t-78.5 -32l-13 6v142q53 21 109 29.5t105 8.5q65 0 117.5 -16t82.5 -43q30 29 76 45t93 16q76 0 137.5 -31t97 -90t35.5 -141q0 -32 -9 -52zM673 389q-53 0 -53 -91l105 -1q5 92 -52 92zM375 195q-24 11 -50 11q-22 0 -35.5 -14.5t-13.5 -40.5
q0 -22 12.5 -36t33.5 -14q31 0 53 23v71z" />
    <glyph glyph-name="ccedilla" unicode="&#xe7;" horiz-adv-x="610" 
d="M288 363.5q-22 -26.5 -22 -97.5q0 -73 38 -101t87 -28q35 0 76 12.5t73 39.5l7 -5v-136q0 -2 -26 -15t-68.5 -25.5t-96.5 -15.5v-52q65 -23 65 -80q0 -50 -50 -74t-129 -24h-11v55q48 1 70 15.5t22 44.5q0 42 -54 55v63q-110 16 -174 88t-64 184q0 76 31 136.5t88.5 95
t133.5 34.5q43 0 91.5 -15.5t61.5 -46.5l20 52h106v-216h-141q-4 39 -23 61t-47 22q-42 0 -64 -26.5z" />
    <glyph glyph-name="egrave" unicode="&#xe8;" horiz-adv-x="623" 
d="M170 24.5q-67 33.5 -103 95.5t-36 145q0 82 35 142.5t98.5 93t148.5 32.5q79 0 139 -31t93 -88t33 -133q0 -26 -8 -50h-304q0 -46 34.5 -73.5t83.5 -27.5q37 0 81.5 13t89.5 40l8 -3v-131q-50 -29 -103 -43.5t-132 -14.5q-91 0 -158 33.5zM391 317v10q0 35 -16 60t-47 25
q-26 0 -44 -25.5t-18 -55.5v-14h125zM425 591l-271 153l90 129l232 -213z" />
    <glyph glyph-name="eacute" unicode="&#xe9;" horiz-adv-x="623" 
d="M170 24.5q-67 33.5 -103 95.5t-36 145q0 82 35 142.5t98.5 93t148.5 32.5q79 0 139 -31t93 -88t33 -133q0 -26 -8 -50h-304q0 -46 34.5 -73.5t83.5 -27.5q37 0 81.5 13t89.5 40l8 -3v-131q-50 -29 -103 -43.5t-132 -14.5q-91 0 -158 33.5zM391 317v10q0 35 -16 60t-47 25
q-26 0 -44 -25.5t-18 -55.5v-14h125zM212 591l-51 69l232 213l90 -129z" />
    <glyph glyph-name="ecircumflex" unicode="&#xea;" horiz-adv-x="623" 
d="M170 24.5q-67 33.5 -103 95.5t-36 145q0 82 35 142.5t98.5 93t148.5 32.5q79 0 139 -31t93 -88t33 -133q0 -26 -8 -50h-304q0 -46 34.5 -73.5t83.5 -27.5q37 0 81.5 13t89.5 40l8 -3v-131q-50 -29 -103 -43.5t-132 -14.5q-91 0 -158 33.5zM391 317v10q0 35 -16 60t-47 25
q-26 0 -44 -25.5t-18 -55.5v-14h125zM190 565l-75 49l133 184h132l134 -184l-75 -49l-124 120z" />
    <glyph glyph-name="edieresis" unicode="&#xeb;" horiz-adv-x="623" 
d="M170 24.5q-67 33.5 -103 95.5t-36 145q0 82 35 142.5t98.5 93t148.5 32.5q79 0 139 -31t93 -88t33 -133q0 -26 -8 -50h-304q0 -46 34.5 -73.5t83.5 -27.5q37 0 81.5 13t89.5 40l8 -3v-131q-50 -29 -103 -43.5t-132 -14.5q-91 0 -158 33.5zM391 317v10q0 35 -16 60t-47 25
q-26 0 -44 -25.5t-18 -55.5v-14h125zM85 629q-31 32 -31 81q0 48 31.5 79.5t79.5 31.5q49 0 79.5 -31.5t30.5 -80.5q0 -48 -31 -80t-79 -32q-49 0 -80 32zM386 628.5q-31 32.5 -31 81.5q0 48 31 79.5t79 31.5q49 0 79.5 -31.5t30.5 -80.5q0 -48 -31 -80.5t-78 -32.5
q-49 0 -80 32.5z" />
    <glyph glyph-name="igrave" unicode="&#xec;" horiz-adv-x="396" 
d="M44 0v146h40v219h-43v127l278 31v-377h41v-146h-316zM312 591l-271 153l90 129l232 -213z" />
    <glyph glyph-name="iacute" unicode="&#xed;" horiz-adv-x="396" 
d="M44 0v146h40v219h-43v127l278 31v-377h41v-146h-316zM99 591l-51 69l232 213l90 -129z" />
    <glyph glyph-name="icircumflex" unicode="&#xee;" horiz-adv-x="396" 
d="M44 0v146h40v219h-43v127l278 31v-377h41v-146h-316zM77 565l-75 49l133 184h132l134 -184l-75 -49l-124 120z" />
    <glyph glyph-name="idieresis" unicode="&#xef;" horiz-adv-x="396" 
d="M44 0v146h40v219h-43v127l278 31v-377h41v-146h-316zM-28 629q-31 32 -31 81q0 48 31.5 79.5t79.5 31.5q49 0 79.5 -31.5t30.5 -80.5q0 -48 -31 -80t-79 -32q-49 0 -80 32zM273 628.5q-31 32.5 -31 81.5q0 48 31 79.5t79 31.5q49 0 79.5 -31.5t30.5 -80.5
q0 -48 -31 -80.5t-78 -32.5q-49 0 -80 32.5z" />
    <glyph glyph-name="eth" unicode="&#xf0;" horiz-adv-x="684" 
d="M204 14q-57 23 -95 63q-37 40 -56 87t-19 99q0 36 11 72q10 34 35 65q20 29 57 54q30 21 83 35q46 13 107 13h16q-12 45 -24 69l-122 -50l-31 77l88 35q-30 12 -71 12q-36 0 -61 -5v152q80 16 143 16q142 0 235 -76l104 42l32 -78l-77 -30q74 -110 84 -301v-29
q0 -62 -11 -107q-10 -48 -35 -95q-24 -43 -60 -75q-37 -33 -88 -50q-52 -18 -118 -18q-69 0 -127 23zM367 177q10 12 15 32q4 19 6 35q1 10 1 28q0 106 -48 106q-53 0 -53 -102q0 -112 54 -112q15 0 25 13z" />
    <glyph glyph-name="ntilde" unicode="&#xf1;" horiz-adv-x="771" 
d="M758 141v-141h-302v333q0 21 -13.5 37t-32.5 16q-36 0 -45.5 -35.5t-9.5 -102.5v-107h1v-141h-305v141h71v231h-71v132l304 29v-73q34 40 77 56.5t97 16.5q161 0 161 -201v-191h68zM577 749q-8 -12 -32 -52q-24 -45 -45 -67t-57 -22q-19 0 -41.5 8t-54.5 24
q-29 14 -47 20.5t-31 6.5q-10 0 -22 -9t-49 -44l-56 36q12 17 32 53q26 45 46.5 67t54.5 22q23 0 45.5 -9t53.5 -25q28 -14 43.5 -20.5t30.5 -6.5q10 0 23.5 10t49.5 45zM275 792h-1h1z" />
    <glyph glyph-name="ograve" unicode="&#xf2;" horiz-adv-x="667" 
d="M178 23.5q-67 32.5 -104 95t-37 148.5q0 85 37 145t104 90.5t155 30.5q135 0 216 -69.5t81 -196.5q0 -86 -37 -148.5t-104 -95t-156 -32.5q-88 0 -155 32.5zM380.5 165.5q15.5 31.5 15.5 101.5q0 65 -15 94t-48 29q-32 0 -47 -29t-15 -94q0 -70 15.5 -101.5t46.5 -31.5
q32 0 47.5 31.5zM443 591l-271 153l90 129l232 -213z" />
    <glyph glyph-name="oacute" unicode="&#xf3;" horiz-adv-x="667" 
d="M178 23.5q-67 32.5 -104 95t-37 148.5q0 85 37 145t104 90.5t155 30.5q135 0 216 -69.5t81 -196.5q0 -86 -37 -148.5t-104 -95t-156 -32.5q-88 0 -155 32.5zM380.5 165.5q15.5 31.5 15.5 101.5q0 65 -15 94t-48 29q-32 0 -47 -29t-15 -94q0 -70 15.5 -101.5t46.5 -31.5
q32 0 47.5 31.5zM230 591l-51 69l232 213l90 -129z" />
    <glyph glyph-name="ocircumflex" unicode="&#xf4;" horiz-adv-x="667" 
d="M178 23.5q-67 32.5 -104 95t-37 148.5q0 85 37 145t104 90.5t155 30.5q135 0 216 -69.5t81 -196.5q0 -86 -37 -148.5t-104 -95t-156 -32.5q-88 0 -155 32.5zM380.5 165.5q15.5 31.5 15.5 101.5q0 65 -15 94t-48 29q-32 0 -47 -29t-15 -94q0 -70 15.5 -101.5t46.5 -31.5
q32 0 47.5 31.5zM208 565l-75 49l133 184h132l134 -184l-75 -49l-124 120z" />
    <glyph glyph-name="otilde" unicode="&#xf5;" horiz-adv-x="667" 
d="M178 23.5q-67 32.5 -104 95t-37 148.5q0 85 37 145t104 90.5t155 30.5q135 0 216 -69.5t81 -196.5q0 -86 -37 -148.5t-104 -95t-156 -32.5q-88 0 -155 32.5zM380.5 165.5q15.5 31.5 15.5 101.5q0 65 -15 94t-48 29q-32 0 -47 -29t-15 -94q0 -70 15.5 -101.5t46.5 -31.5
q32 0 47.5 31.5zM550 749q-8 -12 -32 -52q-24 -45 -45 -67t-57 -22q-19 0 -41.5 8t-54.5 24q-29 14 -47 20.5t-31 6.5q-10 0 -22 -9t-49 -44l-56 36q12 17 32 53q26 45 46.5 67t54.5 22q23 0 45.5 -9t53.5 -25q28 -14 43.5 -20.5t30.5 -6.5q10 0 23.5 10t49.5 45zM248 792
h-1h1z" />
    <glyph glyph-name="odieresis" unicode="&#xf6;" horiz-adv-x="667" 
d="M178 23.5q-67 32.5 -104 95t-37 148.5q0 85 37 145t104 90.5t155 30.5q135 0 216 -69.5t81 -196.5q0 -86 -37 -148.5t-104 -95t-156 -32.5q-88 0 -155 32.5zM380.5 165.5q15.5 31.5 15.5 101.5q0 65 -15 94t-48 29q-32 0 -47 -29t-15 -94q0 -70 15.5 -101.5t46.5 -31.5
q32 0 47.5 31.5zM103 629q-31 32 -31 81q0 48 31.5 79.5t79.5 31.5q49 0 79.5 -31.5t30.5 -80.5q0 -48 -31 -80t-79 -32q-49 0 -80 32zM404 628.5q-31 32.5 -31 81.5q0 48 31 79.5t79 31.5q49 0 79.5 -31.5t30.5 -80.5q0 -48 -31 -80.5t-78 -32.5q-49 0 -80 32.5z" />
    <glyph glyph-name="divide" unicode="&#xf7;" horiz-adv-x="413" 
d="M135.5 459q-31.5 27 -31.5 73t31 72t79 26q50 0 83 -26t33 -72q0 -47 -33.5 -73.5t-82.5 -26.5q-47 0 -78.5 27zM18 263v109h378v-109h-378zM135.5 18q-31.5 27 -31.5 73t31 72t79 26q50 0 83 -26t33 -72q0 -47 -33.5 -73.5t-82.5 -26.5q-47 0 -78.5 27z" />
    <glyph glyph-name="oslash" unicode="&#xf8;" horiz-adv-x="656" 
d="M622 267q0 -86 -37 -148q-37 -63 -104 -96q-66 -32 -152 -32q-67 0 -120 19l-34 -61l-43 25l31 56q-56 31 -91 89q-37 62 -37 148h-1q0 126 79 196q77 70 215 70q60 0 111 -14l36 63l42 -24l-32 -56q32 -16 58 -39q79 -69 79 -196zM265 210l93 165q-12 6 -30 6
q-21 0 -36 -9q-14 -9 -20 -28q-6 -17 -9 -35q-2 -24 -2 -43h-1q0 -29 5 -56zM394 266q0 31 -2 43q-2 14 -4 20l-97 -173q15 -12 36 -12q67 0 67 122z" />
    <glyph glyph-name="ugrave" unicode="&#xf9;" horiz-adv-x="716" 
d="M446 560l-271 153l90 129l232 -213zM94 188v184h-63v132l297 29v-345q0 -19 14 -35t33 -16q22 0 34.5 15t12.5 37v183h-47v132l281 29v-386h63v-147h-297v76q-26 -40 -69 -62.5t-102 -22.5q-157 0 -157 197z" />
    <glyph glyph-name="uacute" unicode="&#xfa;" horiz-adv-x="716" 
d="M247 560l-51 69l232 213l90 -129zM94 188v184h-63v132l297 29v-345q0 -19 14 -35t33 -16q22 0 34.5 15t12.5 37v183h-47v132l281 29v-386h63v-147h-297v76q-26 -40 -69 -62.5t-102 -22.5q-157 0 -157 197z" />
    <glyph glyph-name="ucircumflex" unicode="&#xfb;" horiz-adv-x="716" 
d="M236 571l-75 49l133 184h132l134 -184l-75 -49l-124 120zM94 188v184h-63v132l297 29v-345q0 -19 14 -35t33 -16q22 0 34.5 15t12.5 37v183h-47v132l281 29v-386h63v-147h-297v76q-26 -40 -69 -62.5t-102 -22.5q-157 0 -157 197z" />
    <glyph glyph-name="udieresis" unicode="&#xfc;" horiz-adv-x="716" 
d="M126 598q-31 32 -31 81q0 48 31.5 79.5t79.5 31.5q49 0 79.5 -31.5t30.5 -80.5q0 -48 -31 -80t-79 -32q-49 0 -80 32zM427 597.5q-31 32.5 -31 81.5q0 48 31 79.5t79 31.5q49 0 79.5 -31.5t30.5 -80.5q0 -48 -31 -80.5t-78 -32.5q-49 0 -80 32.5zM94 188v184h-63v132
l297 29v-345q0 -19 14 -35t33 -16q22 0 34.5 15t12.5 37v183h-47v132l281 29v-386h63v-147h-297v76q-26 -40 -69 -62.5t-102 -22.5q-157 0 -157 197z" />
    <glyph glyph-name="yacute" unicode="&#xfd;" horiz-adv-x="720" 
d="M250 560l-51 69l232 213l90 -129zM195 -184v154h99l27 45l-228 357h-62v151h366v-151h-48l81 -150l74 150h-53v151h273v-151h-53l-213 -402h75v-154h-338z" />
    <glyph glyph-name="thorn" unicode="&#xfe;" horiz-adv-x="713" 
d="M31 -47h41v603h-36v150h276v-240h4q29 31 65 47q33 15 77 15q52 0 95 -22q42 -23 70 -59q27 -37 42 -84q14 -48 14 -99q0 -49 -14 -99q-13 -45 -40 -85q-26 -37 -70 -61q-42 -23 -97 -23q-50 0 -91 18q-39 17 -61 44v-105h54v-147h-329v147zM409 160q16 10 25 28
q9 16 12 36q4 17 4 41q0 94 -79 94q-17 0 -27 -5q-12 -5 -19 -10l-12 -14q-5 -10 -5 -11q-1 -1 -1 -2.5t-1 -2.5v-111l1 -6l-1 -1q0 -5 5 -13q6 -10 11 -15q7 -8 19 -13q12 -6 28 -6q21 0 40 11z" />
    <glyph glyph-name="ydieresis" unicode="&#xff;" horiz-adv-x="720" 
d="M129 598q-31 32 -31 81q0 48 31.5 79.5t79.5 31.5q49 0 79.5 -31.5t30.5 -80.5q0 -48 -31 -80t-79 -32q-49 0 -80 32zM430 597.5q-31 32.5 -31 81.5q0 48 31 79.5t79 31.5q49 0 79.5 -31.5t30.5 -80.5q0 -48 -31 -80.5t-78 -32.5q-49 0 -80 32.5zM195 -184v154h99l27 45
l-228 357h-62v151h366v-151h-48l81 -150l74 150h-53v151h273v-151h-53l-213 -402h75v-154h-338z" />
    <glyph glyph-name="Amacron" unicode="&#x100;" horiz-adv-x="859" 
d="M16 0v172h77l134 433h-102v172h484l173 -605h77v-172h-437v172h63l-21 83h-176l-22 -83h93v-172h-343zM313 373h128l-57 238zM194 1024h433v-146h-433v146z" />
    <glyph glyph-name="amacron" unicode="&#x101;" horiz-adv-x="682" 
d="M128 10.5q-41 19.5 -65.5 55.5t-24.5 84q0 52 28.5 87.5t75.5 53t101 17.5q64 0 123 -19v22q0 39 -33 59.5t-89 20.5q-36 0 -83 -13t-78 -32l-14 6v142q59 21 120.5 30t114.5 9q297 0 297 -167v-219h46v-147h-250l-22 80q-21 -41 -65.5 -65t-91.5 -24q-49 0 -90 19.5z
M343 121.5q17 5.5 23 11.5v82q-7 1 -23.5 5.5t-28.5 4.5q-26 0 -41.5 -16t-15.5 -43q0 -20 14.5 -35t38.5 -15q16 0 33 5.5zM115 765h433v-146h-433v146z" />
    <glyph glyph-name="Abreve" unicode="&#x102;" horiz-adv-x="859" 
d="M16 0v172h77l134 433h-102v172h484l173 -605h77v-172h-437v172h63l-21 83h-176l-22 -83h93v-172h-343zM313 373h128l-57 238zM264 891q-51 44 -51 126h123q0 -32 20.5 -51.5t53.5 -19.5t53.5 19.5t20.5 51.5h123q0 -82 -51.5 -126t-145.5 -44q-95 0 -146 44z" />
    <glyph glyph-name="abreve" unicode="&#x103;" horiz-adv-x="682" 
d="M128 10.5q-41 19.5 -65.5 55.5t-24.5 84q0 52 28.5 87.5t75.5 53t101 17.5q64 0 123 -19v22q0 39 -33 59.5t-89 20.5q-36 0 -83 -13t-78 -32l-14 6v142q59 21 120.5 30t114.5 9q297 0 297 -167v-219h46v-147h-250l-22 80q-21 -41 -65.5 -65t-91.5 -24q-49 0 -90 19.5z
M343 121.5q17 5.5 23 11.5v82q-7 1 -23.5 5.5t-28.5 4.5q-26 0 -41.5 -16t-15.5 -43q0 -20 14.5 -35t38.5 -15q16 0 33 5.5zM185 645.5q-51 47.5 -51 136.5h123q0 -35 20.5 -56.5t53.5 -21.5t53.5 22t20.5 57h123q0 -90 -51.5 -137.5t-145.5 -47.5q-95 0 -146 47.5z" />
    <glyph glyph-name="Aogonek" unicode="&#x104;" horiz-adv-x="859" 
d="M16 0v172h77l134 433h-102v172h484l173 -605h77v-172h-437v172h63l-21 83h-176l-22 -83h93v-172h-343zM313 373h128l-57 238zM672 -210q-49 28 -49 84q0 32 19.5 62.5t61.5 63.5h86q-37 -35 -52.5 -61.5t-15.5 -53.5q0 -67 91 -68v-55h-10q-82 0 -131 28z" />
    <glyph glyph-name="aogonek" unicode="&#x105;" horiz-adv-x="682" 
d="M661 -178v-55h-10q-82 0 -131 28t-49 84q0 31 18.5 60t56.5 61h-149l-22 80q-21 -41 -65.5 -65t-91.5 -24q-49 0 -90 19.5t-65.5 55.5t-24.5 84q0 52 28.5 87.5t75.5 53t101 17.5q64 0 123 -19v22q0 39 -33 59.5t-89 20.5q-36 0 -83 -13t-78 -32l-14 6v142
q59 21 120.5 30t114.5 9q297 0 297 -167v-219h46v-147h-14q-34 -33 -48.5 -58.5t-14.5 -51.5q0 -67 91 -68zM366 215q-7 1 -23.5 5.5t-28.5 4.5q-26 0 -41.5 -16t-15.5 -43q0 -20 14.5 -35t38.5 -15q16 0 33 5.5t23 11.5v82z" />
    <glyph glyph-name="Cacute" unicode="&#x106;" horiz-adv-x="755" 
d="M227.5 31.5q-89.5 45.5 -143 137t-53.5 224.5q0 112 40.5 202.5t119 143.5t189.5 53q57 0 102 -26.5t65 -67.5l20 79h152v-319h-156v16q0 62 -28.5 101.5t-84.5 39.5q-38 0 -69.5 -29t-49.5 -76t-18 -97q0 -98 49 -153.5t134 -55.5q60 0 111.5 20t84.5 43l11 -9v-208
q-62 -36 -131 -50t-147 -14q-108 0 -197.5 45.5zM317 860l-44 73l249 155l66 -134z" />
    <glyph glyph-name="cacute" unicode="&#x107;" horiz-adv-x="610" 
d="M172 25q-67 34 -104 96t-37 146q0 76 31 136.5t88.5 95t133.5 34.5q43 0 91.5 -15.5t61.5 -46.5l20 52h106v-216h-141q-4 39 -23 61t-47 22q-42 0 -64 -26.5t-22 -97.5q0 -73 38 -101t87 -28q35 0 76 12.5t73 39.5l7 -5v-136q0 -2 -30 -17t-79 -27.5t-110 -12.5
q-89 0 -156 34zM213 601l-51 69l232 213l90 -129z" />
    <glyph glyph-name="Ccircumflex" unicode="&#x108;" horiz-adv-x="755" 
d="M227.5 31.5q-89.5 45.5 -143 137t-53.5 224.5q0 112 40.5 202.5t119 143.5t189.5 53q57 0 102 -26.5t65 -67.5l20 79h152v-319h-156v16q0 62 -28.5 101.5t-84.5 39.5q-38 0 -69.5 -29t-49.5 -76t-18 -97q0 -98 49 -153.5t134 -55.5q60 0 111.5 20t84.5 43l11 -9v-208
q-62 -36 -131 -50t-147 -14q-108 0 -197.5 45.5zM302 853l-75 50l134 154h132l134 -154l-75 -50l-125 105z" />
    <glyph glyph-name="ccircumflex" unicode="&#x109;" horiz-adv-x="610" 
d="M172 25q-67 34 -104 96t-37 146q0 76 31 136.5t88.5 95t133.5 34.5q43 0 91.5 -15.5t61.5 -46.5l20 52h106v-216h-141q-4 39 -23 61t-47 22q-42 0 -64 -26.5t-22 -97.5q0 -73 38 -101t87 -28q35 0 76 12.5t73 39.5l7 -5v-136q0 -2 -30 -17t-79 -27.5t-110 -12.5
q-89 0 -156 34zM191 575l-75 49l133 184h132l134 -184l-75 -49l-124 120z" />
    <glyph glyph-name="Cdotaccent" unicode="&#x10a;" horiz-adv-x="755" 
d="M227.5 31.5q-89.5 45.5 -143 137t-53.5 224.5q0 112 40.5 202.5t119 143.5t189.5 53q57 0 102 -26.5t65 -67.5l20 79h152v-319h-156v16q0 62 -28.5 101.5t-84.5 39.5q-38 0 -69.5 -29t-49.5 -76t-18 -97q0 -98 49 -153.5t134 -55.5q60 0 111.5 20t84.5 43l11 -9v-208
q-62 -36 -131 -50t-147 -14q-108 0 -197.5 45.5zM325.5 893.5q-36.5 28.5 -36.5 78.5q0 51 36.5 79.5t101.5 28.5t101.5 -28.5t36.5 -79.5q0 -50 -36.5 -78.5t-101.5 -28.5t-101.5 28.5z" />
    <glyph glyph-name="cdotaccent" unicode="&#x10b;" horiz-adv-x="610" 
d="M172 25q-67 34 -104 96t-37 146q0 76 31 136.5t88.5 95t133.5 34.5q43 0 91.5 -15.5t61.5 -46.5l20 52h106v-216h-141q-4 39 -23 61t-47 22q-42 0 -64 -26.5t-22 -97.5q0 -73 38 -101t87 -28q35 0 76 12.5t73 39.5l7 -5v-136q0 -2 -30 -17t-79 -27.5t-110 -12.5
q-89 0 -156 34zM217.5 634q-39.5 33 -39.5 89q0 55 38.5 87.5t99.5 32.5t99.5 -33t38.5 -87q0 -56 -39.5 -89t-98.5 -33t-98.5 33z" />
    <glyph glyph-name="Ccaron" unicode="&#x10c;" horiz-adv-x="755" 
d="M227.5 31.5q-89.5 45.5 -143 137t-53.5 224.5q0 112 40.5 202.5t119 143.5t189.5 53q57 0 102 -26.5t65 -67.5l20 79h152v-319h-156v16q0 62 -28.5 101.5t-84.5 39.5q-38 0 -69.5 -29t-49.5 -76t-18 -97q0 -98 49 -153.5t134 -55.5q60 0 111.5 20t84.5 43l11 -9v-208
q-62 -36 -131 -50t-147 -14q-108 0 -197.5 45.5zM361 857l-134 155l75 49l125 -110l125 110l75 -49l-134 -155h-132z" />
    <glyph glyph-name="ccaron" unicode="&#x10d;" horiz-adv-x="610" 
d="M172 25q-67 34 -104 96t-37 146q0 76 31 136.5t88.5 95t133.5 34.5q43 0 91.5 -15.5t61.5 -46.5l20 52h106v-216h-141q-4 39 -23 61t-47 22q-42 0 -64 -26.5t-22 -97.5q0 -73 38 -101t87 -28q35 0 76 12.5t73 39.5l7 -5v-136q0 -2 -30 -17t-79 -27.5t-110 -12.5
q-89 0 -156 34zM250 593l-134 184l76 49l124 -119l125 119l75 -49l-134 -184h-132z" />
    <glyph glyph-name="Dcaron" unicode="&#x10e;" horiz-adv-x="881" 
d="M31 172h78v433h-78v172h360q212 0 324.5 -98t112.5 -290q0 -187 -112 -288t-326 -101h-359v172zM390 172q82 0 119.5 61.5t37.5 155.5q0 96 -37 156t-120 60h-31v-433h31zM336 842l-134 155l75 49l125 -110l125 110l75 -49l-134 -155h-132z" />
    <glyph glyph-name="dcaron" unicode="&#x10f;" horiz-adv-x="854" 
d="M139.5 28.5q-51.5 37.5 -78 101t-26.5 139.5q0 70 27 130.5t77.5 97t118.5 36.5q50 0 85.5 -16t66.5 -48v128h-78v133l313 32v-615h62v-147h-301v63q-24 -32 -61 -51.5t-83 -20.5q-71 0 -122.5 37.5zM381.5 145q18.5 11 28.5 26v185q-11 13 -30 23.5t-40 10.5
q-38 0 -62 -31t-24 -90q0 -60 22 -97.5t64 -37.5q23 0 41.5 11zM688 472v290h156l-39 -290h-117z" />
    <glyph glyph-name="Dcroat" unicode="&#x110;" horiz-adv-x="885" 
d="M44 171h80v148h-63v146h63l1 155h-83v172h406q202 0 302 -100q100 -102 100 -294q0 -79 -27 -150t-78 -127q-51 -55 -130 -88t-179 -33h-392v171zM471 184q28 16 44 37q16 22 26 53q11 33 14 61q4 27 4 63q0 34 -3 61q-3 29 -12 59q-7 30 -23 52q-17 22 -43 35
q-27 15 -63 15h-23v-156h42v-146h-41l1 -147h15l-1 -2q36 0 63 15z" />
    <glyph glyph-name="dcroat" unicode="&#x111;" horiz-adv-x="739" 
d="M645 606v-459h62v-147h-301v63q-24 -32 -61 -51.5t-83 -20.5q-71 0 -122.5 37.5t-78 101t-26.5 139.5q0 70 27 130.5t77.5 97t118.5 36.5q50 0 85.5 -16t66.5 -48v137h-176v90h176v66h235v-66h62v-90h-62zM410 356q-11 13 -30 23.5t-40 10.5q-38 0 -62 -31t-24 -90
q0 -60 22 -97.5t64 -37.5q23 0 41.5 11t28.5 26v185z" />
    <glyph glyph-name="Emacron" unicode="&#x112;" horiz-adv-x="708" 
d="M47 0v172h94v433h-94v172h656v-309h-125l-47 137h-140v-127h125v-128h-125v-178h140l47 159h125v-331h-656zM166 1024h433v-146h-433v146z" />
    <glyph glyph-name="emacron" unicode="&#x113;" horiz-adv-x="623" 
d="M170 24.5q-67 33.5 -103 95.5t-36 145q0 82 35 142.5t98.5 93t148.5 32.5q79 0 139 -31t93 -88t33 -133q0 -26 -8 -50h-304q0 -46 34.5 -73.5t83.5 -27.5q37 0 81.5 13t89.5 40l8 -3v-131q-50 -29 -103 -43.5t-132 -14.5q-91 0 -158 33.5zM391 317v10q0 35 -16 60t-47 25
q-26 0 -44 -25.5t-18 -55.5v-14h125zM99 755h433v-146h-433v146z" />
    <glyph glyph-name="Ebreve" unicode="&#x114;" horiz-adv-x="708" 
d="M47 0v172h94v433h-94v172h656v-309h-125l-47 137h-140v-127h125v-128h-125v-178h140l47 159h125v-331h-656zM236 891q-51 44 -51 126h123q0 -32 20.5 -51.5t53.5 -19.5t53.5 19.5t20.5 51.5h123q0 -82 -51.5 -126t-145.5 -44q-95 0 -146 44z" />
    <glyph glyph-name="ebreve" unicode="&#x115;" horiz-adv-x="623" 
d="M170 24.5q-67 33.5 -103 95.5t-36 145q0 82 35 142.5t98.5 93t148.5 32.5q79 0 139 -31t93 -88t33 -133q0 -26 -8 -50h-304q0 -46 34.5 -73.5t83.5 -27.5q37 0 81.5 13t89.5 40l8 -3v-131q-50 -29 -103 -43.5t-132 -14.5q-91 0 -158 33.5zM391 317v10q0 35 -16 60t-47 25
q-26 0 -44 -25.5t-18 -55.5v-14h125zM169 635.5q-51 47.5 -51 136.5h123q0 -35 20.5 -56.5t53.5 -21.5t53.5 22t20.5 57h123q0 -90 -51.5 -137.5t-145.5 -47.5q-95 0 -146 47.5z" />
    <glyph glyph-name="Edotaccent" unicode="&#x116;" horiz-adv-x="708" 
d="M47 0v172h94v433h-94v172h656v-309h-125l-47 137h-140v-127h125v-128h-125v-178h140l47 159h125v-331h-656zM280.5 878.5q-36.5 28.5 -36.5 78.5q0 51 36.5 79.5t101.5 28.5t101.5 -28.5t36.5 -79.5q0 -50 -36.5 -78.5t-101.5 -28.5t-101.5 28.5z" />
    <glyph glyph-name="edotaccent" unicode="&#x117;" horiz-adv-x="623" 
d="M170 24.5q-67 33.5 -103 95.5t-36 145q0 82 35 142.5t98.5 93t148.5 32.5q79 0 139 -31t93 -88t33 -133q0 -26 -8 -50h-304q0 -46 34.5 -73.5t83.5 -27.5q37 0 81.5 13t89.5 40l8 -3v-131q-50 -29 -103 -43.5t-132 -14.5q-91 0 -158 33.5zM391 317v10q0 35 -16 60t-47 25
q-26 0 -44 -25.5t-18 -55.5v-14h125zM216.5 624q-39.5 33 -39.5 89q0 55 38.5 87.5t99.5 32.5t99.5 -33t38.5 -87q0 -56 -39.5 -89t-98.5 -33t-98.5 33z" />
    <glyph glyph-name="Eogonek" unicode="&#x118;" horiz-adv-x="708" 
d="M47 0v172h94v433h-94v172h656v-309h-125l-47 137h-140v-127h125v-128h-125v-178h140l47 159h125v-331h-656zM556 -210q-49 28 -49 84q0 32 19.5 62.5t61.5 63.5h86q-37 -35 -52.5 -61.5t-15.5 -53.5q0 -67 91 -68v-55h-10q-82 0 -131 28z" />
    <glyph glyph-name="eogonek" unicode="&#x119;" horiz-adv-x="623" 
d="M570 231h-304q0 -46 34.5 -73.5t83.5 -27.5q37 0 81.5 13t89.5 40l8 -3v-131q-18 -11 -43 -22q-35 -34 -50 -60t-15 -52q0 -67 91 -68v-55h-10q-82 0 -131 28t-49 84q0 44 42 91q-28 -4 -70 -4q-91 0 -158 33.5t-103 95.5t-36 145q0 82 35 142.5t98.5 93t148.5 32.5
q79 0 139 -31t93 -88t33 -133q0 -26 -8 -50zM391 327q0 35 -16 60t-47 25q-26 0 -44 -25.5t-18 -55.5v-14h125v10z" />
    <glyph glyph-name="Ecaron" unicode="&#x11a;" horiz-adv-x="708" 
d="M47 0v172h94v433h-94v172h656v-309h-125l-47 137h-140v-127h125v-128h-125v-178h140l47 159h125v-331h-656zM316 842l-134 155l75 49l125 -110l125 110l75 -49l-134 -155h-132z" />
    <glyph glyph-name="ecaron" unicode="&#x11b;" horiz-adv-x="623" 
d="M170 24.5q-67 33.5 -103 95.5t-36 145q0 82 35 142.5t98.5 93t148.5 32.5q79 0 139 -31t93 -88t33 -133q0 -26 -8 -50h-304q0 -46 34.5 -73.5t83.5 -27.5q37 0 81.5 13t89.5 40l8 -3v-131q-50 -29 -103 -43.5t-132 -14.5q-91 0 -158 33.5zM391 317v10q0 35 -16 60t-47 25
q-26 0 -44 -25.5t-18 -55.5v-14h125zM249 583l-134 184l76 49l124 -119l125 119l75 -49l-134 -184h-132z" />
    <glyph glyph-name="Gcircumflex" unicode="&#x11c;" horiz-adv-x="841" 
d="M247.5 30q-98.5 44 -157.5 137t-59 234q0 112 46.5 201t135 139.5t208.5 50.5q51 0 99 -17t76 -50l16 52h169v-287h-151q-15 62 -58 93.5t-90 31.5q-78 0 -123.5 -57t-45.5 -157q0 -101 45 -158.5t127 -57.5q21 0 42 4t34 8.5t17 5.5v69h-94v145h313v-349
q-75 -40 -161 -61t-171 -21q-119 0 -217.5 44zM331 838l-75 50l134 154h132l134 -154l-75 -50l-125 105z" />
    <glyph glyph-name="gcircumflex" unicode="&#x11d;" horiz-adv-x="728" 
d="M100 -160v141q65 -20 107.5 -30.5t83.5 -10.5q118 0 118 117q-27 -24 -66 -40.5t-88 -16.5q-71 0 -120 35.5t-73.5 95.5t-24.5 133q0 75 25 136t74 97t119 36q96 0 154 -83l35 73h249v-151h-47v-306q0 -127 -89 -191.5t-237 -64.5q-104 0 -220 30zM389 148q19 14 23 28
v178q-9 17 -27 26.5t-42 9.5q-40 0 -64 -34.5t-24 -94.5q0 -57 24 -92t68 -35q23 0 42 14zM268 565l-75 49l133 184h132l134 -184l-75 -49l-124 120z" />
    <glyph glyph-name="Gbreve" unicode="&#x11e;" horiz-adv-x="841" 
d="M247.5 30q-98.5 44 -157.5 137t-59 234q0 112 46.5 201t135 139.5t208.5 50.5q51 0 99 -17t76 -50l16 52h169v-287h-151q-15 62 -58 93.5t-90 31.5q-78 0 -123.5 -57t-45.5 -157q0 -101 45 -158.5t127 -57.5q21 0 42 4t34 8.5t17 5.5v69h-94v145h313v-349
q-75 -40 -161 -61t-171 -21q-119 0 -217.5 44zM310 891q-51 44 -51 126h123q0 -32 20.5 -51.5t53.5 -19.5t53.5 19.5t20.5 51.5h123q0 -82 -51.5 -126t-145.5 -44q-95 0 -146 44z" />
    <glyph glyph-name="gbreve" unicode="&#x11f;" horiz-adv-x="728" 
d="M100 -160v141q65 -20 107.5 -30.5t83.5 -10.5q118 0 118 117q-27 -24 -66 -40.5t-88 -16.5q-71 0 -120 35.5t-73.5 95.5t-24.5 133q0 75 25 136t74 97t119 36q96 0 154 -83l35 73h249v-151h-47v-306q0 -127 -89 -191.5t-237 -64.5q-104 0 -220 30zM389 148q19 14 23 28
v178q-9 17 -27 26.5t-42 9.5q-40 0 -64 -34.5t-24 -94.5q0 -57 24 -92t68 -35q23 0 42 14zM247 635.5q-51 47.5 -51 136.5h123q0 -35 20.5 -56.5t53.5 -21.5t53.5 22t20.5 57h123q0 -90 -51.5 -137.5t-145.5 -47.5q-95 0 -146 47.5z" />
    <glyph glyph-name="Gdotaccent" unicode="&#x120;" horiz-adv-x="841" 
d="M247.5 30q-98.5 44 -157.5 137t-59 234q0 112 46.5 201t135 139.5t208.5 50.5q51 0 99 -17t76 -50l16 52h169v-287h-151q-15 62 -58 93.5t-90 31.5q-78 0 -123.5 -57t-45.5 -157q0 -101 45 -158.5t127 -57.5q21 0 42 4t34 8.5t17 5.5v69h-94v145h313v-349
q-75 -40 -161 -61t-171 -21q-119 0 -217.5 44zM354.5 878.5q-36.5 28.5 -36.5 78.5q0 51 36.5 79.5t101.5 28.5t101.5 -28.5t36.5 -79.5q0 -50 -36.5 -78.5t-101.5 -28.5t-101.5 28.5z" />
    <glyph glyph-name="gdotaccent" unicode="&#x121;" horiz-adv-x="728" 
d="M100 -160v141q65 -20 107.5 -30.5t83.5 -10.5q118 0 118 117q-27 -24 -66 -40.5t-88 -16.5q-71 0 -120 35.5t-73.5 95.5t-24.5 133q0 75 25 136t74 97t119 36q96 0 154 -83l35 73h249v-151h-47v-306q0 -127 -89 -191.5t-237 -64.5q-104 0 -220 30zM389 148q19 14 23 28
v178q-9 17 -27 26.5t-42 9.5q-40 0 -64 -34.5t-24 -94.5q0 -57 24 -92t68 -35q23 0 42 14zM294.5 624q-39.5 33 -39.5 89q0 55 38.5 87.5t99.5 32.5t99.5 -33t38.5 -87q0 -56 -39.5 -89t-98.5 -33t-98.5 33z" />
    <glyph glyph-name="Gcommaaccent" unicode="&#x122;" horiz-adv-x="841" 
d="M440 -14v-46q65 -23 65 -80q0 -50 -50 -74t-129 -24h-11v55q48 1 70 15.5t22 44.5q0 42 -54 55v65q-144 28 -233 129t-89 275q0 112 46.5 201t135 139.5t208.5 50.5q51 0 99 -17t76 -50l16 52h169v-287h-151q-15 62 -58 93.5t-90 31.5q-78 0 -123.5 -57t-45.5 -157
q0 -101 45 -158.5t127 -57.5q21 0 42 4t34 8.5t17 5.5v69h-94v145h313v-349q-75 -40 -161 -61t-171 -21h-25z" />
    <glyph glyph-name="gcommaaccent" unicode="&#x123;" horiz-adv-x="728" 
d="M100 -160v141q65 -20 107.5 -30.5t83.5 -10.5q118 0 118 117q-27 -24 -66 -40.5t-88 -16.5q-71 0 -120 35.5t-73.5 95.5t-24.5 133q0 75 25 136t74 97t119 36q96 0 154 -83l35 73h249v-151h-47v-306q0 -127 -89 -191.5t-237 -64.5q-104 0 -220 30zM389 148q19 14 23 28
v178q-9 17 -27 26.5t-42 9.5q-40 0 -64 -34.5t-24 -94.5q0 -57 24 -92t68 -35q23 0 42 14zM511 844h1q-48 0 -70.5 -10.5t-30 -32.5t-7.5 -66h107v-134h-225q-12 62 -12 110q0 125 57.5 184t179.5 59v-110z" />
    <glyph glyph-name="Hcircumflex" unicode="&#x124;" horiz-adv-x="915" 
d="M36 0v172h78v433h-78v172l390 1v-173h-62v-128h187v128h-62v173l390 -1v-172h-78v-433h78v-172h-390v172h62v138h-187v-138h62v-172h-390zM333 838l-75 50l134 154h132l134 -154l-75 -50l-125 105z" />
    <glyph glyph-name="hcircumflex" unicode="&#x125;" horiz-adv-x="758" 
d="M47 147h62v450h-62v133l297 32v-315q19 35 66.5 60.5t105.5 25.5q85 0 128.5 -50t43.5 -140v-196h62v-147h-297v319q0 29 -17 48t-39 19q-25 0 -39 -17t-14 -46v-176h47v-147h-344v147zM102 800l-75 50l134 154h132l134 -154l-75 -50l-125 105z" />
    <glyph glyph-name="Hbar" unicode="&#x126;" horiz-adv-x="915" 
d="M879 620h-78v-47h78v-65h-78v-336h78v-172h-390v172h62v138h-187v-138h62v-172h-390v172h78v336h-78v65h78v47h-78v157h390v-157h-62v-47h187v47h-62v157h390v-157zM551 462v46h-187v-46h187z" />
    <glyph glyph-name="hbar" unicode="&#x127;" horiz-adv-x="728" 
d="M43 149h39v457h-53v90h53v66h239v-66h173v-90h-173v-159q42 48 75 66.5t82 18.5q84 0 129 -49.5t45 -139.5v-194h42v-149h-281v302q0 61 -41 61q-49 0 -49 -57v-157h39v-149h-319v149z" />
    <glyph glyph-name="Itilde" unicode="&#x128;" horiz-adv-x="502" 
d="M63 0v172h78v433h-78v172h406v-172h-78v-433h78v-172h-406zM309.5 858q-21.5 5 -56.5 16q-21 7 -42.5 12.5t-35.5 5.5q-20 0 -36 -10t-35 -34l-55 36q28 69 59.5 101t72.5 32q24 0 46 -6t54 -17q49 -19 73 -19q21 0 38 10.5t36 34.5l55 -37q-28 -61 -56.5 -95.5
t-77.5 -34.5q-18 0 -39.5 5z" />
    <glyph glyph-name="itilde" unicode="&#x129;" horiz-adv-x="396" 
d="M44 0v146h40v219h-43v127l278 31v-377h41v-146h-316zM419 749q-8 -12 -32 -52q-24 -45 -45 -67t-57 -22q-19 0 -41.5 8t-54.5 24q-29 14 -47 20.5t-31 6.5q-10 0 -22 -9t-49 -44l-56 36q12 17 32 53q26 45 46.5 67t54.5 22q23 0 45.5 -9t53.5 -25q28 -14 43.5 -20.5
t30.5 -6.5q10 0 23.5 10t49.5 45zM117 792h-1h1z" />
    <glyph glyph-name="Imacron" unicode="&#x12a;" horiz-adv-x="502" 
d="M63 0v172h78v433h-78v172h406v-172h-78v-433h78v-172h-406zM50 1024h433v-146h-433v146z" />
    <glyph glyph-name="imacron" unicode="&#x12b;" horiz-adv-x="396" 
d="M44 0v146h40v219h-43v127l278 31v-377h41v-146h-316zM-14 755h433v-146h-433v146z" />
    <glyph glyph-name="Ibreve" unicode="&#x12c;" horiz-adv-x="502" 
d="M63 0v172h78v433h-78v172h406v-172h-78v-433h78v-172h-406zM120 891q-51 44 -51 126h123q0 -32 20.5 -51.5t53.5 -19.5t53.5 19.5t20.5 51.5h123q0 -82 -51.5 -126t-145.5 -44q-95 0 -146 44z" />
    <glyph glyph-name="ibreve" unicode="&#x12d;" horiz-adv-x="396" 
d="M44 0v146h40v219h-43v127l278 31v-377h41v-146h-316zM56 635.5q-51 47.5 -51 136.5h123q0 -35 20.5 -56.5t53.5 -21.5t53.5 22t20.5 57h123q0 -90 -51.5 -137.5t-145.5 -47.5q-95 0 -146 47.5z" />
    <glyph glyph-name="Iogonek" unicode="&#x12e;" horiz-adv-x="502" 
d="M63 0v172h78v433h-78v172h406v-172h-78v-433h78v-172h-406zM337 -210q-49 28 -49 84q0 32 19.5 62.5t61.5 63.5h86q-37 -35 -52.5 -61.5t-15.5 -53.5q0 -67 91 -68v-55h-10q-82 0 -131 28z" />
    <glyph glyph-name="iogonek" unicode="&#x12f;" horiz-adv-x="434" 
d="M121.5 603q-39.5 29 -39.5 83t39.5 82t101.5 28t101 -27.5t39 -82.5q0 -54 -40 -83t-101 -29t-100.5 29zM42 0v147h63v225h-63v120l297 31v-376h63v-147h-360zM259 -210q-49 28 -49 84q0 32 19.5 62.5t61.5 63.5h86q-37 -35 -52.5 -61.5t-15.5 -53.5q0 -67 91 -68v-55
h-10q-82 0 -131 28z" />
    <glyph glyph-name="Idotaccent" unicode="&#x130;" horiz-adv-x="502" 
d="M63 0v172h78v433h-78v172h406v-172h-78v-433h78v-172h-406zM164.5 878.5q-36.5 28.5 -36.5 78.5q0 51 36.5 79.5t101.5 28.5t101.5 -28.5t36.5 -79.5q0 -50 -36.5 -78.5t-101.5 -28.5t-101.5 28.5z" />
    <glyph glyph-name="dotlessi" unicode="&#x131;" horiz-adv-x="396" 
d="M44 0v146h40v219h-43v127l278 31v-377h41v-146h-316z" />
    <glyph glyph-name="IJ" unicode="&#x132;" horiz-adv-x="1170" 
d="M63 0v172h78v433h-78v172h406v-172h-78v-433h78v-172h-406zM740.5 2.5q-35.5 17.5 -58.5 45.5l-18 -54h-131v315h141q0 -71 13 -104t53 -33q34 0 54.5 32t20.5 75v326h-94v173h422v-173h-78v-373q0 -113 -65 -180t-178 -67q-46 0 -81.5 17.5z" />
    <glyph glyph-name="ij" unicode="&#x133;" horiz-adv-x="751" 
d="M85 589q-39 33 -39 89q0 54 38.5 86.5t97.5 32.5q62 0 101 -32.5t39 -86.5q0 -56 -39.5 -89t-99.5 -33q-59 0 -98 33zM471 588.5q-39 33.5 -39 88.5t38 87.5t97 32.5q62 0 101.5 -33t39.5 -87q0 -56 -40 -89t-100 -33q-58 0 -97 33.5zM411 -34h8q18 0 31.5 8t13.5 23v376
h-144v-223h41v-149h-316v149h40v223h-43v119l278 31h387v-460q0 -90 -27.5 -145.5t-92 -83t-175.5 -27.5z" />
    <glyph glyph-name="Jcircumflex" unicode="&#x134;" horiz-adv-x="668" 
d="M238.5 2.5q-35.5 17.5 -58.5 45.5l-18 -54h-131v315h141q0 -71 13 -104t53 -33q34 0 54.5 32t20.5 75v326h-94v173h422v-173h-78v-373q0 -113 -65 -180t-178 -67q-46 0 -81.5 17.5zM305 838l-75 50l134 154h132l134 -154l-75 -50l-125 105z" />
    <glyph glyph-name="jcircumflex" unicode="&#x135;" horiz-adv-x="377" 
d="M30 -35h6q26 0 43 6t18 25v376h-63v120l301 31v-460q0 -96 -33.5 -152t-100 -80.5t-171.5 -24.5v159zM91 565l-75 49l133 184h132l134 -184l-75 -49l-124 120z" />
    <glyph glyph-name="Kcommaaccent" unicode="&#x136;" horiz-adv-x="886" 
d="M63 172h78v433h-78v172h390v-172h-62v-177l129 177v172h304v-172h-67l-155 -188v-7q79 0 124 -27t45 -94v-79q0 -15 8.5 -26.5t23.5 -11.5h56v-172h-179q-164 0 -164 150v85q0 25 -16 49t-38 24h-71v-136h78v-172h-406v172zM308 -315q48 0 70.5 10.5t30 32.5t7.5 65h-107
v135h224q12 -62 12 -111q0 -125 -57.5 -183.5t-179.5 -58.5v110z" />
    <glyph glyph-name="kcommaaccent" unicode="&#x137;" horiz-adv-x="737" 
d="M643 147h77v-147h-233l-143 214v-214h-320v147h86v450h-86v133l320 32v-475l102 85h-54v151h312v-151h-78l-84 -70zM235 -315q48 0 70.5 10.5t30 32.5t7.5 65h-107v135h224q12 -62 12 -111q0 -125 -57.5 -183.5t-179.5 -58.5v110z" />
    <glyph glyph-name="kgreenlandic" unicode="&#x138;" horiz-adv-x="741" 
d="M42 147h50v211h-50v134l288 31v-256l98 105h-46v151h309v-151h-83q-13 -14 -42 -45t-43 -45l102 -135h75v-147h-231l-139 209v-209h-288v147z" />
    <glyph glyph-name="Lacute" unicode="&#x139;" horiz-adv-x="701" 
d="M63 0v175h78v430h-78v172h406v-172h-78v-430h125l47 171h124v-346h-624zM156 845l-44 73l249 155l66 -134z" />
    <glyph glyph-name="lacute" unicode="&#x13a;" horiz-adv-x="478" 
d="M45 0v147h86v450h-86v133l320 32v-615h75v-147h-395zM132 804l-44 73l249 155l66 -134z" />
    <glyph glyph-name="Lcommaaccent" unicode="&#x13b;" horiz-adv-x="701" 
d="M63 0v175h78v430h-78v172h406v-172h-78v-430h125l47 171h124v-346h-624zM213 -315q48 0 70.5 10.5t30 32.5t7.5 65h-107v135h224q12 -62 12 -111q0 -125 -57.5 -183.5t-179.5 -58.5v110z" />
    <glyph glyph-name="lcommaaccent" unicode="&#x13c;" horiz-adv-x="478" 
d="M45 0v147h86v450h-86v133l320 32v-615h75v-147h-395zM106 -315q48 0 70.5 10.5t30 32.5t7.5 65h-107v135h224q12 -62 12 -111q0 -125 -57.5 -183.5t-179.5 -58.5v110z" />
    <glyph glyph-name="Lcaron" unicode="&#x13d;" horiz-adv-x="701" 
d="M63 0v175h78v430h-78v172h406v-172h-78v-430h125l47 171h124v-346h-624zM535 487v290h156l-39 -290h-117z" />
    <glyph glyph-name="lcaron" unicode="&#x13e;" horiz-adv-x="576" 
d="M45 0v147h86v450h-86v133l320 32v-615h75v-147h-395zM410 472v290h156l-39 -290h-117z" />
    <glyph glyph-name="Ldot" unicode="&#x13f;" horiz-adv-x="701" 
d="M63 0v175h78v430h-78v172h406v-172h-78v-430h125l47 171h124v-346h-624zM514.5 415.5q-38.5 34.5 -38.5 92.5q0 59 38.5 92t97.5 33q62 0 101 -33t39 -92q0 -58 -39 -92.5t-101 -34.5q-59 0 -97.5 34.5z" />
    <glyph glyph-name="ldot" unicode="&#x140;" horiz-adv-x="604" 
d="M45 0v147h86v450h-86v133l320 32v-615h75v-147h-395zM448.5 314.5q-38.5 34.5 -38.5 92.5q0 59 38.5 92t97.5 33q62 0 101 -33t39 -92q0 -58 -39 -92.5t-101 -34.5q-59 0 -97.5 34.5z" />
    <glyph glyph-name="Lslash" unicode="&#x141;" horiz-adv-x="714" 
d="M538 346h139v-346h-621l-1 175h70v80l-38 -22l-49 87l87 50v250h-72v172h424v-172h-75v-89l60 35l49 -87l-109 -63v-241h93z" />
    <glyph glyph-name="lslash" unicode="&#x142;" horiz-adv-x="500" 
d="M93 0v149h36v142l-51 -27l-49 87l100 53v239h-41v153h283v-262l54 29l49 -87l-103 -56v-271h38v-149h-316z" />
    <glyph glyph-name="Nacute" unicode="&#x143;" horiz-adv-x="904" 
d="M40 0v175h79v431h-77v172h359l243 -462v289h-78v172h311v-172h-77v-605h-296l-231 429v-254h78v-175h-311zM353 845l-44 73l249 155l66 -134z" />
    <glyph glyph-name="nacute" unicode="&#x144;" horiz-adv-x="771" 
d="M758 141v-141h-302v333q0 21 -13.5 37t-32.5 16q-36 0 -45.5 -35.5t-9.5 -102.5v-107h1v-141h-305v141h71v231h-71v132l304 29v-73q34 40 77 56.5t97 16.5q161 0 161 -201v-191h68zM257 591l-51 69l232 213l90 -129z" />
    <glyph glyph-name="Ncommaaccent" unicode="&#x145;" horiz-adv-x="904" 
d="M40 0v175h79v431h-77v172h359l243 -462v289h-78v172h311v-172h-77v-605h-296l-231 429v-254h78v-175h-311zM326 -315q48 0 70.5 10.5t30 32.5t7.5 65h-107v135h224q12 -62 12 -111q0 -125 -57.5 -183.5t-179.5 -58.5v110z" />
    <glyph glyph-name="ncommaaccent" unicode="&#x146;" horiz-adv-x="771" 
d="M758 141v-141h-302v333q0 21 -13.5 37t-32.5 16q-36 0 -45.5 -35.5t-9.5 -102.5v-107h1v-141h-305v141h71v231h-71v132l304 29v-73q34 40 77 56.5t97 16.5q161 0 161 -201v-191h68zM241 -315q48 0 70.5 10.5t30 32.5t7.5 65h-107v135h224q12 -62 12 -111
q0 -125 -57.5 -183.5t-179.5 -58.5v110z" />
    <glyph glyph-name="Ncaron" unicode="&#x147;" horiz-adv-x="904" 
d="M40 0v175h79v431h-77v172h359l243 -462v289h-78v172h311v-172h-77v-605h-296l-231 429v-254h78v-175h-311zM397 842l-134 155l75 49l125 -110l125 110l75 -49l-134 -155h-132z" />
    <glyph glyph-name="ncaron" unicode="&#x148;" horiz-adv-x="771" 
d="M758 141v-141h-302v333q0 21 -13.5 37t-32.5 16q-36 0 -45.5 -35.5t-9.5 -102.5v-107h1v-141h-305v141h71v231h-71v132l304 29v-73q34 40 77 56.5t97 16.5q161 0 161 -201v-191h68zM294 583l-134 184l76 49l124 -119l125 119l75 -49l-134 -184h-132z" />
    <glyph glyph-name="napostrophe" unicode="&#x149;" horiz-adv-x="908" 
d="M895 141v-141h-302v333q0 21 -13.5 37t-32.5 16q-36 0 -45.5 -35.5t-9.5 -102.5v-107h1v-141h-305v141h71v231h-71v132l304 29v-73q34 40 77 56.5t97 16.5q161 0 161 -201v-191h68zM10 593q43 0 64 7t27.5 22.5t6.5 44.5h-97v111h195q12 -61 12 -111q0 -82 -50.5 -120.5
t-157.5 -38.5v85z" />
    <glyph glyph-name="Eng" unicode="&#x14a;" horiz-adv-x="798" 
d="M727.5 726.5q50.5 -65.5 50.5 -174.5v-506q0 -142 -88 -213.5t-235 -71.5q-92 0 -191 25v141q80 -26 156 -26q55 0 81.5 30t26.5 92v489q0 124 -72 124q-40 0 -60.5 -33t-23.5 -90l1 -513h-329v175h78v430h-78v158l328 29v-94q79 94 202 94q103 0 153.5 -65.5z" />
    <glyph glyph-name="eng" unicode="&#x14b;" horiz-adv-x="771" 
d="M690 332v-286q0 -142 -88 -213.5t-235 -71.5q-69 0 -147 20v127q75 -16 122 -16q114 0 114 131v308q0 26 -11.5 40.5t-32.5 14.5q-37 0 -46.5 -36t-9.5 -103h-1v-106h1v-141h-305v141h71v231h-71v132l304 29v-74q34 40 77 57t98 17q160 0 160 -201z" />
    <glyph glyph-name="Omacron" unicode="&#x14c;" horiz-adv-x="869" 
d="M211.5 38q-88.5 52 -134.5 143.5t-46 208.5q0 121 46 212t134 140.5t211 49.5t211 -49.5t134 -140.5t46 -212q0 -117 -46 -208.5t-134.5 -143.5t-210.5 -52t-210.5 52zM503 223q28 64 28 171q0 104 -27 164.5t-82 60.5t-82 -60.5t-27 -164.5q0 -107 28 -171t81 -64t81 64
zM203 1040h433v-146h-433v146z" />
    <glyph glyph-name="omacron" unicode="&#x14d;" horiz-adv-x="667" 
d="M178 23.5q-67 32.5 -104 95t-37 148.5q0 85 37 145t104 90.5t155 30.5q135 0 216 -69.5t81 -196.5q0 -86 -37 -148.5t-104 -95t-156 -32.5q-88 0 -155 32.5zM380.5 165.5q15.5 31.5 15.5 101.5q0 65 -15 94t-48 29q-32 0 -47 -29t-15 -94q0 -70 15.5 -101.5t46.5 -31.5
q32 0 47.5 31.5zM117 755h433v-146h-433v146z" />
    <glyph glyph-name="Obreve" unicode="&#x14e;" horiz-adv-x="869" 
d="M211.5 38q-88.5 52 -134.5 143.5t-46 208.5q0 121 46 212t134 140.5t211 49.5t211 -49.5t134 -140.5t46 -212q0 -117 -46 -208.5t-134.5 -143.5t-210.5 -52t-210.5 52zM503 223q28 64 28 171q0 104 -27 164.5t-82 60.5t-82 -60.5t-27 -164.5q0 -107 28 -171t81 -64t81 64
zM273 907q-51 44 -51 126h123q0 -32 20.5 -51.5t53.5 -19.5t53.5 19.5t20.5 51.5h123q0 -82 -51.5 -126t-145.5 -44q-95 0 -146 44z" />
    <glyph glyph-name="obreve" unicode="&#x14f;" horiz-adv-x="667" 
d="M178 23.5q-67 32.5 -104 95t-37 148.5q0 85 37 145t104 90.5t155 30.5q135 0 216 -69.5t81 -196.5q0 -86 -37 -148.5t-104 -95t-156 -32.5q-88 0 -155 32.5zM380.5 165.5q15.5 31.5 15.5 101.5q0 65 -15 94t-48 29q-32 0 -47 -29t-15 -94q0 -70 15.5 -101.5t46.5 -31.5
q32 0 47.5 31.5zM187 635.5q-51 47.5 -51 136.5h123q0 -35 20.5 -56.5t53.5 -21.5t53.5 22t20.5 57h123q0 -90 -51.5 -137.5t-145.5 -47.5q-95 0 -146 47.5z" />
    <glyph glyph-name="Ohungarumlaut" unicode="&#x150;" horiz-adv-x="869" 
d="M211.5 38q-88.5 52 -134.5 143.5t-46 208.5q0 121 46 212t134 140.5t211 49.5t211 -49.5t134 -140.5t46 -212q0 -117 -46 -208.5t-134.5 -143.5t-210.5 -52t-210.5 52zM503 223q28 64 28 171q0 104 -27 164.5t-82 60.5t-82 -60.5t-27 -164.5q0 -107 28 -171t81 -64t81 64
zM356 850l-81 29l75 257l146 -58zM511 851l-70 48l150 228l127 -93z" />
    <glyph glyph-name="ohungarumlaut" unicode="&#x151;" horiz-adv-x="667" 
d="M178 23.5q-67 32.5 -104 95t-37 148.5q0 85 37 145t104 90.5t155 30.5q135 0 216 -69.5t81 -196.5q0 -86 -37 -148.5t-104 -95t-156 -32.5q-88 0 -155 32.5zM380.5 165.5q15.5 31.5 15.5 101.5q0 65 -15 94t-48 29q-32 0 -47 -29t-15 -94q0 -70 15.5 -101.5t46.5 -31.5
q32 0 47.5 31.5zM270 551l-81 29l75 306l147 -58zM426 551l-71 49l150 276l127 -93z" />
    <glyph glyph-name="OE" unicode="&#x152;" horiz-adv-x="1132" 
d="M145 105q-110 106 -112 282q0 115 51 207q52 92 144 141q93 51 213 51h642v-319h-131l-37 147h-104v-132h100v-171h-100v-140h107l6 34l31 130h133v-335h-645q-187 0 -298 105zM541 171v443h-103q-26 0 -44 -9q-19 -9 -30 -24q-9 -12 -18 -36q-7 -19 -9 -44l-3 -50
l-1 -26l1 -26v-30l1 -1q0 -31 1 -43q0 -18 3 -39q1 -18 7 -37q4 -14 12 -32q11 -18 19 -25q12 -9 28 -15q18 -6 38 -6h98z" />
    <glyph glyph-name="oe" unicode="&#x153;" horiz-adv-x="971" 
d="M177 16q-65 31 -103 95q-37 62 -37 148q0 127 78 197q78 69 216 69q32 0 62 -6q31 -8 49 -16q16 -6 34 -17q18 -12 21 -15l7 -7q1 2 6 7q2 4 17 15q16 11 31 18q17 9 46 15q33 7 60 7q85 0 146 -36q61 -35 93 -94q31 -60 31 -132q0 -17 -3 -38q-4 -11 -8 -13
q-1 -1 -10 -1h-294q0 -45 24 -78q23 -32 63 -32q36 0 51 17q17 17 17 53h150v-116q-65 -39 -127 -56q-65 -15 -130 -15q-40 0 -66 7q-25 7 -44 18q-21 12 -31 20l-19 17l-6 8q-1 -2 -7 -8l-20 -16q-14 -11 -35 -20q-15 -8 -47 -16t-62 -8v-4q-87 0 -153 33zM724 296
q0 21 -1 30q-2 14 -6 28q-5 18 -16 25q-12 9 -30 9q-25 0 -39 -23q-13 -23 -13 -53v-16h105zM396 258q0 25 -2 35q-2 16 -9 29q-6 15 -20 23q-13 8 -35 8q-23 0 -36 -8q-14 -8 -20 -22q-6 -15 -9 -30q-2 -18 -2 -35h-1q0 -103 67 -103t67 103z" />
    <glyph glyph-name="Racute" unicode="&#x154;" horiz-adv-x="869" 
d="M63 172h78v433h-78v172h499q121 0 178 -49t57 -162q0 -76 -42.5 -117t-120.5 -55q70 -11 101 -52.5t31 -103.5v-63h109v-175h-157q-76 0 -109 10t-50.5 55t-17.5 150q0 60 -19.5 89t-71.5 29h-59v-161h78v-172h-406v172zM458 444q53 0 79 19t26 67q0 35 -26.5 55
t-68.5 20h-77v-161h67zM319 845l-44 73l249 155l66 -134z" />
    <glyph glyph-name="racute" unicode="&#x155;" horiz-adv-x="523" 
d="M31 147h63v225h-63v132l297 29v-85q23 37 77 61t95 24v-207q-57 19 -94 19q-47 0 -62.5 -27t-15.5 -71v-100h78v-147h-375v147zM136 591l-51 69l232 213l90 -129z" />
    <glyph glyph-name="Rcommaaccent" unicode="&#x156;" horiz-adv-x="869" 
d="M63 172h78v433h-78v172h499q121 0 178 -49t57 -162q0 -76 -42.5 -117t-120.5 -55q70 -11 101 -52.5t31 -103.5v-63h109v-175h-157q-76 0 -109 10t-50.5 55t-17.5 150q0 60 -19.5 89t-71.5 29h-59v-161h78v-172h-406v172zM458 444q53 0 79 19t26 67q0 35 -26.5 55
t-68.5 20h-77v-161h67zM328 -315q48 0 70.5 10.5t30 32.5t7.5 65h-107v135h224q12 -62 12 -111q0 -125 -57.5 -183.5t-179.5 -58.5v110z" />
    <glyph glyph-name="rcommaaccent" unicode="&#x157;" horiz-adv-x="523" 
d="M31 147h63v225h-63v132l297 29v-85q23 37 77 61t95 24v-207q-57 19 -94 19q-47 0 -62.5 -27t-15.5 -71v-100h78v-147h-375v147zM120 -315q48 0 70.5 10.5t30 32.5t7.5 65h-107v135h224q12 -62 12 -111q0 -125 -57.5 -183.5t-179.5 -58.5v110z" />
    <glyph glyph-name="Rcaron" unicode="&#x158;" horiz-adv-x="869" 
d="M63 172h78v433h-78v172h499q121 0 178 -49t57 -162q0 -76 -42.5 -117t-120.5 -55q70 -11 101 -52.5t31 -103.5v-63h109v-175h-157q-76 0 -109 10t-50.5 55t-17.5 150q0 60 -19.5 89t-71.5 29h-59v-161h78v-172h-406v172zM458 444q53 0 79 19t26 67q0 35 -26.5 55
t-68.5 20h-77v-161h67zM363 842l-134 155l75 49l125 -110l125 110l75 -49l-134 -155h-132z" />
    <glyph glyph-name="rcaron" unicode="&#x159;" horiz-adv-x="523" 
d="M31 147h63v225h-63v132l297 29v-85q23 37 77 61t95 24v-207q-57 19 -94 19q-47 0 -62.5 -27t-15.5 -71v-100h78v-147h-375v147zM173 583l-134 184l76 49l124 -119l125 119l75 -49l-134 -184h-132z" />
    <glyph glyph-name="Sacute" unicode="&#x15a;" horiz-adv-x="687" 
d="M307.5 -0.5q-35.5 13.5 -76.5 45.5l-17 -45h-158v238h157q15 -41 46.5 -58t77.5 -17q28 0 48 11.5t20 30.5q0 24 -20.5 36t-57.5 22q-94 26 -154.5 56t-97.5 86t-37 148q0 71 30.5 125t87.5 84t134 30q94 0 149 -60l25 46h140v-233h-150q-21 44 -46.5 61t-69.5 17
q-34 0 -52.5 -12t-18.5 -33q0 -23 26.5 -35.5t75.5 -23.5q87 -20 147.5 -49.5t97 -84t36.5 -140.5q0 -73 -30.5 -132t-87 -93t-129.5 -34q-60 0 -95.5 13.5zM258 845l-44 73l249 155l66 -134z" />
    <glyph glyph-name="sacute" unicode="&#x15b;" horiz-adv-x="579" 
d="M138 44l-16 -44h-91v193h109q6 -37 34.5 -66.5t65.5 -29.5q14 0 24.5 8t10.5 26t-20.5 32.5t-62.5 34.5q-50 25 -82 45.5t-55.5 54t-23.5 80.5q0 49 31.5 84t83.5 53t113 18q80 0 148 -42l12 32h81v-156h-94q-12 32 -35 50t-54 18q-17 0 -26.5 -5t-9.5 -18q1 -16 19 -27
t60 -29q52 -22 86 -42t59.5 -56.5t25.5 -90.5q0 -57 -30 -96.5t-79 -59.5t-107 -20q-100 0 -177 53zM175 591l-51 69l232 213l90 -129z" />
    <glyph glyph-name="Scircumflex" unicode="&#x15c;" horiz-adv-x="687" 
d="M307.5 -0.5q-35.5 13.5 -76.5 45.5l-17 -45h-158v238h157q15 -41 46.5 -58t77.5 -17q28 0 48 11.5t20 30.5q0 24 -20.5 36t-57.5 22q-94 26 -154.5 56t-97.5 86t-37 148q0 71 30.5 125t87.5 84t134 30q94 0 149 -60l25 46h140v-233h-150q-21 44 -46.5 61t-69.5 17
q-34 0 -52.5 -12t-18.5 -33q0 -23 26.5 -35.5t75.5 -23.5q87 -20 147.5 -49.5t97 -84t36.5 -140.5q0 -73 -30.5 -132t-87 -93t-129.5 -34q-60 0 -95.5 13.5zM243 838l-75 50l134 154h132l134 -154l-75 -50l-125 105z" />
    <glyph glyph-name="scircumflex" unicode="&#x15d;" horiz-adv-x="579" 
d="M138 44l-16 -44h-91v193h109q6 -37 34.5 -66.5t65.5 -29.5q14 0 24.5 8t10.5 26t-20.5 32.5t-62.5 34.5q-50 25 -82 45.5t-55.5 54t-23.5 80.5q0 49 31.5 84t83.5 53t113 18q80 0 148 -42l12 32h81v-156h-94q-12 32 -35 50t-54 18q-17 0 -26.5 -5t-9.5 -18q1 -16 19 -27
t60 -29q52 -22 86 -42t59.5 -56.5t25.5 -90.5q0 -57 -30 -96.5t-79 -59.5t-107 -20q-100 0 -177 53zM153 565l-75 49l133 184h132l134 -184l-75 -49l-124 120z" />
    <glyph glyph-name="Scedilla" unicode="&#x15e;" horiz-adv-x="687" 
d="M622 119q-28 -57 -79 -92t-118 -40v-47q65 -23 65 -80q0 -50 -50 -74t-129 -24h-11v55q48 1 70 15.5t22 44.5q0 42 -54 55v59q-30 6 -54 18.5t-53 35.5l-17 -45h-158v238h157q15 -41 46.5 -58t77.5 -17q28 0 48 11.5t20 30.5q0 24 -20.5 36t-57.5 22q-94 26 -154.5 56
t-97.5 86t-37 148q0 71 30.5 125t87.5 84t134 30q94 0 149 -60l25 46h140v-233h-150q-21 44 -46.5 61t-69.5 17q-34 0 -52.5 -12t-18.5 -33q0 -23 26.5 -35.5t75.5 -23.5q87 -20 147.5 -49.5t97 -84t36.5 -140.5q0 -69 -28 -126z" />
    <glyph glyph-name="scedilla" unicode="&#x15f;" horiz-adv-x="579" 
d="M482.5 49q-48.5 -45 -123.5 -55v-54q65 -23 65 -80q0 -50 -50 -74t-129 -24h-11v55q48 1 70 15.5t22 44.5q0 42 -54 55v62q-76 10 -134 50l-16 -44h-91v193h109q6 -37 34.5 -66.5t65.5 -29.5q14 0 24.5 8t10.5 26t-20.5 32.5t-62.5 34.5q-50 25 -82 45.5t-55.5 54
t-23.5 80.5q0 49 31.5 84t83.5 53t113 18q80 0 148 -42l12 32h81v-156h-94q-12 32 -35 50t-54 18q-17 0 -26.5 -5t-9.5 -18q1 -16 19 -27t60 -29q52 -22 86 -42t59.5 -56.5t25.5 -90.5q0 -73 -48.5 -118z" />
    <glyph glyph-name="Scaron" unicode="&#x160;" horiz-adv-x="687" 
d="M307.5 -0.5q-35.5 13.5 -76.5 45.5l-17 -45h-158v238h157q15 -41 46.5 -58t77.5 -17q28 0 48 11.5t20 30.5q0 24 -20.5 36t-57.5 22q-94 26 -154.5 56t-97.5 86t-37 148q0 71 30.5 125t87.5 84t134 30q94 0 149 -60l25 46h140v-233h-150q-21 44 -46.5 61t-69.5 17
q-34 0 -52.5 -12t-18.5 -33q0 -23 26.5 -35.5t75.5 -23.5q87 -20 147.5 -49.5t97 -84t36.5 -140.5q0 -73 -30.5 -132t-87 -93t-129.5 -34q-60 0 -95.5 13.5zM302 842l-134 155l75 49l125 -110l125 110l75 -49l-134 -155h-132z" />
    <glyph glyph-name="scaron" unicode="&#x161;" horiz-adv-x="579" 
d="M138 44l-16 -44h-91v193h109q6 -37 34.5 -66.5t65.5 -29.5q14 0 24.5 8t10.5 26t-20.5 32.5t-62.5 34.5q-50 25 -82 45.5t-55.5 54t-23.5 80.5q0 49 31.5 84t83.5 53t113 18q80 0 148 -42l12 32h81v-156h-94q-12 32 -35 50t-54 18q-17 0 -26.5 -5t-9.5 -18q1 -16 19 -27
t60 -29q52 -22 86 -42t59.5 -56.5t25.5 -90.5q0 -57 -30 -96.5t-79 -59.5t-107 -20q-100 0 -177 53zM212 583l-134 184l76 49l124 -119l125 119l75 -49l-134 -184h-132z" />
    <glyph glyph-name="uni0162" unicode="&#x162;" horiz-adv-x="799" 
d="M178 0v176h80v429h-69l-21 -134h-137v306h731v-306h-137l-21 134h-71v-429h80v-176h-435zM313 -183q48 1 70 15.5t22 44.5q0 42 -54 55v68h87v-60q65 -23 65 -80q0 -50 -50 -74t-129 -24h-11v55z" />
    <glyph glyph-name="uni0163" unicode="&#x163;" horiz-adv-x="466" 
d="M328 380v-176q0 -22 16.5 -36.5t41.5 -14.5q18 0 36 3v-136q-52 -23 -110 -28v-52q65 -23 65 -80q0 -50 -50 -74t-129 -24h-11v55q48 1 70 15.5t22 44.5q0 42 -54 55v64q-131 27 -131 191v193h-78v143h78v112l234 52v-164h94v-143h-94z" />
    <glyph glyph-name="Tcaron" unicode="&#x164;" horiz-adv-x="799" 
d="M178 0v176h80v429h-69l-21 -134h-137v306h731v-306h-137l-21 134h-71v-429h80v-176h-435zM330 842l-134 155l75 49l125 -110l125 110l75 -49l-134 -155h-132z" />
    <glyph glyph-name="tcaron" unicode="&#x165;" horiz-adv-x="466" 
d="M140.5 39.5q-46.5 48.5 -46.5 147.5v193h-78v143h78v112l234 52v-164h94v-143h-94v-176q0 -22 16.5 -36.5t41.5 -14.5q18 0 36 3v-136q-64 -29 -140 -29q-95 0 -141.5 48.5zM372 569v290h156l-39 -290h-117z" />
    <glyph glyph-name="Tbar" unicode="&#x166;" horiz-adv-x="799" 
d="M604 605h-71v-230h131v-65h-131v-134h80v-176h-435v176h80v134h-130v65h130v230h-69l-21 -134h-137v306h731v-306h-137z" />
    <glyph glyph-name="tbar" unicode="&#x167;" horiz-adv-x="466" 
d="M328 380v-66h94v-89h-94v-21q0 -22 16.5 -36.5t41.5 -14.5q18 0 36 3v-136q-64 -29 -140 -29q-95 0 -141.5 48.5t-46.5 147.5v38h-78v89h78v66h-78v143h78v112l234 52v-164h94v-143h-94z" />
    <glyph glyph-name="Utilde" unicode="&#x168;" horiz-adv-x="826" 
d="M175.5 77q-76.5 91 -76.5 267v261h-79v172h424v-172h-72v-327q0 -48 23.5 -78.5t73.5 -30.5q42 0 66.5 25t24.5 68v343h-80v172h319v-172h-75v-336q0 -140 -82 -211.5t-216 -71.5q-174 0 -250.5 91zM449.5 858q-21.5 5 -56.5 16q-21 7 -42.5 12.5t-35.5 5.5
q-20 0 -36 -10t-35 -34l-55 36q28 69 59.5 101t72.5 32q24 0 46 -6t54 -17q49 -19 73 -19q21 0 38 10.5t36 34.5l55 -37q-28 -61 -56.5 -95.5t-77.5 -34.5q-18 0 -39.5 5z" />
    <glyph glyph-name="utilde" unicode="&#x169;" horiz-adv-x="751" 
d="M94 188v184h-63v132l297 29v-345q0 -19 14 -35t33 -16q22 0 34.5 15t12.5 37v183h-47v132l281 29v-386h63v-147h-297v76q-26 -40 -69 -62.5t-102 -22.5q-157 0 -157 197zM580 749q-8 -12 -32 -52q-24 -45 -45 -67t-57 -22q-19 0 -41.5 8t-54.5 24q-29 14 -47 20.5
t-31 6.5q-10 0 -22 -9t-49 -44l-56 36q12 17 32 53q26 45 46.5 67t54.5 22q23 0 45.5 -9t53.5 -25q28 -14 43.5 -20.5t30.5 -6.5q10 0 23.5 10t49.5 45zM278 792h-1h1z" />
    <glyph glyph-name="Umacron" unicode="&#x16a;" horiz-adv-x="826" 
d="M175.5 77q-76.5 91 -76.5 267v261h-79v172h424v-172h-72v-327q0 -48 23.5 -78.5t73.5 -30.5q42 0 66.5 25t24.5 68v343h-80v172h319v-172h-75v-336q0 -140 -82 -211.5t-216 -71.5q-174 0 -250.5 91zM190 1024h433v-146h-433v146z" />
    <glyph glyph-name="umacron" unicode="&#x16b;" horiz-adv-x="751" 
d="M94 188v184h-63v132l297 29v-345q0 -19 14 -35t33 -16q22 0 34.5 15t12.5 37v183h-47v132l281 29v-386h63v-147h-297v76q-26 -40 -69 -62.5t-102 -22.5q-157 0 -157 197zM147 755h433v-146h-433v146z" />
    <glyph glyph-name="Ubreve" unicode="&#x16c;" horiz-adv-x="826" 
d="M175.5 77q-76.5 91 -76.5 267v261h-79v172h424v-172h-72v-327q0 -48 23.5 -78.5t73.5 -30.5q42 0 66.5 25t24.5 68v343h-80v172h319v-172h-75v-336q0 -140 -82 -211.5t-216 -71.5q-174 0 -250.5 91zM260 891q-51 44 -51 126h123q0 -32 20.5 -51.5t53.5 -19.5t53.5 19.5
t20.5 51.5h123q0 -82 -51.5 -126t-145.5 -44q-95 0 -146 44z" />
    <glyph glyph-name="ubreve" unicode="&#x16d;" horiz-adv-x="751" 
d="M94 188v184h-63v132l297 29v-345q0 -19 14 -35t33 -16q22 0 34.5 15t12.5 37v183h-47v132l281 29v-386h63v-147h-297v76q-26 -40 -69 -62.5t-102 -22.5q-157 0 -157 197zM217 635.5q-51 47.5 -51 136.5h123q0 -35 20.5 -56.5t53.5 -21.5t53.5 22t20.5 57h123
q0 -90 -51.5 -137.5t-145.5 -47.5q-95 0 -146 47.5z" />
    <glyph glyph-name="Uring" unicode="&#x16e;" horiz-adv-x="826" 
d="M175.5 77q-76.5 91 -76.5 267v261h-79v172h424v-172h-72v-327q0 -48 23.5 -78.5t73.5 -30.5q42 0 66.5 25t24.5 68v343h-80v172h319v-172h-75v-336q0 -140 -82 -211.5t-216 -71.5q-174 0 -250.5 91zM308 854.5q-37 34.5 -37 83.5q0 48 36.5 80.5t98.5 32.5t98.5 -33
t36.5 -81t-37.5 -82.5t-97.5 -34.5q-61 0 -98 34.5zM462.5 888q21.5 19 21.5 49q0 29 -21 47.5t-57 18.5q-38 0 -59 -18.5t-21 -47.5q0 -30 21.5 -49t58.5 -19q35 0 56.5 19z" />
    <glyph glyph-name="uring" unicode="&#x16f;" horiz-adv-x="751" 
d="M94 188v184h-63v132l297 29v-345q0 -19 14 -35t33 -16q22 0 34.5 15t12.5 37v183h-47v132l281 29v-386h63v-147h-297v76q-26 -40 -69 -62.5t-102 -22.5q-157 0 -157 197zM264 617q-36 36 -36 87q0 49 35.5 83.5t96.5 34.5q63 0 100 -34.5t37 -84.5q0 -32 -17 -60t-48 -45
t-72 -17q-60 0 -96 36zM418.5 651.5q22.5 21.5 22.5 51.5q0 29 -22 49.5t-59 20.5q-36 0 -56.5 -20.5t-20.5 -49.5q0 -31 21 -52t56 -21q36 0 58.5 21.5z" />
    <glyph glyph-name="Uhungarumlaut" unicode="&#x170;" horiz-adv-x="826" 
d="M175.5 77q-76.5 91 -76.5 267v261h-79v172h424v-172h-72v-327q0 -48 23.5 -78.5t73.5 -30.5q42 0 66.5 25t24.5 68v343h-80v172h319v-172h-75v-336q0 -140 -82 -211.5t-216 -71.5q-174 0 -250.5 91zM343 834l-81 29l75 257l146 -58zM498 835l-70 48l150 228l127 -93z" />
    <glyph glyph-name="uhungarumlaut" unicode="&#x171;" horiz-adv-x="751" 
d="M94 188v184h-63v132l297 29v-345q0 -19 14 -35t33 -16q22 0 34.5 15t12.5 37v183h-47v132l281 29v-386h63v-147h-297v76q-26 -40 -69 -62.5t-102 -22.5q-157 0 -157 197zM300 551l-81 29l75 306l147 -58zM456 551l-71 49l150 276l127 -93z" />
    <glyph glyph-name="Uogonek" unicode="&#x172;" horiz-adv-x="826" 
d="M799 777v-172h-75v-336q0 -119 -59.5 -188.5t-162.5 -87.5q-32 -32 -46 -57t-14 -51q0 -67 91 -68v-55h-10q-82 0 -131 28t-49 84t65 112q-164 5 -236.5 96t-72.5 262v261h-79v172h424v-172h-72v-327q0 -48 23.5 -78.5t73.5 -30.5q42 0 66.5 25t24.5 68v343h-80v172h319z
" />
    <glyph glyph-name="uogonek" unicode="&#x173;" horiz-adv-x="751" 
d="M636.5 -61.5q-15.5 -26.5 -15.5 -53.5q0 -67 91 -68v-55h-10q-82 0 -131 28t-49 84q0 32 19.5 62.5t61.5 63.5h-181v76q-26 -40 -69 -62.5t-102 -22.5q-157 0 -157 197v184h-63v132l297 29v-345q0 -19 14 -35t33 -16q22 0 34.5 15t12.5 37v183h-47v132l281 29v-386h63
v-147h-30q-37 -35 -52.5 -61.5z" />
    <glyph glyph-name="Wcircumflex" unicode="&#x174;" horiz-adv-x="1262" 
d="M269 0l-170 605h-80v173h435v-173h-74l78 -277l127 450h200l123 -435l76 262h-68v173h322v-173h-82l-167 -605h-265l-94 345l-99 -345h-262zM544 838l-75 50l134 154h132l134 -154l-75 -50l-125 105z" />
    <glyph glyph-name="wcircumflex" unicode="&#x175;" horiz-adv-x="1006" 
d="M212 0l-116 372h-65v151h346v-151h-46l45 -181l103 332h130l106 -338l49 187h-58v151h269v-151h-66l-111 -372h-232l-63 210l-74 -210h-217zM363 565l-75 49l133 184h132l134 -184l-75 -49l-124 120z" />
    <glyph glyph-name="Ycircumflex" unicode="&#x176;" horiz-adv-x="813" 
d="M204 0v175h75v143l-205 287h-55v172h416v-172h-44l89 -130l70 130h-71v172h311v-172h-88l-151 -261v-169h77v-175h-424zM293 838l-75 50l134 154h132l134 -154l-75 -50l-125 105z" />
    <glyph glyph-name="ycircumflex" unicode="&#x177;" horiz-adv-x="755" 
d="M195 -184v154h99l27 45l-228 357h-62v151h366v-151h-48l81 -150l74 150h-53v151h273v-151h-53l-213 -402h75v-154h-338zM250 565l-75 49l133 184h132l134 -184l-75 -49l-124 120z" />
    <glyph glyph-name="Ydieresis" unicode="&#x178;" horiz-adv-x="813" 
d="M204 0v175h75v143l-205 287h-55v172h416v-172h-44l89 -130l70 130h-71v172h311v-172h-88l-151 -261v-169h77v-175h-424zM188 878.5q-31 30.5 -31 76.5q0 45 31.5 74.5t79.5 29.5q49 0 79.5 -29.5t30.5 -75.5q0 -45 -31 -75.5t-79 -30.5q-49 0 -80 30.5zM488.5 878
q-30.5 30 -30.5 76t31 75.5t79 29.5q49 0 79.5 -29.5t30.5 -76.5q0 -45 -31 -75t-79 -30q-49 0 -79.5 30z" />
    <glyph glyph-name="Zacute" unicode="&#x179;" horiz-adv-x="775" 
d="M46 0v171l331 434h-154l-39 -152h-141v324h681v-160l-330 -442h150l53 164h137v-339h-688zM300 845l-44 73l249 155l66 -134z" />
    <glyph glyph-name="zacute" unicode="&#x17a;" horiz-adv-x="589" 
d="M172 560l-51 69l232 213l90 -129zM40 0v138l241 242h-100l-32 -69h-96v212h499v-135l-229 -244h140l17 76h90v-220h-530z" />
    <glyph glyph-name="Zdotaccent" unicode="&#x17b;" horiz-adv-x="775" 
d="M46 0v171l331 434h-154l-39 -152h-141v324h681v-160l-330 -442h150l53 164h137v-339h-688zM308.5 878.5q-36.5 28.5 -36.5 78.5q0 51 36.5 79.5t101.5 28.5t101.5 -28.5t36.5 -79.5q0 -50 -36.5 -78.5t-101.5 -28.5t-101.5 28.5z" />
    <glyph glyph-name="zdotaccent" unicode="&#x17c;" horiz-adv-x="589" 
d="M182.5 593q-38.5 33 -38.5 89q0 55 38 87.5t98 32.5q62 0 101 -33t39 -87q0 -56 -40 -89t-100 -33q-59 0 -97.5 33zM40 0v138l241 242h-100l-32 -69h-96v212h499v-135l-229 -244h140l17 76h90v-220h-530z" />
    <glyph glyph-name="Zcaron" unicode="&#x17d;" horiz-adv-x="775" 
d="M46 0v171l331 434h-154l-39 -152h-141v324h681v-160l-330 -442h150l53 164h137v-339h-688zM344 842l-134 155l75 49l125 -110l125 110l75 -49l-134 -155h-132z" />
    <glyph glyph-name="zcaron" unicode="&#x17e;" horiz-adv-x="609" 
d="M40 0v138l241 242h-100l-32 -69h-96v212h499v-135l-229 -244h140l17 76h90v-220h-530zM251 583l-134 184l76 49l124 -119l125 119l75 -49l-134 -184h-132z" />
    <glyph glyph-name="uni018F" unicode="&#x18f;" horiz-adv-x="831" 
d="M586.5 742.5q90.5 -49.5 139.5 -141t49 -213.5q0 -123 -46 -213.5t-131 -139.5t-198 -49q-110 0 -193.5 46.5t-129.5 132t-46 199.5q0 31 12 74h451q0 45 -24 79t-64 51.5t-87 17.5q-56 0 -122 -19t-132 -58l-11 5v194q63 39 143.5 61.5t175.5 22.5q123 0 213.5 -49.5z
M309 311v-15q0 -53 23.5 -89.5t69.5 -36.5q26 0 47 18t33 46t12 56v21h-185z" />
    <glyph glyph-name="florin" unicode="&#x192;" horiz-adv-x="435" 
d="M333 80q0 -96 -47 -146.5t-140 -50.5q-77 0 -151 23v152q28 -6 47 -6q33 0 43.5 22.5t10.5 71.5v226h-41v151h40l-1 66q0 197 186 197q84 0 150 -23v-152q-25 7 -46 7q-31 0 -42.5 -20.5t-11.5 -74.5h87v-151h-84v-292z" />
    <glyph glyph-name="Ohorn" unicode="&#x1a0;" horiz-adv-x="869" 
d="M808.5 714q-36.5 -30 -96.5 -32q49 -53 75 -127.5t26 -164.5q0 -117 -46 -208.5t-134.5 -143.5t-210.5 -52t-210.5 52t-134.5 143.5t-46 208.5q0 121 46 212t134 140.5t211 49.5q42 0 72.5 -4t69.5 -11q51 -11 83 -11q61 0 61 48q0 21 -11 43l131 20q17 -37 17 -78
q0 -55 -36.5 -85zM503 223q28 64 28 171q0 104 -27 164.5t-82 60.5t-82 -60.5t-27 -164.5q0 -107 28 -171t81 -64t81 64z" />
    <glyph glyph-name="ohorn" unicode="&#x1a1;" horiz-adv-x="730" 
d="M695 466q-33 -39 -88 -39q-16 0 -25 1q48 -65 48 -161q0 -86 -37 -148.5t-104 -95t-156 -32.5q-88 0 -155 32.5t-104 95t-37 148.5q0 85 37 145t104 90.5t155 30.5q41 0 69 -4t67 -12q48 -11 80 -11q27 0 40.5 22t13.5 50q0 19 -12 43l119 20q18 -36 18 -78
q0 -58 -33 -97zM380.5 165.5q15.5 31.5 15.5 101.5q0 65 -15 94t-48 29q-32 0 -47 -29t-15 -94q0 -70 15.5 -101.5t46.5 -31.5q32 0 47.5 31.5z" />
    <glyph glyph-name="Uhorn" unicode="&#x1af;" horiz-adv-x="930" 
d="M883 705.5q-28 -42.5 -70.5 -63t-88.5 -20.5v-353q0 -140 -82 -211.5t-216 -71.5q-174 0 -250.5 91t-76.5 267v261h-79v172h424v-172h-72v-327q0 -48 23.5 -78.5t73.5 -30.5q42 0 66.5 25t24.5 68v343h-80v172h249q23 0 32.5 12t9.5 37q0 19 -11 43l134 25q17 -40 17 -83
q0 -63 -28 -105.5z" />
    <glyph glyph-name="uhorn" unicode="&#x1b0;" horiz-adv-x="783" 
d="M656 450v-303h63v-147h-297v76q-26 -40 -69 -62.5t-102 -22.5q-157 0 -157 197v184h-63v132l297 29v-345q0 -19 14 -35t33 -16q22 0 34.5 15t12.5 37v183h-47v132l237 25q31 3 45.5 14t14.5 34q0 21 -11 43l119 20q17 -34 17 -77q0 -55 -35.5 -84t-94.5 -29h-11z" />
    <glyph glyph-name="uni01C4" unicode="&#x1c4;" horiz-adv-x="1656" 
d="M31 172h78v433h-78v172h360q212 0 324.5 -98t112.5 -290q0 -187 -112 -288t-326 -101h-359v172zM390 172q82 0 119.5 61.5t37.5 155.5q0 96 -37 156t-120 60h-31v-433h31zM927 0v171l331 434h-154l-39 -152h-141v324h681v-160l-330 -442h150l53 164h137v-339h-688z
M1225 842l-134 155l75 49l125 -110l125 110l75 -49l-134 -155h-132z" />
    <glyph glyph-name="uni01C5" unicode="&#x1c5;" horiz-adv-x="1490" 
d="M31 172h78v433h-78v172h360q212 0 324.5 -98t112.5 -290q0 -187 -112 -288t-326 -101h-359v172zM390 172q82 0 119.5 61.5t37.5 155.5q0 96 -37 156t-120 60h-31v-433h31zM921 0v138l241 242h-100l-32 -69h-96v212h499v-135l-229 -244h140l17 76h90v-220h-530zM1132 583
l-134 184l76 49l124 -119l125 119l75 -49l-134 -184h-132z" />
    <glyph glyph-name="uni01C6" unicode="&#x1c6;" horiz-adv-x="1348" 
d="M139.5 28.5q-51.5 37.5 -78 101t-26.5 139.5q0 70 27 130.5t77.5 97t118.5 36.5q50 0 85.5 -16t66.5 -48v128h-78v133l313 32v-615h62v-147h-301v63q-24 -32 -61 -51.5t-83 -20.5q-71 0 -122.5 37.5zM381.5 145q18.5 11 28.5 26v185q-11 13 -30 23.5t-40 10.5
q-38 0 -62 -31t-24 -90q0 -60 22 -97.5t64 -37.5q23 0 41.5 11zM779 0v138l241 242h-100l-32 -69h-96v212h499v-135l-229 -244h140l17 76h90v-220h-530zM990 583l-134 184l76 49l124 -119l125 119l75 -49l-134 -184h-132z" />
    <glyph glyph-name="uni01C7" unicode="&#x1c7;" horiz-adv-x="1369" 
d="M63 0v175h78v430h-78v172h406v-172h-78v-430h125l47 171h124v-346h-624zM939.5 2.5q-35.5 17.5 -58.5 45.5l-18 -54h-131v315h141q0 -71 13 -104t53 -33q34 0 54.5 32t20.5 75v326h-94v173h422v-173h-78v-373q0 -113 -65 -180t-178 -67q-46 0 -81.5 17.5z" />
    <glyph glyph-name="uni01C8" unicode="&#x1c8;" horiz-adv-x="1092" 
d="M63 0v175h78v430h-78v172h406v-172h-78v-430h125l47 171h124v-346h-624zM806 603q-40 29 -40 83t39.5 82t101.5 28q63 0 101.5 -27.5t38.5 -82.5t-39.5 -83.5t-100.5 -28.5t-101 29zM735 -45h15q63 0 63 45v372h-78v120l312 31v-483q0 -95 -34.5 -146t-101.5 -69.5
t-176 -18.5v149z" />
    <glyph glyph-name="uni01C9" unicode="&#x1c9;" horiz-adv-x="869" 
d="M45 0v147h86v450h-86v133l320 32v-615h75v-147h-395zM583 603q-40 29 -40 83t39.5 82t101.5 28q63 0 101.5 -27.5t38.5 -82.5t-39.5 -83.5t-100.5 -28.5t-101 29zM512 -45h15q63 0 63 45v372h-78v120l312 31v-483q0 -95 -34.5 -146t-101.5 -69.5t-176 -18.5v149z" />
    <glyph glyph-name="uni01CA" unicode="&#x1ca;" horiz-adv-x="1572" 
d="M40 0v175h79v431h-77v172h359l243 -462v289h-78v172h311v-172h-77v-605h-296l-231 429v-254h78v-175h-311zM1142.5 2.5q-35.5 17.5 -58.5 45.5l-18 -54h-131v315h141q0 -71 13 -104t53 -33q34 0 54.5 32t20.5 75v326h-94v173h422v-173h-78v-373q0 -113 -65 -180t-178 -67
q-46 0 -81.5 17.5z" />
    <glyph glyph-name="uni01CB" unicode="&#x1cb;" horiz-adv-x="1295" 
d="M40 0v175h79v431h-77v172h359l243 -462v289h-78v172h311v-172h-77v-605h-296l-231 429v-254h78v-175h-311zM1009 603q-40 29 -40 83t39.5 82t101.5 28q63 0 101.5 -27.5t38.5 -82.5t-39.5 -83.5t-100.5 -28.5t-101 29zM938 -45h15q63 0 63 45v372h-78v120l312 31v-483
q0 -95 -34.5 -146t-101.5 -69.5t-176 -18.5v149z" />
    <glyph glyph-name="uni01CC" unicode="&#x1cc;" horiz-adv-x="1162" 
d="M758 141v-141h-302v333q0 21 -13.5 37t-32.5 16q-36 0 -45.5 -35.5t-9.5 -102.5v-107h1v-141h-305v141h71v231h-71v132l304 29v-73q34 40 77 56.5t97 16.5q161 0 161 -201v-191h68zM876 603q-40 29 -40 83t39.5 82t101.5 28q63 0 101.5 -27.5t38.5 -82.5t-39.5 -83.5
t-100.5 -28.5t-101 29zM805 -45h15q63 0 63 45v372h-78v120l312 31v-483q0 -95 -34.5 -146t-101.5 -69.5t-176 -18.5v149z" />
    <glyph glyph-name="Gcaron" unicode="&#x1e6;" horiz-adv-x="841" 
d="M247.5 30q-98.5 44 -157.5 137t-59 234q0 112 46.5 201t135 139.5t208.5 50.5q51 0 99 -17t76 -50l16 52h169v-287h-151q-15 62 -58 93.5t-90 31.5q-78 0 -123.5 -57t-45.5 -157q0 -101 45 -158.5t127 -57.5q21 0 42 4t34 8.5t17 5.5v69h-94v145h313v-349
q-75 -40 -161 -61t-171 -21q-119 0 -217.5 44zM390 842l-134 155l75 49l125 -110l125 110l75 -49l-134 -155h-132z" />
    <glyph glyph-name="gcaron" unicode="&#x1e7;" horiz-adv-x="728" 
d="M100 -160v141q65 -20 107.5 -30.5t83.5 -10.5q118 0 118 117q-27 -24 -66 -40.5t-88 -16.5q-71 0 -120 35.5t-73.5 95.5t-24.5 133q0 75 25 136t74 97t119 36q96 0 154 -83l35 73h249v-151h-47v-306q0 -127 -89 -191.5t-237 -64.5q-104 0 -220 30zM389 148q19 14 23 28
v178q-9 17 -27 26.5t-42 9.5q-40 0 -64 -34.5t-24 -94.5q0 -57 24 -92t68 -35q23 0 42 14zM327 583l-134 184l76 49l124 -119l125 119l75 -49l-134 -184h-132z" />
    <glyph glyph-name="uni01EA" unicode="&#x1ea;" horiz-adv-x="869" 
d="M470.5 -63.5q-14.5 -25.5 -14.5 -51.5q0 -67 91 -68v-55h-10q-82 0 -131 28t-49 84q0 55 64 112q-122 0 -210 52t-134 143.5t-46 208.5q0 121 46 212t134 140.5t211 49.5t211 -49.5t134 -140.5t46 -212q0 -100 -34.5 -182.5t-100.5 -137.5t-159 -74q-34 -34 -48.5 -59.5z
M341 223q28 -64 81 -64t81 64t28 171q0 104 -27 164.5t-82 60.5t-82 -60.5t-27 -164.5q0 -107 28 -171z" />
    <glyph glyph-name="uni01EB" unicode="&#x1eb;" horiz-adv-x="667" 
d="M364.5 -62q-15.5 -26 -15.5 -53q0 -67 91 -68v-55h-10q-82 0 -131 28t-49 84q0 30 17 58.5t53 58.5q-85 3 -149 36t-99 94.5t-35 145.5q0 85 37 145t104 90.5t155 30.5q135 0 216 -69.5t81 -196.5q0 -108 -57 -177.5t-157 -90.5q-36 -35 -51.5 -61zM286.5 165.5
q15.5 -31.5 46.5 -31.5q32 0 47.5 31.5t15.5 101.5q0 65 -15 94t-48 29q-32 0 -47 -29t-15 -94q0 -70 15.5 -101.5z" />
    <glyph glyph-name="Aringacute" unicode="&#x1fa;" horiz-adv-x="859" 
d="M16 0v172h77l134 433h-102v172h484l173 -605h77v-172h-437v172h63l-21 83h-176l-22 -83h93v-172h-343zM313 373h128l-57 238zM312 854.5q-37 34.5 -37 83.5q0 48 36.5 80.5t98.5 32.5t98.5 -33t36.5 -81t-37.5 -82.5t-97.5 -34.5q-61 0 -98 34.5zM466.5 888
q21.5 19 21.5 49q0 29 -21 47.5t-57 18.5q-38 0 -59 -18.5t-21 -47.5q0 -30 21.5 -49t58.5 -19q35 0 56.5 19zM300 1085l-44 73l249 155l66 -134z" />
    <glyph glyph-name="aringacute" unicode="&#x1fb;" horiz-adv-x="682" 
d="M128 10.5q-41 19.5 -65.5 55.5t-24.5 84q0 52 28.5 87.5t75.5 53t101 17.5q64 0 123 -19v22q0 39 -33 59.5t-89 20.5q-36 0 -83 -13t-78 -32l-14 6v142q59 21 120.5 30t114.5 9q297 0 297 -167v-219h46v-147h-250l-22 80q-21 -41 -65.5 -65t-91.5 -24q-49 0 -90 19.5z
M343 121.5q17 5.5 23 11.5v82q-7 1 -23.5 5.5t-28.5 4.5q-26 0 -41.5 -16t-15.5 -43q0 -20 14.5 -35t38.5 -15q16 0 33 5.5zM233 610.5q-37 34.5 -37 83.5q0 48 36.5 80.5t98.5 32.5t98.5 -33t36.5 -81t-37.5 -82.5t-97.5 -34.5q-61 0 -98 34.5zM387.5 644q21.5 19 21.5 49
q0 29 -21 47.5t-57 18.5q-38 0 -59 -18.5t-21 -47.5q0 -30 21.5 -49t58.5 -19q35 0 56.5 19zM221 841l-44 73l249 155l66 -134z" />
    <glyph glyph-name="AEacute" unicode="&#x1fc;" horiz-adv-x="1070" 
d="M32 172q33 0 56 14.5t39.5 39.5t39.5 71l157 325h-104l35 170h766v-318l-130 -1l-38 147h-104v-139h100v-171h-100v-140h106l38 164h133v-335h-600l-1 184h59q5 27 5 42q0 38 -23 38h-134q-10 0 -15 -11t-5 -28t4.5 -29t12.5 -12h36v-183l-333 -1v173zM363 375h117v255z
M528 860l-44 73l249 155l66 -134z" />
    <glyph glyph-name="aeacute" unicode="&#x1fd;" horiz-adv-x="972" 
d="M926 214h-306q0 -40 34.5 -64.5t83.5 -24.5q37 0 82 13t90 40l7 -3v-131q-49 -28 -102 -43t-132 -15q-73 0 -119.5 20.5t-81.5 58.5q-44 -42 -99.5 -60.5t-130.5 -18.5q-55 0 -104 18.5t-79.5 55t-30.5 87.5q0 44 28 79t76 54.5t107 19.5q70 0 124 -18v22q0 81 -117 81
q-36 0 -82.5 -13t-78.5 -32l-13 6v142q53 21 109 29.5t105 8.5q65 0 117.5 -16t82.5 -43q30 29 76 45t93 16q76 0 137.5 -31t97 -90t35.5 -141q0 -32 -9 -52zM673 389q-53 0 -53 -91l105 -1q5 92 -52 92zM375 195q-24 11 -50 11q-22 0 -35.5 -14.5t-13.5 -40.5
q0 -22 12.5 -36t33.5 -14q31 0 53 23v71zM366 591l-51 69l232 213l90 -129z" />
    <glyph glyph-name="Oslashacute" unicode="&#x1fe;" horiz-adv-x="868" 
d="M284 -76l20 81q-83 27 -144 84t-94 136t-33 169q0 115 47 209t137 149t216 55q24 0 54 -3l18 77l75 -15l-17 -77q129 -39 199.5 -143.5t70.5 -250.5q0 -108 -49 -202t-140 -150.5t-211 -56.5q-27 0 -51 3l-19 -84zM448 631l-14 1q-61 0 -82 -59.5t-21 -155.5
q0 -97 4 -137t17 -67zM514.5 213.5q20.5 62.5 20.5 168.5q0 89 -4 127.5t-16 65.5l-95 -422q4 -2 12 -2q62 0 82.5 62.5zM342 864l-44 73l249 155l66 -134z" />
    <glyph glyph-name="oslashacute" unicode="&#x1ff;" horiz-adv-x="656" 
d="M622 267q0 -86 -37 -148q-37 -63 -104 -96q-66 -32 -152 -32q-67 0 -120 19l-34 -61l-43 25l31 56q-56 31 -91 89q-37 62 -37 148h-1q0 126 79 196q77 70 215 70q60 0 111 -14l36 63l42 -24l-32 -56q32 -16 58 -39q79 -69 79 -196zM265 210l93 165q-12 6 -30 6
q-21 0 -36 -9q-14 -9 -20 -28q-6 -17 -9 -35q-2 -24 -2 -43h-1q0 -29 5 -56zM394 266q0 31 -2 43q-2 14 -4 20l-97 -173q15 -12 36 -12q67 0 67 122zM208 591l-51 69l232 213l90 -129z" />
    <glyph glyph-name="uni0200" unicode="&#x200;" horiz-adv-x="859" 
d="M16 0v172h77l134 433h-102v172h484l173 -605h77v-172h-437v172h63l-21 83h-176l-22 -83h93v-172h-343zM313 373h128l-57 238zM494 844l-140 228l146 58l75 -257zM339 844l-207 183l127 94l150 -228z" />
    <glyph glyph-name="uni0201" unicode="&#x201;" horiz-adv-x="682" 
d="M128 10.5q-41 19.5 -65.5 55.5t-24.5 84q0 52 28.5 87.5t75.5 53t101 17.5q64 0 123 -19v22q0 39 -33 59.5t-89 20.5q-36 0 -83 -13t-78 -32l-14 6v142q59 21 120.5 30t114.5 9q297 0 297 -167v-219h46v-147h-250l-22 80q-21 -41 -65.5 -65t-91.5 -24q-49 0 -90 19.5z
M343 121.5q17 5.5 23 11.5v82q-7 1 -23.5 5.5t-28.5 4.5q-26 0 -41.5 -16t-15.5 -43q0 -20 14.5 -35t38.5 -15q16 0 33 5.5zM415 610l-140 276l146 59l75 -306zM260 610l-207 232l127 93l158 -296z" />
    <glyph glyph-name="uni0202" unicode="&#x202;" horiz-adv-x="859" 
d="M16 0v172h77l134 433h-102v172h484l173 -605h77v-172h-437v172h63l-21 83h-176l-22 -83h93v-172h-343zM313 373h128l-57 238zM555.5 983q51.5 -44 51.5 -126h-123q0 32 -20.5 51.5t-53.5 19.5t-53.5 -19.5t-20.5 -50.5h-123q0 82 51 125.5t146 43.5q94 0 145.5 -44z" />
    <glyph glyph-name="uni0203" unicode="&#x203;" horiz-adv-x="682" 
d="M128 10.5q-41 19.5 -65.5 55.5t-24.5 84q0 52 28.5 87.5t75.5 53t101 17.5q64 0 123 -19v22q0 39 -33 59.5t-89 20.5q-36 0 -83 -13t-78 -32l-14 6v142q59 21 120.5 30t114.5 9q297 0 297 -167v-219h46v-147h-250l-22 80q-21 -41 -65.5 -65t-91.5 -24q-49 0 -90 19.5z
M343 121.5q17 5.5 23 11.5v82q-7 1 -23.5 5.5t-28.5 4.5q-26 0 -41.5 -16t-15.5 -43q0 -20 14.5 -35t38.5 -15q16 0 33 5.5zM384 674.5q-21 21.5 -53 21.5t-53 -22t-21 -57h-123q0 89 50.5 137t143.5 48q96 0 148 -48t52 -137h-123q0 36 -21 57.5z" />
    <glyph glyph-name="uni0204" unicode="&#x204;" horiz-adv-x="708" 
d="M47 0v172h94v433h-94v172h656v-309h-125l-47 137h-140v-127h125v-128h-125v-178h140l47 159h125v-331h-656zM466 844l-140 228l146 58l75 -257zM311 844l-207 183l127 94l150 -228z" />
    <glyph glyph-name="uni0205" unicode="&#x205;" horiz-adv-x="623" 
d="M170 24.5q-67 33.5 -103 95.5t-36 145q0 82 35 142.5t98.5 93t148.5 32.5q79 0 139 -31t93 -88t33 -133q0 -26 -8 -50h-304q0 -46 34.5 -73.5t83.5 -27.5q37 0 81.5 13t89.5 40l8 -3v-131q-50 -29 -103 -43.5t-132 -14.5q-91 0 -158 33.5zM391 317v10q0 35 -16 60t-47 25
q-26 0 -44 -25.5t-18 -55.5v-14h125zM399 600l-140 276l146 59l75 -306zM244 600l-207 232l127 93l158 -296z" />
    <glyph glyph-name="uni0206" unicode="&#x206;" horiz-adv-x="708" 
d="M47 0v172h94v433h-94v172h656v-309h-125l-47 137h-140v-127h125v-128h-125v-178h140l47 159h125v-331h-656zM527.5 983q51.5 -44 51.5 -126h-123q0 32 -20.5 51.5t-53.5 19.5t-53.5 -19.5t-20.5 -50.5h-123q0 82 51 125.5t146 43.5q94 0 145.5 -44z" />
    <glyph glyph-name="uni0207" unicode="&#x207;" horiz-adv-x="623" 
d="M170 24.5q-67 33.5 -103 95.5t-36 145q0 82 35 142.5t98.5 93t148.5 32.5q79 0 139 -31t93 -88t33 -133q0 -26 -8 -50h-304q0 -46 34.5 -73.5t83.5 -27.5q37 0 81.5 13t89.5 40l8 -3v-131q-50 -29 -103 -43.5t-132 -14.5q-91 0 -158 33.5zM391 317v10q0 35 -16 60t-47 25
q-26 0 -44 -25.5t-18 -55.5v-14h125zM368 664.5q-21 21.5 -53 21.5t-53 -22t-21 -57h-123q0 89 50.5 137t143.5 48q96 0 148 -48t52 -137h-123q0 36 -21 57.5z" />
    <glyph glyph-name="uni0208" unicode="&#x208;" horiz-adv-x="502" 
d="M63 0v172h78v433h-78v172h406v-172h-78v-433h78v-172h-406zM350 844l-140 228l146 58l75 -257zM195 844l-207 183l127 94l150 -228z" />
    <glyph glyph-name="uni0209" unicode="&#x209;" horiz-adv-x="396" 
d="M44 0v146h40v219h-43v127l278 31v-377h41v-146h-316zM286 600l-140 276l146 59l75 -306zM131 600l-207 232l127 93l158 -296z" />
    <glyph glyph-name="uni020A" unicode="&#x20a;" horiz-adv-x="502" 
d="M63 0v172h78v433h-78v172h406v-172h-78v-433h78v-172h-406zM411.5 983q51.5 -44 51.5 -126h-123q0 32 -20.5 51.5t-53.5 19.5t-53.5 -19.5t-20.5 -50.5h-123q0 82 51 125.5t146 43.5q94 0 145.5 -44z" />
    <glyph glyph-name="uni020B" unicode="&#x20b;" horiz-adv-x="396" 
d="M44 0v146h40v219h-43v127l278 31v-377h41v-146h-316zM255 664.5q-21 21.5 -53 21.5t-53 -22t-21 -57h-123q0 89 50.5 137t143.5 48q96 0 148 -48t52 -137h-123q0 36 -21 57.5z" />
    <glyph glyph-name="uni020C" unicode="&#x20c;" horiz-adv-x="869" 
d="M211.5 38q-88.5 52 -134.5 143.5t-46 208.5q0 121 46 212t134 140.5t211 49.5t211 -49.5t134 -140.5t46 -212q0 -117 -46 -208.5t-134.5 -143.5t-210.5 -52t-210.5 52zM503 223q28 64 28 171q0 104 -27 164.5t-82 60.5t-82 -60.5t-27 -164.5q0 -107 28 -171t81 -64t81 64
zM503 860l-140 228l146 58l75 -257zM348 860l-207 183l127 94l150 -228z" />
    <glyph glyph-name="uni020D" unicode="&#x20d;" horiz-adv-x="667" 
d="M178 23.5q-67 32.5 -104 95t-37 148.5q0 85 37 145t104 90.5t155 30.5q135 0 216 -69.5t81 -196.5q0 -86 -37 -148.5t-104 -95t-156 -32.5q-88 0 -155 32.5zM380.5 165.5q15.5 31.5 15.5 101.5q0 65 -15 94t-48 29q-32 0 -47 -29t-15 -94q0 -70 15.5 -101.5t46.5 -31.5
q32 0 47.5 31.5zM417 600l-140 276l146 59l75 -306zM262 600l-207 232l127 93l158 -296z" />
    <glyph glyph-name="uni020E" unicode="&#x20e;" horiz-adv-x="869" 
d="M211.5 38q-88.5 52 -134.5 143.5t-46 208.5q0 121 46 212t134 140.5t211 49.5t211 -49.5t134 -140.5t46 -212q0 -117 -46 -208.5t-134.5 -143.5t-210.5 -52t-210.5 52zM503 223q28 64 28 171q0 104 -27 164.5t-82 60.5t-82 -60.5t-27 -164.5q0 -107 28 -171t81 -64t81 64
zM564.5 999q51.5 -44 51.5 -126h-123q0 32 -20.5 51.5t-53.5 19.5t-53.5 -19.5t-20.5 -50.5h-123q0 82 51 125.5t146 43.5q94 0 145.5 -44z" />
    <glyph glyph-name="uni020F" unicode="&#x20f;" horiz-adv-x="667" 
d="M178 23.5q-67 32.5 -104 95t-37 148.5q0 85 37 145t104 90.5t155 30.5q135 0 216 -69.5t81 -196.5q0 -86 -37 -148.5t-104 -95t-156 -32.5q-88 0 -155 32.5zM380.5 165.5q15.5 31.5 15.5 101.5q0 65 -15 94t-48 29q-32 0 -47 -29t-15 -94q0 -70 15.5 -101.5t46.5 -31.5
q32 0 47.5 31.5zM386 664.5q-21 21.5 -53 21.5t-53 -22t-21 -57h-123q0 89 50.5 137t143.5 48q96 0 148 -48t52 -137h-123q0 36 -21 57.5z" />
    <glyph glyph-name="uni0210" unicode="&#x210;" horiz-adv-x="869" 
d="M63 172h78v433h-78v172h499q121 0 178 -49t57 -162q0 -76 -42.5 -117t-120.5 -55q70 -11 101 -52.5t31 -103.5v-63h109v-175h-157q-76 0 -109 10t-50.5 55t-17.5 150q0 60 -19.5 89t-71.5 29h-59v-161h78v-172h-406v172zM458 444q53 0 79 19t26 67q0 35 -26.5 55
t-68.5 20h-77v-161h67zM513 844l-140 228l146 58l75 -257zM358 844l-207 183l127 94l150 -228z" />
    <glyph glyph-name="uni0211" unicode="&#x211;" horiz-adv-x="523" 
d="M31 147h63v225h-63v132l297 29v-85q23 37 77 61t95 24v-207q-57 19 -94 19q-47 0 -62.5 -27t-15.5 -71v-100h78v-147h-375v147zM323 600l-140 276l146 59l75 -306zM168 600l-207 232l127 93l158 -296z" />
    <glyph glyph-name="uni0212" unicode="&#x212;" horiz-adv-x="869" 
d="M63 172h78v433h-78v172h499q121 0 178 -49t57 -162q0 -76 -42.5 -117t-120.5 -55q70 -11 101 -52.5t31 -103.5v-63h109v-175h-157q-76 0 -109 10t-50.5 55t-17.5 150q0 60 -19.5 89t-71.5 29h-59v-161h78v-172h-406v172zM458 444q53 0 79 19t26 67q0 35 -26.5 55
t-68.5 20h-77v-161h67zM574.5 983q51.5 -44 51.5 -126h-123q0 32 -20.5 51.5t-53.5 19.5t-53.5 -19.5t-20.5 -50.5h-123q0 82 51 125.5t146 43.5q94 0 145.5 -44z" />
    <glyph glyph-name="uni0213" unicode="&#x213;" horiz-adv-x="523" 
d="M31 147h63v225h-63v132l297 29v-85q23 37 77 61t95 24v-207q-57 19 -94 19q-47 0 -62.5 -27t-15.5 -71v-100h78v-147h-375v147zM292 664.5q-21 21.5 -53 21.5t-53 -22t-21 -57h-123q0 89 50.5 137t143.5 48q96 0 148 -48t52 -137h-123q0 36 -21 57.5z" />
    <glyph glyph-name="uni0214" unicode="&#x214;" horiz-adv-x="826" 
d="M175.5 77q-76.5 91 -76.5 267v261h-79v172h424v-172h-72v-327q0 -48 23.5 -78.5t73.5 -30.5q42 0 66.5 25t24.5 68v343h-80v172h319v-172h-75v-336q0 -140 -82 -211.5t-216 -71.5q-174 0 -250.5 91zM490 844l-140 228l146 58l75 -257zM335 844l-207 183l127 94l150 -228z
" />
    <glyph glyph-name="uni0215" unicode="&#x215;" horiz-adv-x="751" 
d="M94 188v184h-63v132l297 29v-345q0 -19 14 -35t33 -16q22 0 34.5 15t12.5 37v183h-47v132l281 29v-386h63v-147h-297v76q-26 -40 -69 -62.5t-102 -22.5q-157 0 -157 197zM447 600l-140 276l146 59l75 -306zM292 600l-207 232l127 93l158 -296z" />
    <glyph glyph-name="uni0216" unicode="&#x216;" horiz-adv-x="826" 
d="M175.5 77q-76.5 91 -76.5 267v261h-79v172h424v-172h-72v-327q0 -48 23.5 -78.5t73.5 -30.5q42 0 66.5 25t24.5 68v343h-80v172h319v-172h-75v-336q0 -140 -82 -211.5t-216 -71.5q-174 0 -250.5 91zM551.5 983q51.5 -44 51.5 -126h-123q0 32 -20.5 51.5t-53.5 19.5
t-53.5 -19.5t-20.5 -50.5h-123q0 82 51 125.5t146 43.5q94 0 145.5 -44z" />
    <glyph glyph-name="uni0217" unicode="&#x217;" horiz-adv-x="751" 
d="M94 188v184h-63v132l297 29v-345q0 -19 14 -35t33 -16q22 0 34.5 15t12.5 37v183h-47v132l281 29v-386h63v-147h-297v76q-26 -40 -69 -62.5t-102 -22.5q-157 0 -157 197zM416 664.5q-21 21.5 -53 21.5t-53 -22t-21 -57h-123q0 89 50.5 137t143.5 48q96 0 148 -48t52 -137
h-123q0 36 -21 57.5z" />
    <glyph glyph-name="Scommaaccent" unicode="&#x218;" horiz-adv-x="687" 
d="M307.5 -0.5q-35.5 13.5 -76.5 45.5l-17 -45h-158v238h157q15 -41 46.5 -58t77.5 -17q28 0 48 11.5t20 30.5q0 24 -20.5 36t-57.5 22q-94 26 -154.5 56t-97.5 86t-37 148q0 71 30.5 125t87.5 84t134 30q94 0 149 -60l25 46h140v-233h-150q-21 44 -46.5 61t-69.5 17
q-34 0 -52.5 -12t-18.5 -33q0 -23 26.5 -35.5t75.5 -23.5q87 -20 147.5 -49.5t97 -84t36.5 -140.5q0 -73 -30.5 -132t-87 -93t-129.5 -34q-60 0 -95.5 13.5zM232 -315q48 0 70.5 10.5t30 32.5t7.5 65h-107v135h224q12 -62 12 -111q0 -125 -57.5 -183.5t-179.5 -58.5v110z
" />
    <glyph glyph-name="scommaaccent" unicode="&#x219;" horiz-adv-x="579" 
d="M138 44l-16 -44h-91v193h109q6 -37 34.5 -66.5t65.5 -29.5q14 0 24.5 8t10.5 26t-20.5 32.5t-62.5 34.5q-50 25 -82 45.5t-55.5 54t-23.5 80.5q0 49 31.5 84t83.5 53t113 18q80 0 148 -42l12 32h81v-156h-94q-12 32 -35 50t-54 18q-17 0 -26.5 -5t-9.5 -18q1 -16 19 -27
t60 -29q52 -22 86 -42t59.5 -56.5t25.5 -90.5q0 -57 -30 -96.5t-79 -59.5t-107 -20q-100 0 -177 53zM159 -315q48 0 70.5 10.5t30 32.5t7.5 65h-107v135h224q12 -62 12 -111q0 -125 -57.5 -183.5t-179.5 -58.5v110z" />
    <glyph glyph-name="uni021A" unicode="&#x21a;" horiz-adv-x="799" 
d="M178 0v176h80v429h-69l-21 -134h-137v306h731v-306h-137l-21 134h-71v-429h80v-176h-435zM261 -315q48 0 70.5 10.5t30 32.5t7.5 65h-107v135h224q12 -62 12 -111q0 -125 -57.5 -183.5t-179.5 -58.5v110z" />
    <glyph glyph-name="uni021B" unicode="&#x21b;" horiz-adv-x="466" 
d="M140.5 39.5q-46.5 48.5 -46.5 147.5v193h-78v143h78v112l234 52v-164h94v-143h-94v-176q0 -22 16.5 -36.5t41.5 -14.5q18 0 36 3v-136q-64 -29 -140 -29q-95 0 -141.5 48.5zM133 -315q48 0 70.5 10.5t30 32.5t7.5 65h-107v135h224q12 -62 12 -111q0 -125 -57.5 -183.5
t-179.5 -58.5v110z" />
    <glyph glyph-name="uni022A" unicode="&#x22a;" horiz-adv-x="869" 
d="M211.5 38q-88.5 52 -134.5 143.5t-46 208.5q0 121 46 212t134 140.5t211 49.5t211 -49.5t134 -140.5t46 -212q0 -117 -46 -208.5t-134.5 -143.5t-210.5 -52t-210.5 52zM503 223q28 64 28 171q0 104 -27 164.5t-82 60.5t-82 -60.5t-27 -164.5q0 -107 28 -171t81 -64t81 64
zM189 894.5q-31 30.5 -31 76.5q0 45 31.5 74.5t79.5 29.5q49 0 79.5 -29.5t30.5 -75.5q0 -45 -31 -75.5t-79 -30.5q-49 0 -80 30.5zM489.5 894q-30.5 30 -30.5 76t31 75.5t79 29.5q49 0 79.5 -29.5t30.5 -76.5q0 -45 -31 -75t-79 -30q-49 0 -79.5 30zM203 1294h433v-146
h-433v146z" />
    <glyph glyph-name="uni022B" unicode="&#x22b;" horiz-adv-x="667" 
d="M178 23.5q-67 32.5 -104 95t-37 148.5q0 85 37 145t104 90.5t155 30.5q135 0 216 -69.5t81 -196.5q0 -86 -37 -148.5t-104 -95t-156 -32.5q-88 0 -155 32.5zM380.5 165.5q15.5 31.5 15.5 101.5q0 65 -15 94t-48 29q-32 0 -47 -29t-15 -94q0 -70 15.5 -101.5t46.5 -31.5
q32 0 47.5 31.5zM103 624.5q-31 30.5 -31 76.5q0 45 31.5 74.5t79.5 29.5q49 0 79.5 -29.5t30.5 -75.5q0 -45 -31 -75.5t-79 -30.5q-49 0 -80 30.5zM403.5 624q-30.5 30 -30.5 76t31 75.5t79 29.5q49 0 79.5 -29.5t30.5 -76.5q0 -45 -31 -75t-79 -30q-49 0 -79.5 30z
M117 1024h433v-146h-433v146z" />
    <glyph glyph-name="uni022C" unicode="&#x22c;" horiz-adv-x="869" 
d="M211.5 38q-88.5 52 -134.5 143.5t-46 208.5q0 121 46 212t134 140.5t211 49.5t211 -49.5t134 -140.5t46 -212q0 -117 -46 -208.5t-134.5 -143.5t-210.5 -52t-210.5 52zM503 223q28 64 28 171q0 104 -27 164.5t-82 60.5t-82 -60.5t-27 -164.5q0 -107 28 -171t81 -64t81 64
zM462.5 874q-21.5 5 -56.5 16q-21 7 -42.5 12.5t-35.5 5.5q-20 0 -36 -10t-35 -34l-55 36q28 69 59.5 101t72.5 32q24 0 46 -6t54 -17q49 -19 73 -19q21 0 38 10.5t36 34.5l55 -37q-28 -61 -56.5 -95.5t-77.5 -34.5q-18 0 -39.5 5zM203 1263h433v-146h-433v146z" />
    <glyph glyph-name="uni022D" unicode="&#x22d;" horiz-adv-x="667" 
d="M178 23.5q-67 32.5 -104 95t-37 148.5q0 85 37 145t104 90.5t155 30.5q135 0 216 -69.5t81 -196.5q0 -86 -37 -148.5t-104 -95t-156 -32.5q-88 0 -155 32.5zM380.5 165.5q15.5 31.5 15.5 101.5q0 65 -15 94t-48 29q-32 0 -47 -29t-15 -94q0 -70 15.5 -101.5t46.5 -31.5
q32 0 47.5 31.5zM376.5 604q-21.5 5 -56.5 16q-21 7 -42.5 12.5t-35.5 5.5q-20 0 -36 -10t-35 -34l-55 36q28 69 59.5 101t72.5 32q24 0 46 -6t54 -17q49 -19 73 -19q21 0 38 10.5t36 34.5l55 -37q-28 -61 -56.5 -95.5t-77.5 -34.5q-18 0 -39.5 5zM117 993h433v-146h-433
v146z" />
    <glyph glyph-name="uni0230" unicode="&#x230;" horiz-adv-x="869" 
d="M211.5 38q-88.5 52 -134.5 143.5t-46 208.5q0 121 46 212t134 140.5t211 49.5t211 -49.5t134 -140.5t46 -212q0 -117 -46 -208.5t-134.5 -143.5t-210.5 -52t-210.5 52zM503 223q28 64 28 171q0 104 -27 164.5t-82 60.5t-82 -60.5t-27 -164.5q0 -107 28 -171t81 -64t81 64
zM317.5 894.5q-36.5 28.5 -36.5 78.5q0 51 36.5 79.5t101.5 28.5t101.5 -28.5t36.5 -79.5q0 -50 -36.5 -78.5t-101.5 -28.5t-101.5 28.5zM203 1288h433v-146h-433v146z" />
    <glyph glyph-name="uni0231" unicode="&#x231;" horiz-adv-x="667" 
d="M178 23.5q-67 32.5 -104 95t-37 148.5q0 85 37 145t104 90.5t155 30.5q135 0 216 -69.5t81 -196.5q0 -86 -37 -148.5t-104 -95t-156 -32.5q-88 0 -155 32.5zM380.5 165.5q15.5 31.5 15.5 101.5q0 65 -15 94t-48 29q-32 0 -47 -29t-15 -94q0 -70 15.5 -101.5t46.5 -31.5
q32 0 47.5 31.5zM231.5 624.5q-36.5 28.5 -36.5 78.5q0 51 36.5 79.5t101.5 28.5t101.5 -28.5t36.5 -79.5q0 -50 -36.5 -78.5t-101.5 -28.5t-101.5 28.5zM117 1018h433v-146h-433v146z" />
    <glyph glyph-name="uni0232" unicode="&#x232;" horiz-adv-x="813" 
d="M204 0v175h75v143l-205 287h-55v172h416v-172h-44l89 -130l70 130h-71v172h311v-172h-88l-151 -261v-169h77v-175h-424zM202 1024h433v-146h-433v146z" />
    <glyph glyph-name="uni0233" unicode="&#x233;" horiz-adv-x="755" 
d="M195 -184v154h99l27 45l-228 357h-62v151h366v-151h-48l81 -150l74 150h-53v151h273v-151h-53l-213 -402h75v-154h-338zM159 755h433v-146h-433v146z" />
    <glyph glyph-name="uni0237" unicode="&#x237;" horiz-adv-x="377" 
d="M30 -35h6q26 0 43 6t18 25v376h-63v120l301 31v-460q0 -96 -33.5 -152t-100 -80.5t-171.5 -24.5v159z" />
    <glyph glyph-name="uni0259" unicode="&#x259;" horiz-adv-x="623" 
d="M439 499.5q67 -33.5 103 -95.5t36 -145q0 -82 -34.5 -142.5t-98 -93t-148.5 -32.5q-79 0 -139.5 31t-93.5 88t-33 133q0 18 8 50h305q0 46 -34.5 73.5t-83.5 27.5q-37 0 -82 -13t-90 -40l-7 3v131q49 28 102 43t132 15q91 0 158 -33.5zM219 207v-10q0 -35 16 -60t46 -25
q26 0 44.5 25.5t18.5 55.5v14h-125z" />
    <glyph glyph-name="uni02BC" unicode="&#x2bc;" horiz-adv-x="276" 
d="M34 593q43 0 64 7t27.5 22.5t6.5 44.5h-97v111h195q12 -61 12 -111q0 -82 -50.5 -120.5t-157.5 -38.5v85z" />
    <glyph glyph-name="circumflex" unicode="&#x2c6;" horiz-adv-x="461" 
d="M104 602l-75 49l133 184h132l134 -184l-75 -49l-124 120z" />
    <glyph glyph-name="caron" unicode="&#x2c7;" horiz-adv-x="450" 
d="M157 610l-134 184l76 49l124 -119l125 119l75 -49l-134 -184h-132z" />
    <glyph glyph-name="uni02C9" unicode="&#x2c9;" horiz-adv-x="575" 
d="M27 784h521v-146h-521v146z" />
    <glyph glyph-name="breve" unicode="&#x2d8;" horiz-adv-x="452" 
d="M80 654.5q-51 47.5 -51 136.5h123q0 -35 20.5 -56.5t53.5 -21.5t53.5 22t20.5 57h123q0 -90 -51.5 -137.5t-145.5 -47.5q-95 0 -146 47.5z" />
    <glyph glyph-name="dotaccent" unicode="&#x2d9;" horiz-adv-x="334" 
d="M67.5 624q-38.5 33 -38.5 89q0 55 38 87.5t98 32.5q62 0 101 -33t39 -87q0 -56 -40 -89t-100 -33q-59 0 -97.5 33z" />
    <glyph glyph-name="ring" unicode="&#x2da;" horiz-adv-x="326" 
d="M64 641q-36 36 -36 87q0 49 35.5 83.5t96.5 34.5q63 0 100 -34.5t37 -84.5q0 -32 -17 -60t-48 -45t-72 -17q-60 0 -96 36zM218.5 675.5q22.5 21.5 22.5 51.5q0 29 -22 49.5t-59 20.5q-36 0 -56.5 -20.5t-20.5 -49.5q0 -31 21 -52t56 -21q36 0 58.5 21.5z" />
    <glyph glyph-name="ogonek" unicode="&#x2db;" horiz-adv-x="257" 
d="M81 -210q-49 28 -49 84q0 32 19.5 62.5t61.5 63.5h86q-37 -35 -52.5 -61.5t-15.5 -53.5q0 -67 91 -68v-55h-10q-82 0 -131 28z" />
    <glyph glyph-name="tilde" unicode="&#x2dc;" horiz-adv-x="488" 
d="M461 749q-8 -12 -32 -52q-24 -45 -45 -67t-57 -22q-19 0 -41.5 8t-54.5 24q-29 14 -47 20.5t-31 6.5q-10 0 -22 -9t-49 -44l-56 36q12 17 32 53q26 45 46.5 67t54.5 22q23 0 45.5 -9t53.5 -25q28 -14 43.5 -20.5t30.5 -6.5q10 0 23.5 10t49.5 45zM159 792h-1h1z" />
    <glyph glyph-name="hungarumlaut" unicode="&#x2dd;" horiz-adv-x="494" 
d="M107 551l-81 29l75 306l147 -58zM263 551l-71 49l150 276l127 -93z" />
    <glyph glyph-name="gravecomb" unicode="&#x300;" 
d="M110 591l-271 153l90 129l232 -213z" />
    <glyph glyph-name="acutecomb" unicode="&#x301;" 
d="M-103 591l-51 69l232 213l90 -129z" />
    <glyph glyph-name="uni0302" unicode="&#x302;" 
d="M-125 565l-75 49l133 184h132l134 -184l-75 -49l-124 120z" />
    <glyph glyph-name="tildecomb" unicode="&#x303;" 
d="M217 749q-8 -12 -32 -52q-24 -45 -45 -67t-57 -22q-19 0 -41.5 8t-54.5 24q-29 14 -47 20.5t-31 6.5q-10 0 -22 -9t-49 -44l-56 36q12 17 32 53q26 45 46.5 67t54.5 22q23 0 45.5 -9t53.5 -25q28 -14 43.5 -20.5t30.5 -6.5q10 0 23.5 10t49.5 45zM-85 792h-1h1z" />
    <glyph glyph-name="uni0304" unicode="&#x304;" 
d="M-216 784h433v-146h-433v146z" />
    <glyph glyph-name="uni0306" unicode="&#x306;" 
d="M-146 635.5q-51 47.5 -51 136.5h123q0 -35 20.5 -56.5t53.5 -21.5t53.5 22t20.5 57h123q0 -90 -51.5 -137.5t-145.5 -47.5q-95 0 -146 47.5z" />
    <glyph glyph-name="uni0307" unicode="&#x307;" 
d="M-98.5 624q-39.5 33 -39.5 89q0 55 38.5 87.5t99.5 32.5t99.5 -33t38.5 -87q0 -56 -39.5 -89t-98.5 -33t-98.5 33z" />
    <glyph glyph-name="uni0308" unicode="&#x308;" 
d="M-230 629q-31 32 -31 81q0 48 31.5 79.5t79.5 31.5q49 0 79.5 -31.5t30.5 -80.5q0 -48 -31 -80t-79 -32q-49 0 -80 32zM71 628.5q-31 32.5 -31 81.5q0 48 31 79.5t79 31.5q49 0 79.5 -31.5t30.5 -80.5q0 -48 -31 -80.5t-78 -32.5q-49 0 -80 32.5z" />
    <glyph glyph-name="hookabovecomb" unicode="&#x309;" 
d="M82 791q32 -24 32 -73q0 -47 -23.5 -78.5t-75.5 -69.5l-48 44q25 19 36.5 34.5t11.5 36.5t-13.5 33.5t-38.5 12.5q-23 0 -49 -8l-12 76q44 16 96 16t84 -24z" />
    <glyph glyph-name="uni030A" unicode="&#x30a;" 
d="M-99 617q-36 36 -36 87q0 49 35.5 83.5t96.5 34.5q63 0 100 -34.5t37 -84.5q0 -32 -17 -60t-48 -45t-72 -17q-60 0 -96 36zM55.5 651.5q22.5 21.5 22.5 51.5q0 29 -22 49.5t-59 20.5q-36 0 -56.5 -20.5t-20.5 -49.5q0 -31 21 -52t56 -21q36 0 58.5 21.5z" />
    <glyph glyph-name="uni030B" unicode="&#x30b;" 
d="M-63 551l-81 29l75 306l147 -58zM93 551l-71 49l150 276l127 -93z" />
    <glyph glyph-name="uni030C" unicode="&#x30c;" 
d="M-66 583l-134 184l76 49l124 -119l125 119l75 -49l-134 -184h-132z" />
    <glyph glyph-name="uni030F" unicode="&#x30f;" 
d="M84 600l-140 276l146 59l75 -306zM-71 600l-207 232l127 93l158 -296z" />
    <glyph glyph-name="uni0311" unicode="&#x311;" 
d="M53 664.5q-21 21.5 -53 21.5t-53 -22t-21 -57h-123q0 89 50.5 137t143.5 48q96 0 148 -48t52 -137h-123q0 36 -21 57.5z" />
    <glyph glyph-name="uni0312" unicode="&#x312;" 
d="M118 844h1q-48 0 -70.5 -10.5t-30 -32.5t-7.5 -66h107v-134h-225q-12 62 -12 110q0 125 57.5 184t179.5 59v-110z" />
    <glyph glyph-name="uni031B" unicode="&#x31b;" 
d="M0 427v79q61 0 61 48q0 19 -12 43l119 20q18 -36 18 -77q0 -55 -36 -84t-95 -29h-55z" />
    <glyph glyph-name="dotbelowcomb" unicode="&#x323;" 
d="M-67.5 -201.5q-26.5 22.5 -26.5 60.5t26 60t68 22t68 -22.5t26 -59.5q0 -38 -26.5 -60.5t-67.5 -22.5t-67.5 22.5z" />
    <glyph glyph-name="uni0324" unicode="&#x324;" 
d="M-230 -205.5q-31 30.5 -31 76.5q0 45 31.5 74.5t79.5 29.5q49 0 79.5 -29.5t30.5 -75.5q0 -45 -31 -75.5t-79 -30.5q-49 0 -80 30.5zM70.5 -206q-30.5 30 -30.5 76t31 75.5t79 29.5q49 0 79.5 -29.5t30.5 -76.5q0 -45 -31 -75t-79 -30q-49 0 -79.5 30z" />
    <glyph glyph-name="uni0326" unicode="&#x326;" 
d="M-119 -315q48 0 70.5 10.5t30 32.5t7.5 65h-107v135h224q12 -62 12 -111q0 -125 -57.5 -183.5t-179.5 -58.5v110z" />
    <glyph glyph-name="uni0327" unicode="&#x327;" 
d="M-83 -183q48 1 70 15.5t22 44.5q0 42 -54 55v68h87v-60q65 -23 65 -80q0 -50 -50 -74t-129 -24h-11v55z" />
    <glyph glyph-name="uni0328" unicode="&#x328;" 
d="M-176 -210q-49 28 -49 84q0 32 19.5 62.5t61.5 63.5h86q-37 -35 -52.5 -61.5t-15.5 -53.5q0 -67 91 -68v-55h-10q-82 0 -131 28z" />
    <glyph glyph-name="uni032E" unicode="&#x32e;" 
d="M-146 -181.5q-51 47.5 -51 136.5h123q0 -35 20.5 -56.5t53.5 -21.5t53.5 22t20.5 57h123q0 -90 -51.5 -137.5t-145.5 -47.5q-95 0 -146 47.5z" />
    <glyph glyph-name="uni0331" unicode="&#x331;" 
d="M-216 -54h433v-146h-433v146z" />
    <glyph glyph-name="uni0335" unicode="&#x335;" 
d="M-168 193v132h336v-132h-336z" />
    <glyph glyph-name="Wgrave" unicode="&#x1e80;" horiz-adv-x="1262" 
d="M269 0l-170 605h-80v173h435v-173h-74l78 -277l127 450h200l123 -435l76 262h-68v173h322v-173h-82l-167 -605h-265l-94 345l-99 -345h-262zM779 845l-271 94l66 134l256 -159z" />
    <glyph glyph-name="wgrave" unicode="&#x1e81;" horiz-adv-x="1006" 
d="M212 0l-116 372h-65v151h346v-151h-46l45 -181l103 332h130l106 -338l49 187h-58v151h269v-151h-66l-111 -372h-232l-63 210l-74 -210h-217zM598 591l-271 153l90 129l232 -213z" />
    <glyph glyph-name="Wacute" unicode="&#x1e82;" horiz-adv-x="1262" 
d="M269 0l-170 605h-80v173h435v-173h-74l78 -277l127 450h200l123 -435l76 262h-68v173h322v-173h-82l-167 -605h-265l-94 345l-99 -345h-262zM559 845l-44 73l249 155l66 -134z" />
    <glyph glyph-name="wacute" unicode="&#x1e83;" horiz-adv-x="1006" 
d="M212 0l-116 372h-65v151h346v-151h-46l45 -181l103 332h130l106 -338l49 187h-58v151h269v-151h-66l-111 -372h-232l-63 210l-74 -210h-217zM385 591l-51 69l232 213l90 -129z" />
    <glyph glyph-name="Wdieresis" unicode="&#x1e84;" horiz-adv-x="1262" 
d="M269 0l-170 605h-80v173h435v-173h-74l78 -277l127 450h200l123 -435l76 262h-68v173h322v-173h-82l-167 -605h-265l-94 345l-99 -345h-262zM439 878.5q-31 30.5 -31 76.5q0 45 31.5 74.5t79.5 29.5q49 0 79.5 -29.5t30.5 -75.5q0 -45 -31 -75.5t-79 -30.5
q-49 0 -80 30.5zM739.5 878q-30.5 30 -30.5 76t31 75.5t79 29.5q49 0 79.5 -29.5t30.5 -76.5q0 -45 -31 -75t-79 -30q-49 0 -79.5 30z" />
    <glyph glyph-name="wdieresis" unicode="&#x1e85;" horiz-adv-x="1006" 
d="M212 0l-116 372h-65v151h346v-151h-46l45 -181l103 332h130l106 -338l49 187h-58v151h269v-151h-66l-111 -372h-232l-63 210l-74 -210h-217zM258 629q-31 32 -31 81q0 48 31.5 79.5t79.5 31.5q49 0 79.5 -31.5t30.5 -80.5q0 -48 -31 -80t-79 -32q-49 0 -80 32zM559 628.5
q-31 32.5 -31 81.5q0 48 31 79.5t79 31.5q49 0 79.5 -31.5t30.5 -80.5q0 -48 -31 -80.5t-78 -32.5q-49 0 -80 32.5z" />
    <glyph glyph-name="uni1E9E" unicode="&#x1e9e;" horiz-adv-x="839" 
d="M489 169q71 19 71 94q0 51 -46 76.5t-129 25.5v74l141 171q-39 12 -84 12t-69.5 -17.5t-24.5 -52.5l1 -380h73v-172h-386v172h62v361q0 138 76.5 198.5t228.5 60.5q86 0 169.5 -19t142.5 -47v-150l-115 -137q98 -8 146.5 -57.5t48.5 -146.5q0 -130 -79.5 -187.5
t-225.5 -57.5z" />
    <glyph glyph-name="uni1EA0" unicode="&#x1ea0;" horiz-adv-x="859" 
d="M16 0v172h77l134 433h-102v172h484l173 -605h77v-172h-437v172h63l-21 83h-176l-22 -83h93v-172h-343zM313 373h128l-57 238zM325.5 -201.5q-26.5 22.5 -26.5 60.5t26 60t68 22t68 -22.5t26 -59.5q0 -38 -26.5 -60.5t-67.5 -22.5t-67.5 22.5z" />
    <glyph glyph-name="uni1EA1" unicode="&#x1ea1;" horiz-adv-x="682" 
d="M128 10.5q-41 19.5 -65.5 55.5t-24.5 84q0 52 28.5 87.5t75.5 53t101 17.5q64 0 123 -19v22q0 39 -33 59.5t-89 20.5q-36 0 -83 -13t-78 -32l-14 6v142q59 21 120.5 30t114.5 9q297 0 297 -167v-219h46v-147h-250l-22 80q-21 -41 -65.5 -65t-91.5 -24q-49 0 -90 19.5z
M343 121.5q17 5.5 23 11.5v82q-7 1 -23.5 5.5t-28.5 4.5q-26 0 -41.5 -16t-15.5 -43q0 -20 14.5 -35t38.5 -15q16 0 33 5.5zM295.5 -201.5q-26.5 22.5 -26.5 60.5t26 60t68 22t68 -22.5t26 -59.5q0 -38 -26.5 -60.5t-67.5 -22.5t-67.5 22.5z" />
    <glyph glyph-name="uni1EA2" unicode="&#x1ea2;" horiz-adv-x="859" 
d="M16 0v172h77l134 433h-102v172h484l173 -605h77v-172h-437v172h63l-21 83h-176l-22 -83h93v-172h-343zM313 373h128l-57 238zM497 1045q32 -24 32 -73q0 -47 -23.5 -78.5t-75.5 -69.5l-48 44q25 19 36.5 34.5t11.5 36.5t-13.5 33.5t-38.5 12.5q-23 0 -49 -8l-12 76
q44 16 96 16t84 -24z" />
    <glyph glyph-name="uni1EA3" unicode="&#x1ea3;" horiz-adv-x="682" 
d="M128 10.5q-41 19.5 -65.5 55.5t-24.5 84q0 52 28.5 87.5t75.5 53t101 17.5q64 0 123 -19v22q0 39 -33 59.5t-89 20.5q-36 0 -83 -13t-78 -32l-14 6v142q59 21 120.5 30t114.5 9q297 0 297 -167v-219h46v-147h-250l-22 80q-21 -41 -65.5 -65t-91.5 -24q-49 0 -90 19.5z
M343 121.5q17 5.5 23 11.5v82q-7 1 -23.5 5.5t-28.5 4.5q-26 0 -41.5 -16t-15.5 -43q0 -20 14.5 -35t38.5 -15q16 0 33 5.5zM413 801q32 -24 32 -73q0 -47 -23.5 -78.5t-75.5 -69.5l-48 44q25 19 36.5 34.5t11.5 36.5t-13.5 33.5t-38.5 12.5q-23 0 -49 -8l-12 76
q44 16 96 16t84 -24z" />
    <glyph glyph-name="uni1EA4" unicode="&#x1ea4;" horiz-adv-x="859" 
d="M16 0v172h77l134 433h-102v172h484l173 -605h77v-172h-437v172h63l-21 83h-176l-22 -83h93v-172h-343zM313 373h128l-57 238zM639 980h-83l62 159h147zM525 819l75 49l-124 155h-132l-124 -155l75 -49l115 112z" />
    <glyph glyph-name="uni1EA5" unicode="&#x1ea5;" horiz-adv-x="682" 
d="M128 10.5q-41 19.5 -65.5 55.5t-24.5 84q0 52 28.5 87.5t75.5 53t101 17.5q64 0 123 -19v22q0 39 -33 59.5t-89 20.5q-36 0 -83 -13t-78 -32l-14 6v142q59 21 120.5 30t114.5 9q297 0 297 -167v-219h46v-147h-250l-22 80q-21 -41 -65.5 -65t-91.5 -24q-49 0 -90 19.5z
M343 121.5q17 5.5 23 11.5v82q-7 1 -23.5 5.5t-28.5 4.5q-26 0 -41.5 -16t-15.5 -43q0 -20 14.5 -35t38.5 -15q16 0 33 5.5zM560 736h-83l62 159h147zM446 575l75 49l-124 155h-132l-124 -155l75 -49l115 112z" />
    <glyph glyph-name="uni1EA6" unicode="&#x1ea6;" horiz-adv-x="859" 
d="M16 0v172h77l134 433h-102v172h484l173 -605h77v-172h-437v172h63l-21 83h-176l-22 -83h93v-172h-343zM313 373h128l-57 238zM603 980l-125 159h146l63 -159h-84zM525 819l75 49l-124 155h-132l-124 -155l75 -49l115 112z" />
    <glyph glyph-name="uni1EA7" unicode="&#x1ea7;" horiz-adv-x="682" 
d="M128 10.5q-41 19.5 -65.5 55.5t-24.5 84q0 52 28.5 87.5t75.5 53t101 17.5q64 0 123 -19v22q0 39 -33 59.5t-89 20.5q-36 0 -83 -13t-78 -32l-14 6v142q59 21 120.5 30t114.5 9q297 0 297 -167v-219h46v-147h-250l-22 80q-21 -41 -65.5 -65t-91.5 -24q-49 0 -90 19.5z
M343 121.5q17 5.5 23 11.5v82q-7 1 -23.5 5.5t-28.5 4.5q-26 0 -41.5 -16t-15.5 -43q0 -20 14.5 -35t38.5 -15q16 0 33 5.5zM524 736l-125 159h146l63 -159h-84zM446 575l75 49l-124 155h-132l-124 -155l75 -49l115 112z" />
    <glyph glyph-name="uni1EA8" unicode="&#x1ea8;" horiz-adv-x="859" 
d="M16 0v172h77l134 433h-102v172h484l173 -605h77v-172h-437v172h63l-21 83h-176l-22 -83h93v-172h-343zM313 373h128l-57 238zM658 1186.5q32 -24.5 32 -73.5q0 -46 -24 -78t-75 -70l-48 44q25 19 36.5 34.5t11.5 36.5q0 22 -13.5 34.5t-38.5 12.5q-20 0 -49 -9l-12 76
q46 17 96 17q52 0 84 -24.5zM525 819l75 49l-124 155h-132l-124 -155l75 -49l115 112z" />
    <glyph glyph-name="uni1EA9" unicode="&#x1ea9;" horiz-adv-x="682" 
d="M128 10.5q-41 19.5 -65.5 55.5t-24.5 84q0 52 28.5 87.5t75.5 53t101 17.5q64 0 123 -19v22q0 39 -33 59.5t-89 20.5q-36 0 -83 -13t-78 -32l-14 6v142q59 21 120.5 30t114.5 9q297 0 297 -167v-219h46v-147h-250l-22 80q-21 -41 -65.5 -65t-91.5 -24q-49 0 -90 19.5z
M343 121.5q17 5.5 23 11.5v82q-7 1 -23.5 5.5t-28.5 4.5q-26 0 -41.5 -16t-15.5 -43q0 -20 14.5 -35t38.5 -15q16 0 33 5.5zM579 942.5q32 -24.5 32 -73.5q0 -46 -24 -78t-75 -70l-48 44q25 19 36.5 34.5t11.5 36.5q0 22 -13.5 34.5t-38.5 12.5q-20 0 -49 -9l-12 76
q46 17 96 17q52 0 84 -24.5zM446 575l75 49l-124 155h-132l-124 -155l75 -49l115 112z" />
    <glyph glyph-name="uni1EAA" unicode="&#x1eaa;" horiz-adv-x="859" 
d="M16 0v172h77l134 433h-102v172h484l173 -605h77v-172h-437v172h63l-21 83h-176l-22 -83h93v-172h-343zM313 373h128l-57 238zM446.5 1079.5q-17.5 6.5 -44.5 20.5q-23 11 -38.5 17t-29.5 6q-21 0 -40.5 -10t-45.5 -38l-55 36q23 54 56 89t86 35q18 0 34.5 -6t43.5 -19
q22 -12 39.5 -18.5t35.5 -6.5q24 0 41 10.5t43 39.5l55 -37q-24 -54 -57.5 -89.5t-86.5 -35.5q-19 0 -36.5 6.5zM525 819l75 49l-124 155h-132l-124 -155l75 -49l115 112z" />
    <glyph glyph-name="uni1EAB" unicode="&#x1eab;" horiz-adv-x="682" 
d="M128 10.5q-41 19.5 -65.5 55.5t-24.5 84q0 52 28.5 87.5t75.5 53t101 17.5q64 0 123 -19v22q0 39 -33 59.5t-89 20.5q-36 0 -83 -13t-78 -32l-14 6v142q59 21 120.5 30t114.5 9q297 0 297 -167v-219h46v-147h-250l-22 80q-21 -41 -65.5 -65t-91.5 -24q-49 0 -90 19.5z
M343 121.5q17 5.5 23 11.5v82q-7 1 -23.5 5.5t-28.5 4.5q-26 0 -41.5 -16t-15.5 -43q0 -20 14.5 -35t38.5 -15q16 0 33 5.5zM367.5 835.5q-17.5 6.5 -44.5 20.5q-23 11 -38.5 17t-29.5 6q-21 0 -40.5 -10t-45.5 -38l-55 36q23 54 56 89t86 35q18 0 34.5 -6t43.5 -19
q22 -12 39.5 -18.5t35.5 -6.5q24 0 41 10.5t43 39.5l55 -37q-24 -54 -57.5 -89.5t-86.5 -35.5q-19 0 -36.5 6.5zM446 575l75 49l-124 155h-132l-124 -155l75 -49l115 112z" />
    <glyph glyph-name="uni1EAC" unicode="&#x1eac;" horiz-adv-x="859" 
d="M16 0v172h77l134 433h-102v172h484l173 -605h77v-172h-437v172h63l-21 83h-176l-22 -83h93v-172h-343zM313 373h128l-57 238zM325.5 -201.5q-26.5 22.5 -26.5 60.5t26 60t68 22t68 -22.5t26 -59.5q0 -38 -26.5 -60.5t-67.5 -22.5t-67.5 22.5zM285 838l-75 50l134 154h132
l134 -154l-75 -50l-125 105z" />
    <glyph glyph-name="uni1EAD" unicode="&#x1ead;" horiz-adv-x="682" 
d="M128 10.5q-41 19.5 -65.5 55.5t-24.5 84q0 52 28.5 87.5t75.5 53t101 17.5q64 0 123 -19v22q0 39 -33 59.5t-89 20.5q-36 0 -83 -13t-78 -32l-14 6v142q59 21 120.5 30t114.5 9q297 0 297 -167v-219h46v-147h-250l-22 80q-21 -41 -65.5 -65t-91.5 -24q-49 0 -90 19.5z
M343 121.5q17 5.5 23 11.5v82q-7 1 -23.5 5.5t-28.5 4.5q-26 0 -41.5 -16t-15.5 -43q0 -20 14.5 -35t38.5 -15q16 0 33 5.5zM295.5 -201.5q-26.5 22.5 -26.5 60.5t26 60t68 22t68 -22.5t26 -59.5q0 -38 -26.5 -60.5t-67.5 -22.5t-67.5 22.5zM206 575l-75 49l133 184h132
l134 -184l-75 -49l-124 120z" />
    <glyph glyph-name="uni1EAE" unicode="&#x1eae;" horiz-adv-x="859" 
d="M16 0v172h77l134 433h-102v172h484l173 -605h77v-172h-437v172h63l-21 83h-176l-22 -83h93v-172h-343zM313 373h128l-57 238zM288 1046l-25 82l260 107l42 -128zM264 876.5q-51 43.5 -51 125.5h123q0 -32 21 -51.5t53 -19.5t53 20.5t21 51.5h123q0 -83 -51.5 -126.5
t-145.5 -43.5q-95 0 -146 43.5z" />
    <glyph glyph-name="uni1EAF" unicode="&#x1eaf;" horiz-adv-x="682" 
d="M128 10.5q-41 19.5 -65.5 55.5t-24.5 84q0 52 28.5 87.5t75.5 53t101 17.5q64 0 123 -19v22q0 39 -33 59.5t-89 20.5q-36 0 -83 -13t-78 -32l-14 6v142q59 21 120.5 30t114.5 9q297 0 297 -167v-219h46v-147h-250l-22 80q-21 -41 -65.5 -65t-91.5 -24q-49 0 -90 19.5z
M343 121.5q17 5.5 23 11.5v82q-7 1 -23.5 5.5t-28.5 4.5q-26 0 -41.5 -16t-15.5 -43q0 -20 14.5 -35t38.5 -15q16 0 33 5.5zM209 802l-25 82l260 107l42 -128zM185 632.5q-51 43.5 -51 125.5h123q0 -32 21 -51.5t53 -19.5t53 20.5t21 51.5h123q0 -83 -51.5 -126.5
t-145.5 -43.5q-95 0 -146 43.5z" />
    <glyph glyph-name="uni1EB0" unicode="&#x1eb0;" horiz-adv-x="859" 
d="M16 0v172h77l134 433h-102v172h484l173 -605h77v-172h-437v172h63l-21 83h-176l-22 -83h93v-172h-343zM313 373h128l-57 238zM539 1046l-276 61l42 128l260 -107zM264 876.5q-51 43.5 -51 125.5h123q0 -32 21 -51.5t53 -19.5t53 20.5t21 51.5h123q0 -83 -51.5 -126.5
t-145.5 -43.5q-95 0 -146 43.5z" />
    <glyph glyph-name="uni1EB1" unicode="&#x1eb1;" horiz-adv-x="682" 
d="M128 10.5q-41 19.5 -65.5 55.5t-24.5 84q0 52 28.5 87.5t75.5 53t101 17.5q64 0 123 -19v22q0 39 -33 59.5t-89 20.5q-36 0 -83 -13t-78 -32l-14 6v142q59 21 120.5 30t114.5 9q297 0 297 -167v-219h46v-147h-250l-22 80q-21 -41 -65.5 -65t-91.5 -24q-49 0 -90 19.5z
M343 121.5q17 5.5 23 11.5v82q-7 1 -23.5 5.5t-28.5 4.5q-26 0 -41.5 -16t-15.5 -43q0 -20 14.5 -35t38.5 -15q16 0 33 5.5zM460 802l-276 61l42 128l260 -107zM185 632.5q-51 43.5 -51 125.5h123q0 -32 21 -51.5t53 -19.5t53 20.5t21 51.5h123q0 -83 -51.5 -126.5
t-145.5 -43.5q-95 0 -146 43.5z" />
    <glyph glyph-name="uni1EB2" unicode="&#x1eb2;" horiz-adv-x="859" 
d="M16 0v172h77l134 433h-102v172h484l173 -605h77v-172h-437v172h63l-21 83h-176l-22 -83h93v-172h-343zM313 373h128l-57 238zM482.5 1220.5q31.5 -24.5 31.5 -72.5q0 -47 -23.5 -78.5t-75.5 -69.5l-47 44q25 19 36 34.5t11 35.5q0 22 -13.5 34.5t-38.5 12.5q-20 0 -49 -9
l-11 77q46 16 95 16q53 0 84.5 -24.5zM264 876.5q-51 43.5 -51 125.5h123q0 -32 21 -51.5t53 -19.5t53 20.5t21 51.5h123q0 -83 -51.5 -126.5t-145.5 -43.5q-95 0 -146 43.5z" />
    <glyph glyph-name="uni1EB3" unicode="&#x1eb3;" horiz-adv-x="682" 
d="M128 10.5q-41 19.5 -65.5 55.5t-24.5 84q0 52 28.5 87.5t75.5 53t101 17.5q64 0 123 -19v22q0 39 -33 59.5t-89 20.5q-36 0 -83 -13t-78 -32l-14 6v142q59 21 120.5 30t114.5 9q297 0 297 -167v-219h46v-147h-250l-22 80q-21 -41 -65.5 -65t-91.5 -24q-49 0 -90 19.5z
M343 121.5q17 5.5 23 11.5v82q-7 1 -23.5 5.5t-28.5 4.5q-26 0 -41.5 -16t-15.5 -43q0 -20 14.5 -35t38.5 -15q16 0 33 5.5zM403.5 976.5q31.5 -24.5 31.5 -72.5q0 -47 -23.5 -78.5t-75.5 -69.5l-47 44q25 19 36 34.5t11 35.5q0 22 -13.5 34.5t-38.5 12.5q-20 0 -49 -9
l-11 77q46 16 95 16q53 0 84.5 -24.5zM185 632.5q-51 43.5 -51 125.5h123q0 -32 21 -51.5t53 -19.5t53 20.5t21 51.5h123q0 -83 -51.5 -126.5t-145.5 -43.5q-95 0 -146 43.5z" />
    <glyph glyph-name="uni1EB4" unicode="&#x1eb4;" horiz-adv-x="859" 
d="M16 0v172h77l134 433h-102v172h484l173 -605h77v-172h-437v172h63l-21 83h-176l-22 -83h93v-172h-343zM313 373h128l-57 238zM446.5 1064.5q-17.5 6.5 -44.5 20.5q-23 11 -38.5 17t-29.5 6q-21 0 -40.5 -10t-45.5 -38l-55 36q23 55 56 90t86 35q18 0 34.5 -6t43.5 -19
q22 -12 39.5 -18.5t35.5 -6.5q24 0 41 10.5t43 38.5l55 -36q-24 -54 -57.5 -90t-86.5 -36q-19 0 -36.5 6.5zM264 876.5q-51 43.5 -51 125.5h123q0 -32 21 -51.5t53 -19.5t53 20.5t21 51.5h123q0 -83 -51.5 -126.5t-145.5 -43.5q-95 0 -146 43.5z" />
    <glyph glyph-name="uni1EB5" unicode="&#x1eb5;" horiz-adv-x="682" 
d="M128 10.5q-41 19.5 -65.5 55.5t-24.5 84q0 52 28.5 87.5t75.5 53t101 17.5q64 0 123 -19v22q0 39 -33 59.5t-89 20.5q-36 0 -83 -13t-78 -32l-14 6v142q59 21 120.5 30t114.5 9q297 0 297 -167v-219h46v-147h-250l-22 80q-21 -41 -65.5 -65t-91.5 -24q-49 0 -90 19.5z
M343 121.5q17 5.5 23 11.5v82q-7 1 -23.5 5.5t-28.5 4.5q-26 0 -41.5 -16t-15.5 -43q0 -20 14.5 -35t38.5 -15q16 0 33 5.5zM367.5 820.5q-17.5 6.5 -44.5 20.5q-23 11 -38.5 17t-29.5 6q-21 0 -40.5 -10t-45.5 -38l-55 36q23 55 56 90t86 35q18 0 34.5 -6t43.5 -19
q22 -12 39.5 -18.5t35.5 -6.5q24 0 41 10.5t43 38.5l55 -36q-24 -54 -57.5 -90t-86.5 -36q-19 0 -36.5 6.5zM185 632.5q-51 43.5 -51 125.5h123q0 -32 21 -51.5t53 -19.5t53 20.5t21 51.5h123q0 -83 -51.5 -126.5t-145.5 -43.5q-95 0 -146 43.5z" />
    <glyph glyph-name="uni1EB6" unicode="&#x1eb6;" horiz-adv-x="859" 
d="M16 0v172h77l134 433h-102v172h484l173 -605h77v-172h-437v172h63l-21 83h-176l-22 -83h93v-172h-343zM313 373h128l-57 238zM325.5 -201.5q-26.5 22.5 -26.5 60.5t26 60t68 22t68 -22.5t26 -59.5q0 -38 -26.5 -60.5t-67.5 -22.5t-67.5 22.5zM264 891q-51 44 -51 126h123
q0 -32 20.5 -51.5t53.5 -19.5t53.5 19.5t20.5 51.5h123q0 -82 -51.5 -126t-145.5 -44q-95 0 -146 44z" />
    <glyph glyph-name="uni1EB7" unicode="&#x1eb7;" horiz-adv-x="682" 
d="M128 10.5q-41 19.5 -65.5 55.5t-24.5 84q0 52 28.5 87.5t75.5 53t101 17.5q64 0 123 -19v22q0 39 -33 59.5t-89 20.5q-36 0 -83 -13t-78 -32l-14 6v142q59 21 120.5 30t114.5 9q297 0 297 -167v-219h46v-147h-250l-22 80q-21 -41 -65.5 -65t-91.5 -24q-49 0 -90 19.5z
M343 121.5q17 5.5 23 11.5v82q-7 1 -23.5 5.5t-28.5 4.5q-26 0 -41.5 -16t-15.5 -43q0 -20 14.5 -35t38.5 -15q16 0 33 5.5zM295.5 -201.5q-26.5 22.5 -26.5 60.5t26 60t68 22t68 -22.5t26 -59.5q0 -38 -26.5 -60.5t-67.5 -22.5t-67.5 22.5zM185 645.5q-51 47.5 -51 136.5
h123q0 -35 20.5 -56.5t53.5 -21.5t53.5 22t20.5 57h123q0 -90 -51.5 -137.5t-145.5 -47.5q-95 0 -146 47.5z" />
    <glyph glyph-name="uni1EB8" unicode="&#x1eb8;" horiz-adv-x="708" 
d="M47 0v172h94v433h-94v172h656v-309h-125l-47 137h-140v-127h125v-128h-125v-178h140l47 159h125v-331h-656zM298.5 -201.5q-26.5 22.5 -26.5 60.5t26 60t68 22t68 -22.5t26 -59.5q0 -38 -26.5 -60.5t-67.5 -22.5t-67.5 22.5z" />
    <glyph glyph-name="uni1EB9" unicode="&#x1eb9;" horiz-adv-x="623" 
d="M170 24.5q-67 33.5 -103 95.5t-36 145q0 82 35 142.5t98.5 93t148.5 32.5q79 0 139 -31t93 -88t33 -133q0 -26 -8 -50h-304q0 -46 34.5 -73.5t83.5 -27.5q37 0 81.5 13t89.5 40l8 -3v-131q-50 -29 -103 -43.5t-132 -14.5q-91 0 -158 33.5zM391 317v10q0 35 -16 60t-47 25
q-26 0 -44 -25.5t-18 -55.5v-14h125zM227.5 -201.5q-26.5 22.5 -26.5 60.5t26 60t68 22t68 -22.5t26 -59.5q0 -38 -26.5 -60.5t-67.5 -22.5t-67.5 22.5z" />
    <glyph glyph-name="uni1EBA" unicode="&#x1eba;" horiz-adv-x="708" 
d="M47 0v172h94v433h-94v172h656v-309h-125l-47 137h-140v-127h125v-128h-125v-178h140l47 159h125v-331h-656zM448 1045q32 -24 32 -73q0 -47 -23.5 -78.5t-75.5 -69.5l-48 44q25 19 36.5 34.5t11.5 36.5t-13.5 33.5t-38.5 12.5q-23 0 -49 -8l-12 76q44 16 96 16t84 -24z
" />
    <glyph glyph-name="uni1EBB" unicode="&#x1ebb;" horiz-adv-x="623" 
d="M170 24.5q-67 33.5 -103 95.5t-36 145q0 82 35 142.5t98.5 93t148.5 32.5q79 0 139 -31t93 -88t33 -133q0 -26 -8 -50h-304q0 -46 34.5 -73.5t83.5 -27.5q37 0 81.5 13t89.5 40l8 -3v-131q-50 -29 -103 -43.5t-132 -14.5q-91 0 -158 33.5zM391 317v10q0 35 -16 60t-47 25
q-26 0 -44 -25.5t-18 -55.5v-14h125zM397 791q32 -24 32 -73q0 -47 -23.5 -78.5t-75.5 -69.5l-48 44q25 19 36.5 34.5t11.5 36.5t-13.5 33.5t-38.5 12.5q-23 0 -49 -8l-12 76q44 16 96 16t84 -24z" />
    <glyph glyph-name="uni1EBC" unicode="&#x1ebc;" horiz-adv-x="708" 
d="M47 0v172h94v433h-94v172h656v-309h-125l-47 137h-140v-127h125v-128h-125v-178h140l47 159h125v-331h-656zM425.5 858q-21.5 5 -56.5 16q-21 7 -42.5 12.5t-35.5 5.5q-20 0 -36 -10t-35 -34l-55 36q28 69 59.5 101t72.5 32q24 0 46 -6t54 -17q49 -19 73 -19
q21 0 38 10.5t36 34.5l55 -37q-28 -61 -56.5 -95.5t-77.5 -34.5q-18 0 -39.5 5z" />
    <glyph glyph-name="uni1EBD" unicode="&#x1ebd;" horiz-adv-x="623" 
d="M170 24.5q-67 33.5 -103 95.5t-36 145q0 82 35 142.5t98.5 93t148.5 32.5q79 0 139 -31t93 -88t33 -133q0 -26 -8 -50h-304q0 -46 34.5 -73.5t83.5 -27.5q37 0 81.5 13t89.5 40l8 -3v-131q-50 -29 -103 -43.5t-132 -14.5q-91 0 -158 33.5zM391 317v10q0 35 -16 60t-47 25
q-26 0 -44 -25.5t-18 -55.5v-14h125zM532 749q-8 -12 -32 -52q-24 -45 -45 -67t-57 -22q-19 0 -41.5 8t-54.5 24q-29 14 -47 20.5t-31 6.5q-10 0 -22 -9t-49 -44l-56 36q12 17 32 53q26 45 46.5 67t54.5 22q23 0 45.5 -9t53.5 -25q28 -14 43.5 -20.5t30.5 -6.5q10 0 23.5 10
t49.5 45zM230 792h-1h1z" />
    <glyph glyph-name="uni1EBE" unicode="&#x1ebe;" horiz-adv-x="708" 
d="M47 0v172h94v433h-94v172h656v-309h-125l-47 137h-140v-127h125v-128h-125v-178h140l47 159h125v-331h-656zM611 980h-83l62 159h147zM497 819l75 49l-124 155h-132l-124 -155l75 -49l115 112z" />
    <glyph glyph-name="uni1EBF" unicode="&#x1ebf;" horiz-adv-x="623" 
d="M170 24.5q-67 33.5 -103 95.5t-36 145q0 82 35 142.5t98.5 93t148.5 32.5q79 0 139 -31t93 -88t33 -133q0 -26 -8 -50h-304q0 -46 34.5 -73.5t83.5 -27.5q37 0 81.5 13t89.5 40l8 -3v-131q-50 -29 -103 -43.5t-132 -14.5q-91 0 -158 33.5zM391 317v10q0 35 -16 60t-47 25
q-26 0 -44 -25.5t-18 -55.5v-14h125zM544 726h-83l62 159h147zM430 565l75 49l-124 155h-132l-124 -155l75 -49l115 112z" />
    <glyph glyph-name="uni1EC0" unicode="&#x1ec0;" horiz-adv-x="708" 
d="M47 0v172h94v433h-94v172h656v-309h-125l-47 137h-140v-127h125v-128h-125v-178h140l47 159h125v-331h-656zM575 980l-125 159h146l63 -159h-84zM497 819l75 49l-124 155h-132l-124 -155l75 -49l115 112z" />
    <glyph glyph-name="uni1EC1" unicode="&#x1ec1;" horiz-adv-x="623" 
d="M170 24.5q-67 33.5 -103 95.5t-36 145q0 82 35 142.5t98.5 93t148.5 32.5q79 0 139 -31t93 -88t33 -133q0 -26 -8 -50h-304q0 -46 34.5 -73.5t83.5 -27.5q37 0 81.5 13t89.5 40l8 -3v-131q-50 -29 -103 -43.5t-132 -14.5q-91 0 -158 33.5zM391 317v10q0 35 -16 60t-47 25
q-26 0 -44 -25.5t-18 -55.5v-14h125zM508 726l-125 159h146l63 -159h-84zM430 565l75 49l-124 155h-132l-124 -155l75 -49l115 112z" />
    <glyph glyph-name="uni1EC2" unicode="&#x1ec2;" horiz-adv-x="708" 
d="M47 0v172h94v433h-94v172h656v-309h-125l-47 137h-140v-127h125v-128h-125v-178h140l47 159h125v-331h-656zM630 1186.5q32 -24.5 32 -73.5q0 -46 -24 -78t-75 -70l-48 44q25 19 36.5 34.5t11.5 36.5q0 22 -13.5 34.5t-38.5 12.5q-20 0 -49 -9l-12 76q46 17 96 17
q52 0 84 -24.5zM497 819l75 49l-124 155h-132l-124 -155l75 -49l115 112z" />
    <glyph glyph-name="uni1EC3" unicode="&#x1ec3;" horiz-adv-x="623" 
d="M170 24.5q-67 33.5 -103 95.5t-36 145q0 82 35 142.5t98.5 93t148.5 32.5q79 0 139 -31t93 -88t33 -133q0 -26 -8 -50h-304q0 -46 34.5 -73.5t83.5 -27.5q37 0 81.5 13t89.5 40l8 -3v-131q-50 -29 -103 -43.5t-132 -14.5q-91 0 -158 33.5zM391 317v10q0 35 -16 60t-47 25
q-26 0 -44 -25.5t-18 -55.5v-14h125zM563 932.5q32 -24.5 32 -73.5q0 -46 -24 -78t-75 -70l-48 44q25 19 36.5 34.5t11.5 36.5q0 22 -13.5 34.5t-38.5 12.5q-20 0 -49 -9l-12 76q46 17 96 17q52 0 84 -24.5zM430 565l75 49l-124 155h-132l-124 -155l75 -49l115 112z" />
    <glyph glyph-name="uni1EC4" unicode="&#x1ec4;" horiz-adv-x="708" 
d="M414 1053q-17 6 -40 18q-40 21 -61 21q-20 0 -37.5 -9t-40.5 -35l-50 33q21 50 51 81.5t78 31.5q16 0 31 -5.5t40 -17.5q21 -11 36.5 -17t31.5 -6q21 0 36.5 10t39.5 36l50 -34q-22 -49 -52.5 -81t-78.5 -32q-17 0 -34 6zM487 816l68 44l-113 141h-120l-113 -141l68 -44
l105 101zM47 0v172h94v433h-94v172h656v-309h-125l-47 137h-140v-127h125v-128h-125v-178h140l47 159h125v-331h-656z" />
    <glyph glyph-name="uni1EC5" unicode="&#x1ec5;" horiz-adv-x="623" 
d="M170 24.5q-67 33.5 -103 95.5t-36 145q0 82 35 142.5t98.5 93t148.5 32.5q79 0 139 -31t93 -88t33 -133q0 -26 -8 -50h-304q0 -46 34.5 -73.5t83.5 -27.5q37 0 81.5 13t89.5 40l8 -3v-131q-50 -29 -103 -43.5t-132 -14.5q-91 0 -158 33.5zM391 317v10q0 35 -16 60t-47 25
q-26 0 -44 -25.5t-18 -55.5v-14h125zM351.5 825.5q-17.5 6.5 -44.5 20.5q-23 11 -38.5 17t-29.5 6q-21 0 -40.5 -10t-45.5 -38l-55 36q23 54 56 89t86 35q18 0 34.5 -6t43.5 -19q22 -12 39.5 -18.5t35.5 -6.5q24 0 41 10.5t43 39.5l55 -37q-24 -54 -57.5 -89.5t-86.5 -35.5
q-19 0 -36.5 6.5zM430 565l75 49l-124 155h-132l-124 -155l75 -49l115 112z" />
    <glyph glyph-name="uni1EC6" unicode="&#x1ec6;" horiz-adv-x="708" 
d="M47 0v172h94v433h-94v172h656v-309h-125l-47 137h-140v-127h125v-128h-125v-178h140l47 159h125v-331h-656zM298.5 -201.5q-26.5 22.5 -26.5 60.5t26 60t68 22t68 -22.5t26 -59.5q0 -38 -26.5 -60.5t-67.5 -22.5t-67.5 22.5zM257 838l-75 50l134 154h132l134 -154
l-75 -50l-125 105z" />
    <glyph glyph-name="uni1EC7" unicode="&#x1ec7;" horiz-adv-x="623" 
d="M170 24.5q-67 33.5 -103 95.5t-36 145q0 82 35 142.5t98.5 93t148.5 32.5q79 0 139 -31t93 -88t33 -133q0 -26 -8 -50h-304q0 -46 34.5 -73.5t83.5 -27.5q37 0 81.5 13t89.5 40l8 -3v-131q-50 -29 -103 -43.5t-132 -14.5q-91 0 -158 33.5zM391 317v10q0 35 -16 60t-47 25
q-26 0 -44 -25.5t-18 -55.5v-14h125zM227.5 -201.5q-26.5 22.5 -26.5 60.5t26 60t68 22t68 -22.5t26 -59.5q0 -38 -26.5 -60.5t-67.5 -22.5t-67.5 22.5zM190 565l-75 49l133 184h132l134 -184l-75 -49l-124 120z" />
    <glyph glyph-name="uni1EC8" unicode="&#x1ec8;" horiz-adv-x="502" 
d="M63 0v172h78v433h-78v172h406v-172h-78v-433h78v-172h-406zM357 1045q32 -24 32 -73q0 -47 -23.5 -78.5t-75.5 -69.5l-48 44q25 19 36.5 34.5t11.5 36.5t-13.5 33.5t-38.5 12.5q-23 0 -49 -8l-12 76q44 16 96 16t84 -24z" />
    <glyph glyph-name="uni1EC9" unicode="&#x1ec9;" horiz-adv-x="396" 
d="M44 0v146h40v219h-43v127l278 31v-377h41v-146h-316zM284 791q32 -24 32 -73q0 -47 -23.5 -78.5t-75.5 -69.5l-48 44q25 19 36.5 34.5t11.5 36.5t-13.5 33.5t-38.5 12.5q-23 0 -49 -8l-12 76q44 16 96 16t84 -24z" />
    <glyph glyph-name="uni1ECA" unicode="&#x1eca;" horiz-adv-x="502" 
d="M63 0v172h78v433h-78v172h406v-172h-78v-433h78v-172h-406zM198.5 -201.5q-26.5 22.5 -26.5 60.5t26 60t68 22t68 -22.5t26 -59.5q0 -38 -26.5 -60.5t-67.5 -22.5t-67.5 22.5z" />
    <glyph glyph-name="uni1ECB" unicode="&#x1ecb;" horiz-adv-x="434" 
d="M121.5 603q-39.5 29 -39.5 83t39.5 82t101.5 28t101 -27.5t39 -82.5q0 -54 -40 -83t-101 -29t-100.5 29zM42 0v147h63v225h-63v120l297 31v-376h63v-147h-360zM154.5 -201.5q-26.5 22.5 -26.5 60.5t26 60t68 22t68 -22.5t26 -59.5q0 -38 -26.5 -60.5t-67.5 -22.5
t-67.5 22.5z" />
    <glyph glyph-name="uni1ECC" unicode="&#x1ecc;" horiz-adv-x="869" 
d="M211.5 38q-88.5 52 -134.5 143.5t-46 208.5q0 121 46 212t134 140.5t211 49.5t211 -49.5t134 -140.5t46 -212q0 -117 -46 -208.5t-134.5 -143.5t-210.5 -52t-210.5 52zM503 223q28 64 28 171q0 104 -27 164.5t-82 60.5t-82 -60.5t-27 -164.5q0 -107 28 -171t81 -64t81 64
zM354.5 -201.5q-26.5 22.5 -26.5 60.5t26 60t68 22t68 -22.5t26 -59.5q0 -38 -26.5 -60.5t-67.5 -22.5t-67.5 22.5z" />
    <glyph glyph-name="uni1ECD" unicode="&#x1ecd;" horiz-adv-x="667" 
d="M178 23.5q-67 32.5 -104 95t-37 148.5q0 85 37 145t104 90.5t155 30.5q135 0 216 -69.5t81 -196.5q0 -86 -37 -148.5t-104 -95t-156 -32.5q-88 0 -155 32.5zM380.5 165.5q15.5 31.5 15.5 101.5q0 65 -15 94t-48 29q-32 0 -47 -29t-15 -94q0 -70 15.5 -101.5t46.5 -31.5
q32 0 47.5 31.5zM265.5 -205.5q-26.5 22.5 -26.5 60.5t26 60t68 22t68 -22.5t26 -59.5q0 -38 -26.5 -60.5t-67.5 -22.5t-67.5 22.5z" />
    <glyph glyph-name="uni1ECE" unicode="&#x1ece;" horiz-adv-x="869" 
d="M211.5 38q-88.5 52 -134.5 143.5t-46 208.5q0 121 46 212t134 140.5t211 49.5t211 -49.5t134 -140.5t46 -212q0 -117 -46 -208.5t-134.5 -143.5t-210.5 -52t-210.5 52zM503 223q28 64 28 171q0 104 -27 164.5t-82 60.5t-82 -60.5t-27 -164.5q0 -107 28 -171t81 -64t81 64
zM517 1045q32 -24 32 -73q0 -47 -23.5 -78.5t-75.5 -69.5l-48 44q25 19 36.5 34.5t11.5 36.5t-13.5 33.5t-38.5 12.5q-23 0 -49 -8l-12 76q44 16 96 16t84 -24z" />
    <glyph glyph-name="uni1ECF" unicode="&#x1ecf;" horiz-adv-x="667" 
d="M178 23.5q-67 32.5 -104 95t-37 148.5q0 85 37 145t104 90.5t155 30.5q135 0 216 -69.5t81 -196.5q0 -86 -37 -148.5t-104 -95t-156 -32.5q-88 0 -155 32.5zM380.5 165.5q15.5 31.5 15.5 101.5q0 65 -15 94t-48 29q-32 0 -47 -29t-15 -94q0 -70 15.5 -101.5t46.5 -31.5
q32 0 47.5 31.5zM415 791q32 -24 32 -73q0 -47 -23.5 -78.5t-75.5 -69.5l-48 44q25 19 36.5 34.5t11.5 36.5t-13.5 33.5t-38.5 12.5q-23 0 -49 -8l-12 76q44 16 96 16t84 -24z" />
    <glyph glyph-name="uni1ED0" unicode="&#x1ed0;" horiz-adv-x="869" 
d="M211.5 38q-88.5 52 -134.5 143.5t-46 208.5q0 121 46 212t134 140.5t211 49.5t211 -49.5t134 -140.5t46 -212q0 -117 -46 -208.5t-134.5 -143.5t-210.5 -52t-210.5 52zM503 223q28 64 28 171q0 104 -27 164.5t-82 60.5t-82 -60.5t-27 -164.5q0 -107 28 -171t81 -64t81 64
zM648 996h-83l62 159h147zM534 835l75 49l-124 155h-132l-124 -155l75 -49l115 112z" />
    <glyph glyph-name="uni1ED1" unicode="&#x1ed1;" horiz-adv-x="667" 
d="M178 23.5q-67 32.5 -104 95t-37 148.5q0 85 37 145t104 90.5t155 30.5q135 0 216 -69.5t81 -196.5q0 -86 -37 -148.5t-104 -95t-156 -32.5q-88 0 -155 32.5zM380.5 165.5q15.5 31.5 15.5 101.5q0 65 -15 94t-48 29q-32 0 -47 -29t-15 -94q0 -70 15.5 -101.5t46.5 -31.5
q32 0 47.5 31.5zM562 726h-83l62 159h147zM448 565l75 49l-124 155h-132l-124 -155l75 -49l115 112z" />
    <glyph glyph-name="uni1ED2" unicode="&#x1ed2;" horiz-adv-x="869" 
d="M211.5 38q-88.5 52 -134.5 143.5t-46 208.5q0 121 46 212t134 140.5t211 49.5t211 -49.5t134 -140.5t46 -212q0 -117 -46 -208.5t-134.5 -143.5t-210.5 -52t-210.5 52zM503 223q28 64 28 171q0 104 -27 164.5t-82 60.5t-82 -60.5t-27 -164.5q0 -107 28 -171t81 -64t81 64
zM612 996l-125 159h146l63 -159h-84zM534 835l75 49l-124 155h-132l-124 -155l75 -49l115 112z" />
    <glyph glyph-name="uni1ED3" unicode="&#x1ed3;" horiz-adv-x="667" 
d="M178 23.5q-67 32.5 -104 95t-37 148.5q0 85 37 145t104 90.5t155 30.5q135 0 216 -69.5t81 -196.5q0 -86 -37 -148.5t-104 -95t-156 -32.5q-88 0 -155 32.5zM380.5 165.5q15.5 31.5 15.5 101.5q0 65 -15 94t-48 29q-32 0 -47 -29t-15 -94q0 -70 15.5 -101.5t46.5 -31.5
q32 0 47.5 31.5zM526 726l-125 159h146l63 -159h-84zM448 565l75 49l-124 155h-132l-124 -155l75 -49l115 112z" />
    <glyph glyph-name="uni1ED4" unicode="&#x1ed4;" horiz-adv-x="869" 
d="M211.5 38q-88.5 52 -134.5 143.5t-46 208.5q0 121 46 212t134 140.5t211 49.5t211 -49.5t134 -140.5t46 -212q0 -117 -46 -208.5t-134.5 -143.5t-210.5 -52t-210.5 52zM503 223q28 64 28 171q0 104 -27 164.5t-82 60.5t-82 -60.5t-27 -164.5q0 -107 28 -171t81 -64t81 64
zM667 1202.5q32 -24.5 32 -73.5q0 -46 -24 -78t-75 -70l-48 44q25 19 36.5 34.5t11.5 36.5q0 22 -13.5 34.5t-38.5 12.5q-20 0 -49 -9l-12 76q46 17 96 17q52 0 84 -24.5zM534 835l75 49l-124 155h-132l-124 -155l75 -49l115 112z" />
    <glyph glyph-name="uni1ED5" unicode="&#x1ed5;" horiz-adv-x="667" 
d="M178 23.5q-67 32.5 -104 95t-37 148.5q0 85 37 145t104 90.5t155 30.5q135 0 216 -69.5t81 -196.5q0 -86 -37 -148.5t-104 -95t-156 -32.5q-88 0 -155 32.5zM380.5 165.5q15.5 31.5 15.5 101.5q0 65 -15 94t-48 29q-32 0 -47 -29t-15 -94q0 -70 15.5 -101.5t46.5 -31.5
q32 0 47.5 31.5zM581 932.5q32 -24.5 32 -73.5q0 -46 -24 -78t-75 -70l-48 44q25 19 36.5 34.5t11.5 36.5q0 22 -13.5 34.5t-38.5 12.5q-20 0 -49 -9l-12 76q46 17 96 17q52 0 84 -24.5zM448 565l75 49l-124 155h-132l-124 -155l75 -49l115 112z" />
    <glyph glyph-name="uni1ED6" unicode="&#x1ed6;" horiz-adv-x="869" 
d="M211.5 38q-88.5 52 -134.5 143.5t-46 208.5q0 121 46 212t134 140.5t211 49.5t211 -49.5t134 -140.5t46 -212q0 -117 -46 -208.5t-134.5 -143.5t-210.5 -52t-210.5 52zM503 223q28 64 28 171q0 104 -27 164.5t-82 60.5t-82 -60.5t-27 -164.5q0 -107 28 -171t81 -64t81 64
zM455.5 1095.5q-17.5 6.5 -44.5 20.5q-23 11 -38.5 17t-29.5 6q-21 0 -40.5 -10t-45.5 -38l-55 36q23 54 56 89t86 35q18 0 34.5 -6t43.5 -19q22 -12 39.5 -18.5t35.5 -6.5q24 0 41 10.5t43 39.5l55 -37q-24 -54 -57.5 -89.5t-86.5 -35.5q-19 0 -36.5 6.5zM534 835l75 49
l-124 155h-132l-124 -155l75 -49l115 112z" />
    <glyph glyph-name="uni1ED7" unicode="&#x1ed7;" horiz-adv-x="667" 
d="M178 23.5q-67 32.5 -104 95t-37 148.5q0 85 37 145t104 90.5t155 30.5q135 0 216 -69.5t81 -196.5q0 -86 -37 -148.5t-104 -95t-156 -32.5q-88 0 -155 32.5zM380.5 165.5q15.5 31.5 15.5 101.5q0 65 -15 94t-48 29q-32 0 -47 -29t-15 -94q0 -70 15.5 -101.5t46.5 -31.5
q32 0 47.5 31.5zM369.5 825.5q-17.5 6.5 -44.5 20.5q-23 11 -38.5 17t-29.5 6q-21 0 -40.5 -10t-45.5 -38l-55 36q23 54 56 89t86 35q18 0 34.5 -6t43.5 -19q22 -12 39.5 -18.5t35.5 -6.5q24 0 41 10.5t43 39.5l55 -37q-24 -54 -57.5 -89.5t-86.5 -35.5q-19 0 -36.5 6.5z
M448 565l75 49l-124 155h-132l-124 -155l75 -49l115 112z" />
    <glyph glyph-name="uni1ED8" unicode="&#x1ed8;" horiz-adv-x="869" 
d="M211.5 38q-88.5 52 -134.5 143.5t-46 208.5q0 121 46 212t134 140.5t211 49.5t211 -49.5t134 -140.5t46 -212q0 -117 -46 -208.5t-134.5 -143.5t-210.5 -52t-210.5 52zM503 223q28 64 28 171q0 104 -27 164.5t-82 60.5t-82 -60.5t-27 -164.5q0 -107 28 -171t81 -64t81 64
zM354.5 -201.5q-26.5 22.5 -26.5 60.5t26 60t68 22t68 -22.5t26 -59.5q0 -38 -26.5 -60.5t-67.5 -22.5t-67.5 22.5zM294 854l-75 50l134 154h132l134 -154l-75 -50l-125 105z" />
    <glyph glyph-name="uni1ED9" unicode="&#x1ed9;" horiz-adv-x="667" 
d="M178 23.5q-67 32.5 -104 95t-37 148.5q0 85 37 145t104 90.5t155 30.5q135 0 216 -69.5t81 -196.5q0 -86 -37 -148.5t-104 -95t-156 -32.5q-88 0 -155 32.5zM380.5 165.5q15.5 31.5 15.5 101.5q0 65 -15 94t-48 29q-32 0 -47 -29t-15 -94q0 -70 15.5 -101.5t46.5 -31.5
q32 0 47.5 31.5zM265.5 -205.5q-26.5 22.5 -26.5 60.5t26 60t68 22t68 -22.5t26 -59.5q0 -38 -26.5 -60.5t-67.5 -22.5t-67.5 22.5zM208 565l-75 49l133 184h132l134 -184l-75 -49l-124 120z" />
    <glyph glyph-name="uni1EDA" unicode="&#x1eda;" horiz-adv-x="869" 
d="M808.5 714q-36.5 -30 -96.5 -32q49 -53 75 -127.5t26 -164.5q0 -117 -46 -208.5t-134.5 -143.5t-210.5 -52t-210.5 52t-134.5 143.5t-46 208.5q0 121 46 212t134 140.5t211 49.5q42 0 72.5 -4t69.5 -11q51 -11 83 -11q61 0 61 48q0 21 -11 43l131 20q17 -37 17 -78
q0 -55 -36.5 -85zM503 223q28 64 28 171q0 104 -27 164.5t-82 60.5t-82 -60.5t-27 -164.5q0 -107 28 -171t81 -64t81 64zM312 860l-44 73l249 155l66 -134z" />
    <glyph glyph-name="uni1EDB" unicode="&#x1edb;" horiz-adv-x="730" 
d="M695 466q-33 -39 -88 -39q-16 0 -25 1q48 -65 48 -161q0 -86 -37 -148.5t-104 -95t-156 -32.5q-88 0 -155 32.5t-104 95t-37 148.5q0 85 37 145t104 90.5t155 30.5q41 0 69 -4t67 -12q48 -11 80 -11q27 0 40.5 22t13.5 50q0 19 -12 43l119 20q18 -36 18 -78
q0 -58 -33 -97zM380.5 165.5q15.5 31.5 15.5 101.5q0 65 -15 94t-48 29q-32 0 -47 -29t-15 -94q0 -70 15.5 -101.5t46.5 -31.5q32 0 47.5 31.5zM273 591l-51 69l232 213l90 -129z" />
    <glyph glyph-name="uni1EDC" unicode="&#x1edc;" horiz-adv-x="869" 
d="M808.5 714q-36.5 -30 -96.5 -32q49 -53 75 -127.5t26 -164.5q0 -117 -46 -208.5t-134.5 -143.5t-210.5 -52t-210.5 52t-134.5 143.5t-46 208.5q0 121 46 212t134 140.5t211 49.5q42 0 72.5 -4t69.5 -11q51 -11 83 -11q61 0 61 48q0 21 -11 43l131 20q17 -37 17 -78
q0 -55 -36.5 -85zM503 223q28 64 28 171q0 104 -27 164.5t-82 60.5t-82 -60.5t-27 -164.5q0 -107 28 -171t81 -64t81 64zM532 860l-271 94l66 134l256 -159z" />
    <glyph glyph-name="uni1EDD" unicode="&#x1edd;" horiz-adv-x="730" 
d="M695 466q-33 -39 -88 -39q-16 0 -25 1q48 -65 48 -161q0 -86 -37 -148.5t-104 -95t-156 -32.5q-88 0 -155 32.5t-104 95t-37 148.5q0 85 37 145t104 90.5t155 30.5q41 0 69 -4t67 -12q48 -11 80 -11q27 0 40.5 22t13.5 50q0 19 -12 43l119 20q18 -36 18 -78
q0 -58 -33 -97zM380.5 165.5q15.5 31.5 15.5 101.5q0 65 -15 94t-48 29q-32 0 -47 -29t-15 -94q0 -70 15.5 -101.5t46.5 -31.5q32 0 47.5 31.5zM443 591l-271 153l90 129l232 -213z" />
    <glyph glyph-name="uni1EDE" unicode="&#x1ede;" horiz-adv-x="869" 
d="M808.5 714q-36.5 -30 -96.5 -32q49 -53 75 -127.5t26 -164.5q0 -117 -46 -208.5t-134.5 -143.5t-210.5 -52t-210.5 52t-134.5 143.5t-46 208.5q0 121 46 212t134 140.5t211 49.5q42 0 72.5 -4t69.5 -11q51 -11 83 -11q61 0 61 48q0 21 -11 43l131 20q17 -37 17 -78
q0 -55 -36.5 -85zM503 223q28 64 28 171q0 104 -27 164.5t-82 60.5t-82 -60.5t-27 -164.5q0 -107 28 -171t81 -64t81 64zM504 1045q32 -24 32 -73q0 -47 -23.5 -78.5t-75.5 -69.5l-48 44q25 19 36.5 34.5t11.5 36.5t-13.5 33.5t-38.5 12.5q-23 0 -49 -8l-12 76q44 16 96 16
t84 -24z" />
    <glyph glyph-name="uni1EDF" unicode="&#x1edf;" horiz-adv-x="730" 
d="M695 466q-33 -39 -88 -39q-16 0 -25 1q48 -65 48 -161q0 -86 -37 -148.5t-104 -95t-156 -32.5q-88 0 -155 32.5t-104 95t-37 148.5q0 85 37 145t104 90.5t155 30.5q41 0 69 -4t67 -12q48 -11 80 -11q27 0 40.5 22t13.5 50q0 19 -12 43l119 20q18 -36 18 -78
q0 -58 -33 -97zM380.5 165.5q15.5 31.5 15.5 101.5q0 65 -15 94t-48 29q-32 0 -47 -29t-15 -94q0 -70 15.5 -101.5t46.5 -31.5q32 0 47.5 31.5zM415 791q32 -24 32 -73q0 -47 -23.5 -78.5t-75.5 -69.5l-48 44q25 19 36.5 34.5t11.5 36.5t-13.5 33.5t-38.5 12.5q-23 0 -49 -8
l-12 76q44 16 96 16t84 -24z" />
    <glyph glyph-name="uni1EE0" unicode="&#x1ee0;" horiz-adv-x="869" 
d="M808.5 714q-36.5 -30 -96.5 -32q49 -53 75 -127.5t26 -164.5q0 -117 -46 -208.5t-134.5 -143.5t-210.5 -52t-210.5 52t-134.5 143.5t-46 208.5q0 121 46 212t134 140.5t211 49.5q42 0 72.5 -4t69.5 -11q51 -11 83 -11q61 0 61 48q0 21 -11 43l131 20q17 -37 17 -78
q0 -55 -36.5 -85zM503 223q28 64 28 171q0 104 -27 164.5t-82 60.5t-82 -60.5t-27 -164.5q0 -107 28 -171t81 -64t81 64zM465.5 873q-21.5 5 -56.5 16q-21 7 -42.5 12.5t-35.5 5.5q-20 0 -36 -10t-35 -34l-55 36q28 69 59.5 101t72.5 32q24 0 46 -6t54 -17q49 -19 73 -19
q21 0 38 10.5t36 34.5l55 -37q-28 -61 -56.5 -95.5t-77.5 -34.5q-18 0 -39.5 5z" />
    <glyph glyph-name="uni1EE1" unicode="&#x1ee1;" horiz-adv-x="730" 
d="M695 466q-33 -39 -88 -39q-16 0 -25 1q48 -65 48 -161q0 -86 -37 -148.5t-104 -95t-156 -32.5q-88 0 -155 32.5t-104 95t-37 148.5q0 85 37 145t104 90.5t155 30.5q41 0 69 -4t67 -12q48 -11 80 -11q27 0 40.5 22t13.5 50q0 19 -12 43l119 20q18 -36 18 -78
q0 -58 -33 -97zM380.5 165.5q15.5 31.5 15.5 101.5q0 65 -15 94t-48 29q-32 0 -47 -29t-15 -94q0 -70 15.5 -101.5t46.5 -31.5q32 0 47.5 31.5zM550 749q-8 -12 -32 -52q-24 -45 -45 -67t-57 -22q-19 0 -41.5 8t-54.5 24q-29 14 -47 20.5t-31 6.5q-10 0 -22 -9t-49 -44
l-56 36q12 17 32 53q26 45 46.5 67t54.5 22q23 0 45.5 -9t53.5 -25q28 -14 43.5 -20.5t30.5 -6.5q10 0 23.5 10t49.5 45zM248 792h-1h1z" />
    <glyph glyph-name="uni1EE2" unicode="&#x1ee2;" horiz-adv-x="869" 
d="M808.5 714q-36.5 -30 -96.5 -32q49 -53 75 -127.5t26 -164.5q0 -117 -46 -208.5t-134.5 -143.5t-210.5 -52t-210.5 52t-134.5 143.5t-46 208.5q0 121 46 212t134 140.5t211 49.5q42 0 72.5 -4t69.5 -11q51 -11 83 -11q61 0 61 48q0 21 -11 43l131 20q17 -37 17 -78
q0 -55 -36.5 -85zM503 223q28 64 28 171q0 104 -27 164.5t-82 60.5t-82 -60.5t-27 -164.5q0 -107 28 -171t81 -64t81 64zM354.5 -201.5q-26.5 22.5 -26.5 60.5t26 60t68 22t68 -22.5t26 -59.5q0 -38 -26.5 -60.5t-67.5 -22.5t-67.5 22.5z" />
    <glyph glyph-name="uni1EE3" unicode="&#x1ee3;" horiz-adv-x="730" 
d="M695 466q-33 -39 -88 -39q-16 0 -25 1q48 -65 48 -161q0 -86 -37 -148.5t-104 -95t-156 -32.5q-88 0 -155 32.5t-104 95t-37 148.5q0 85 37 145t104 90.5t155 30.5q41 0 69 -4t67 -12q48 -11 80 -11q27 0 40.5 22t13.5 50q0 19 -12 43l119 20q18 -36 18 -78
q0 -58 -33 -97zM380.5 165.5q15.5 31.5 15.5 101.5q0 65 -15 94t-48 29q-32 0 -47 -29t-15 -94q0 -70 15.5 -101.5t46.5 -31.5q32 0 47.5 31.5zM265.5 -205.5q-26.5 22.5 -26.5 60.5t26 60t68 22t68 -22.5t26 -59.5q0 -38 -26.5 -60.5t-67.5 -22.5t-67.5 22.5z" />
    <glyph glyph-name="uni1EE4" unicode="&#x1ee4;" horiz-adv-x="826" 
d="M175.5 77q-76.5 91 -76.5 267v261h-79v172h424v-172h-72v-327q0 -48 23.5 -78.5t73.5 -30.5q42 0 66.5 25t24.5 68v343h-80v172h319v-172h-75v-336q0 -140 -82 -211.5t-216 -71.5q-174 0 -250.5 91zM360.5 -201.5q-26.5 22.5 -26.5 60.5t26 60t68 22t68 -22.5t26 -59.5
q0 -38 -26.5 -60.5t-67.5 -22.5t-67.5 22.5z" />
    <glyph glyph-name="uni1EE5" unicode="&#x1ee5;" horiz-adv-x="751" 
d="M94 188v184h-63v132l297 29v-345q0 -19 14 -35t33 -16q22 0 34.5 15t12.5 37v183h-47v132l281 29v-386h63v-147h-297v76q-26 -40 -69 -62.5t-102 -22.5q-157 0 -157 197zM337.5 -201.5q-26.5 22.5 -26.5 60.5t26 60t68 22t68 -22.5t26 -59.5q0 -38 -26.5 -60.5
t-67.5 -22.5t-67.5 22.5z" />
    <glyph glyph-name="uni1EE6" unicode="&#x1ee6;" horiz-adv-x="826" 
d="M175.5 77q-76.5 91 -76.5 267v261h-79v172h424v-172h-72v-327q0 -48 23.5 -78.5t73.5 -30.5q42 0 66.5 25t24.5 68v343h-80v172h319v-172h-75v-336q0 -140 -82 -211.5t-216 -71.5q-174 0 -250.5 91zM486 1045q32 -24 32 -73q0 -47 -23.5 -78.5t-75.5 -69.5l-48 44
q25 19 36.5 34.5t11.5 36.5t-13.5 33.5t-38.5 12.5q-23 0 -49 -8l-12 76q44 16 96 16t84 -24z" />
    <glyph glyph-name="uni1EE7" unicode="&#x1ee7;" horiz-adv-x="751" 
d="M94 188v184h-63v132l297 29v-345q0 -19 14 -35t33 -16q22 0 34.5 15t12.5 37v183h-47v132l281 29v-386h63v-147h-297v76q-26 -40 -69 -62.5t-102 -22.5q-157 0 -157 197zM445 791q32 -24 32 -73q0 -47 -23.5 -78.5t-75.5 -69.5l-48 44q25 19 36.5 34.5t11.5 36.5
t-13.5 33.5t-38.5 12.5q-23 0 -49 -8l-12 76q44 16 96 16t84 -24z" />
    <glyph glyph-name="uni1EE8" unicode="&#x1ee8;" horiz-adv-x="930" 
d="M883 705.5q-28 -42.5 -70.5 -63t-88.5 -20.5v-353q0 -140 -82 -211.5t-216 -71.5q-174 0 -250.5 91t-76.5 267v261h-79v172h424v-172h-72v-327q0 -48 23.5 -78.5t73.5 -30.5q42 0 66.5 25t24.5 68v343h-80v172h249q23 0 32.5 12t9.5 37q0 19 -11 43l134 25q17 -40 17 -83
q0 -63 -28 -105.5zM296 845l-44 73l249 155l66 -134z" />
    <glyph glyph-name="uni1EE9" unicode="&#x1ee9;" horiz-adv-x="783" 
d="M656 450v-303h63v-147h-297v76q-26 -40 -69 -62.5t-102 -22.5q-157 0 -157 197v184h-63v132l297 29v-345q0 -19 14 -35t33 -16q22 0 34.5 15t12.5 37v183h-47v132l237 25q31 3 45.5 14t14.5 34q0 21 -11 43l119 20q17 -34 17 -77q0 -55 -35.5 -84t-94.5 -29h-11zM260 591
l-51 69l232 213l90 -129z" />
    <glyph glyph-name="uni1EEA" unicode="&#x1eea;" horiz-adv-x="930" 
d="M883 705.5q-28 -42.5 -70.5 -63t-88.5 -20.5v-353q0 -140 -82 -211.5t-216 -71.5q-174 0 -250.5 91t-76.5 267v261h-79v172h424v-172h-72v-327q0 -48 23.5 -78.5t73.5 -30.5q42 0 66.5 25t24.5 68v343h-80v172h249q23 0 32.5 12t9.5 37q0 19 -11 43l134 25q17 -40 17 -83
q0 -63 -28 -105.5zM516 845l-271 94l66 134l256 -159z" />
    <glyph glyph-name="uni1EEB" unicode="&#x1eeb;" horiz-adv-x="783" 
d="M656 450v-303h63v-147h-297v76q-26 -40 -69 -62.5t-102 -22.5q-157 0 -157 197v184h-63v132l297 29v-345q0 -19 14 -35t33 -16q22 0 34.5 15t12.5 37v183h-47v132l237 25q31 3 45.5 14t14.5 34q0 21 -11 43l119 20q17 -34 17 -77q0 -55 -35.5 -84t-94.5 -29h-11zM473 591
l-271 153l90 129l232 -213z" />
    <glyph glyph-name="uni1EEC" unicode="&#x1eec;" horiz-adv-x="930" 
d="M883 705.5q-28 -42.5 -70.5 -63t-88.5 -20.5v-353q0 -140 -82 -211.5t-216 -71.5q-174 0 -250.5 91t-76.5 267v261h-79v172h424v-172h-72v-327q0 -48 23.5 -78.5t73.5 -30.5q42 0 66.5 25t24.5 68v343h-80v172h249q23 0 32.5 12t9.5 37q0 19 -11 43l134 25q17 -40 17 -83
q0 -63 -28 -105.5zM488 1045q32 -24 32 -73q0 -47 -23.5 -78.5t-75.5 -69.5l-48 44q25 19 36.5 34.5t11.5 36.5t-13.5 33.5t-38.5 12.5q-23 0 -49 -8l-12 76q44 16 96 16t84 -24z" />
    <glyph glyph-name="uni1EED" unicode="&#x1eed;" horiz-adv-x="783" 
d="M656 450v-303h63v-147h-297v76q-26 -40 -69 -62.5t-102 -22.5q-157 0 -157 197v184h-63v132l297 29v-345q0 -19 14 -35t33 -16q22 0 34.5 15t12.5 37v183h-47v132l237 25q31 3 45.5 14t14.5 34q0 21 -11 43l119 20q17 -34 17 -77q0 -55 -35.5 -84t-94.5 -29h-11zM445 791
q32 -24 32 -73q0 -47 -23.5 -78.5t-75.5 -69.5l-48 44q25 19 36.5 34.5t11.5 36.5t-13.5 33.5t-38.5 12.5q-23 0 -49 -8l-12 76q44 16 96 16t84 -24z" />
    <glyph glyph-name="uni1EEE" unicode="&#x1eee;" horiz-adv-x="930" 
d="M883 705.5q-28 -42.5 -70.5 -63t-88.5 -20.5v-353q0 -140 -82 -211.5t-216 -71.5q-174 0 -250.5 91t-76.5 267v261h-79v172h424v-172h-72v-327q0 -48 23.5 -78.5t73.5 -30.5q42 0 66.5 25t24.5 68v343h-80v172h249q23 0 32.5 12t9.5 37q0 19 -11 43l134 25q17 -40 17 -83
q0 -63 -28 -105.5zM449.5 858q-21.5 5 -56.5 16q-21 7 -42.5 12.5t-35.5 5.5q-20 0 -36 -10t-35 -34l-55 36q28 69 59.5 101t72.5 32q24 0 46 -6t54 -17q49 -19 73 -19q21 0 38 10.5t36 34.5l55 -37q-28 -61 -56.5 -95.5t-77.5 -34.5q-18 0 -39.5 5z" />
    <glyph glyph-name="uni1EEF" unicode="&#x1eef;" horiz-adv-x="783" 
d="M656 450v-303h63v-147h-297v76q-26 -40 -69 -62.5t-102 -22.5q-157 0 -157 197v184h-63v132l297 29v-345q0 -19 14 -35t33 -16q22 0 34.5 15t12.5 37v183h-47v132l237 25q31 3 45.5 14t14.5 34q0 21 -11 43l119 20q17 -34 17 -77q0 -55 -35.5 -84t-94.5 -29h-11zM580 749
q-8 -12 -32 -52q-24 -45 -45 -67t-57 -22q-19 0 -41.5 8t-54.5 24q-29 14 -47 20.5t-31 6.5q-10 0 -22 -9t-49 -44l-56 36q12 17 32 53q26 45 46.5 67t54.5 22q23 0 45.5 -9t53.5 -25q28 -14 43.5 -20.5t30.5 -6.5q10 0 23.5 10t49.5 45zM278 792h-1h1z" />
    <glyph glyph-name="uni1EF0" unicode="&#x1ef0;" horiz-adv-x="930" 
d="M883 705.5q-28 -42.5 -70.5 -63t-88.5 -20.5v-353q0 -140 -82 -211.5t-216 -71.5q-174 0 -250.5 91t-76.5 267v261h-79v172h424v-172h-72v-327q0 -48 23.5 -78.5t73.5 -30.5q42 0 66.5 25t24.5 68v343h-80v172h249q23 0 32.5 12t9.5 37q0 19 -11 43l134 25q17 -40 17 -83
q0 -63 -28 -105.5zM360.5 -201.5q-26.5 22.5 -26.5 60.5t26 60t68 22t68 -22.5t26 -59.5q0 -38 -26.5 -60.5t-67.5 -22.5t-67.5 22.5z" />
    <glyph glyph-name="uni1EF1" unicode="&#x1ef1;" horiz-adv-x="783" 
d="M656 450v-303h63v-147h-297v76q-26 -40 -69 -62.5t-102 -22.5q-157 0 -157 197v184h-63v132l297 29v-345q0 -19 14 -35t33 -16q22 0 34.5 15t12.5 37v183h-47v132l237 25q31 3 45.5 14t14.5 34q0 21 -11 43l119 20q17 -34 17 -77q0 -55 -35.5 -84t-94.5 -29h-11z
M337.5 -201.5q-26.5 22.5 -26.5 60.5t26 60t68 22t68 -22.5t26 -59.5q0 -38 -26.5 -60.5t-67.5 -22.5t-67.5 22.5z" />
    <glyph glyph-name="Ygrave" unicode="&#x1ef2;" horiz-adv-x="813" 
d="M204 0v175h75v143l-205 287h-55v172h416v-172h-44l89 -130l70 130h-71v172h311v-172h-88l-151 -261v-169h77v-175h-424zM528 845l-271 94l66 134l256 -159z" />
    <glyph glyph-name="ygrave" unicode="&#x1ef3;" horiz-adv-x="755" 
d="M195 -184v154h99l27 45l-228 357h-62v151h366v-151h-48l81 -150l74 150h-53v151h273v-151h-53l-213 -402h75v-154h-338zM485 591l-271 153l90 129l232 -213z" />
    <glyph glyph-name="uni1EF4" unicode="&#x1ef4;" horiz-adv-x="813" 
d="M204 0v175h75v143l-205 287h-55v172h416v-172h-44l89 -130l70 130h-71v172h311v-172h-88l-151 -261v-169h77v-175h-424zM348.5 -201.5q-26.5 22.5 -26.5 60.5t26 60t68 22t68 -22.5t26 -59.5q0 -38 -26.5 -60.5t-67.5 -22.5t-67.5 22.5z" />
    <glyph glyph-name="uni1EF5" unicode="&#x1ef5;" horiz-adv-x="788" 
d="M195 -184v154h99l27 45l-228 357h-62v151h366v-151h-48l81 -150l74 150h-53v151h273v-151h-53l-213 -402h75v-154h-338zM608 -179.5q-34 29.5 -34 77.5t33 76.5t86 28.5t86 -28.5t33 -76.5q0 -49 -34 -78t-85 -29t-85 29.5z" />
    <glyph glyph-name="uni1EF6" unicode="&#x1ef6;" horiz-adv-x="813" 
d="M204 0v175h75v143l-205 287h-55v172h416v-172h-44l89 -130l70 130h-71v172h311v-172h-88l-151 -261v-169h77v-175h-424zM500 1045q32 -24 32 -73q0 -47 -23.5 -78.5t-75.5 -69.5l-48 44q25 19 36.5 34.5t11.5 36.5t-13.5 33.5t-38.5 12.5q-23 0 -49 -8l-12 76
q44 16 96 16t84 -24z" />
    <glyph glyph-name="uni1EF7" unicode="&#x1ef7;" horiz-adv-x="755" 
d="M195 -184v154h99l27 45l-228 357h-62v151h366v-151h-48l81 -150l74 150h-53v151h273v-151h-53l-213 -402h75v-154h-338zM457 791q32 -24 32 -73q0 -47 -23.5 -78.5t-75.5 -69.5l-48 44q25 19 36.5 34.5t11.5 36.5t-13.5 33.5t-38.5 12.5q-23 0 -49 -8l-12 76q44 16 96 16
t84 -24z" />
    <glyph glyph-name="uni1EF8" unicode="&#x1ef8;" horiz-adv-x="813" 
d="M204 0v175h75v143l-205 287h-55v172h416v-172h-44l89 -130l70 130h-71v172h311v-172h-88l-151 -261v-169h77v-175h-424zM461.5 858q-21.5 5 -56.5 16q-21 7 -42.5 12.5t-35.5 5.5q-20 0 -36 -10t-35 -34l-55 36q28 69 59.5 101t72.5 32q24 0 46 -6t54 -17q49 -19 73 -19
q21 0 38 10.5t36 34.5l55 -37q-28 -61 -56.5 -95.5t-77.5 -34.5q-18 0 -39.5 5z" />
    <glyph glyph-name="uni1EF9" unicode="&#x1ef9;" horiz-adv-x="755" 
d="M195 -184v154h99l27 45l-228 357h-62v151h366v-151h-48l81 -150l74 150h-53v151h273v-151h-53l-213 -402h75v-154h-338zM592 749q-8 -12 -32 -52q-24 -45 -45 -67t-57 -22q-19 0 -41.5 8t-54.5 24q-29 14 -47 20.5t-31 6.5q-10 0 -22 -9t-49 -44l-56 36q12 17 32 53
q26 45 46.5 67t54.5 22q23 0 45.5 -9t53.5 -25q28 -14 43.5 -20.5t30.5 -6.5q10 0 23.5 10t49.5 45zM290 792h-1h1z" />
    <glyph glyph-name="endash" unicode="&#x2013;" horiz-adv-x="382" 
d="M33 262v146h316v-146h-316z" />
    <glyph glyph-name="emdash" unicode="&#x2014;" horiz-adv-x="638" 
d="M33 262v146h571v-146h-571z" />
    <glyph glyph-name="quoteleft" unicode="&#x2018;" horiz-adv-x="318" 
d="M25 545q0 136 63 199q65 63 198 63v-110l1 -1q-23 0 -38 -3q-17 -3 -27 -10q-9 -7 -16 -15q-6 -7 -9 -22t-3 -26q-1 -7 -1 -31h93v-179h-249q-12 75 -12 135z" />
    <glyph glyph-name="quoteright" unicode="&#x2019;" horiz-adv-x="317" 
d="M31 504q22 0 38 3t26 10t16 16q6 8 9 22l4 26v32h-92v179h249q11 -70 11 -135q0 -136 -63 -199t-198 -63v109z" />
    <glyph glyph-name="quotesinglbase" unicode="&#x201a;" horiz-adv-x="290" 
d="M17 -109q22 0 38 3q17 3 26 10t16 15q6 9 9 23q3 15 3 26q1 7 1 32h-92v178h249q11 -79 11 -135q0 -136 -63 -199q-64 -63 -198 -63v110z" />
    <glyph glyph-name="quotedblleft" unicode="&#x201c;" horiz-adv-x="626" 
d="M333 545q0 136 63 199q65 63 198 63v-110l1 -1q-23 0 -38 -3q-17 -3 -27 -10q-9 -7 -16 -15q-6 -7 -9 -22t-3 -26q-1 -7 -1 -31h93v-179h-249q-12 75 -12 135zM25 544q0 136 64 199q63 63 198 63v-111q-22 0 -38 -3q-18 -3 -26 -10q-12 -9 -16 -15q-6 -7 -9 -22l-4 -26
v-31h92v-179h-249q-12 75 -12 135z" />
    <glyph glyph-name="quotedblright" unicode="&#x201d;" horiz-adv-x="635" 
d="M349 504q22 0 38 3q17 3 26 10q10 7 16 16q6 8 9 22q3 15 3 26q1 7 1 32h-92v179h249q11 -80 11 -135q0 -136 -63 -199q-64 -63 -198 -63v109zM31 503q22 0 37 3q17 3 27 10t16 16q6 8 9 22q3 15 3 26q1 7 1 32h-93v179h249q12 -76 12 -135q0 -136 -63 -199
q-64 -63 -198 -63v109z" />
    <glyph glyph-name="quotedblbase" unicode="&#x201e;" horiz-adv-x="603" 
d="M17 -110q22 0 38 3q17 3 26 10q7 5 16 16q6 7 9 22t3 26q1 8 1 32h-92v179h249q11 -80 11 -136q0 -135 -63 -198q-64 -63 -198 -63v109zM328 -109h-1q22 0 38 3q17 3 27 10q12 10 16 15q6 9 9 23l3 26v32h-92v178h249q12 -75 12 -135q0 -136 -64 -199q-63 -63 -197 -63
v110z" />
    <glyph glyph-name="dagger" unicode="&#x2020;" horiz-adv-x="443" 
d="M414 587v-129l-109 6l13 -464h-193l13 464l-109 -6v129l108 -6l-12 211h193l-12 -211z" />
    <glyph glyph-name="daggerdbl" unicode="&#x2021;" horiz-adv-x="443" 
d="M414 617v-129l-105 6l9 -91l-10 -104l106 6v-129l-107 6l11 -182h-193l11 182l-107 -6v129l106 -5l-10 103l9 90l-105 -5v129l107 -6l-11 181h193l-11 -181z" />
    <glyph glyph-name="bullet" unicode="&#x2022;" horiz-adv-x="439" 
d="M146 81q-33 12 -60 36q-26 21 -43 61q-15 38 -15 84l-2 5q0 45 16 78q17 37 43 57q28 22 61 34t70 12t72 -12q36 -12 63 -34t45 -59q17 -39 17 -81q0 -45 -17 -84q-16 -37 -44 -62q-30 -24 -62 -35q-33 -13 -72 -13q-35 0 -72 13z" />
    <glyph glyph-name="ellipsis" unicode="&#x2026;" horiz-adv-x="293" 
d="M289 109q0 -55 -40 -89q-40 -33 -100 -33l-1 -1q-57 0 -97 34q-38 32 -38 89q0 56 38 87q38 33 97 33q63 0 102 -33t39 -87z" />
    <glyph glyph-name="perthousand" unicode="&#x2030;" horiz-adv-x="1847" 
d="M128.5 297q-54.5 34 -83.5 97t-29 148q0 81 29.5 141t84 92t127.5 32q74 0 129.5 -32t85 -92t29.5 -141q0 -85 -30 -148t-85 -97t-130 -34q-73 0 -127.5 34zM446 0l167 792h246l-167 -792h-246zM293.5 459.5q11.5 25.5 11.5 82.5q0 52 -11.5 75.5t-36.5 23.5
q-24 -1 -35.5 -24.5t-11.5 -74.5q0 -56 11.5 -82t35.5 -26q25 0 36.5 25.5zM921.5 19q-54.5 34 -83.5 97t-29 148q0 80 29.5 140t84 92t127.5 32q74 0 129.5 -32t85 -92t29.5 -140q0 -85 -30 -148t-85 -97t-130 -34q-73 0 -127.5 34zM1454 19q-54 34 -83.5 97t-29.5 148
q0 80 29.5 140t84 92t127.5 32q74 0 129.5 -32t85.5 -92t30 -140q0 -85 -30 -148t-85.5 -97t-130.5 -34q-73 0 -127 34zM1086.5 181.5q11.5 25.5 11.5 82.5q0 51 -11.5 74.5t-34.5 23.5q-25 0 -37 -23t-12 -75q0 -57 11.5 -82.5t35.5 -25.5q25 0 36.5 25.5zM1619 181.5
q11 25.5 11 82.5q0 51 -11 74.5t-34 23.5q-26 0 -37.5 -22.5t-11.5 -75.5q0 -57 11 -82.5t36 -25.5t36 25.5z" />
    <glyph glyph-name="guilsinglleft" unicode="&#x2039;" horiz-adv-x="349" 
d="M235 -2l-208 197v132l208 197l93 -109l-154 -154l154 -154z" />
    <glyph glyph-name="guilsinglright" unicode="&#x203a;" horiz-adv-x="348" 
d="M115 -2l-94 109l154 154l-154 154l94 109l208 -197v-132z" />
    <glyph glyph-name="fraction" unicode="&#x2044;" horiz-adv-x="27" 
d="M-195 -1l239 793h178l-245 -793h-172z" />
    <glyph glyph-name="uni2074" unicode="&#x2074;" horiz-adv-x="388" 
d="M136 393v82h36v38h-152v77l158 187h126v-191h65v-73h-66v-38h35v-82h-202zM172 586v68l-54 -67z" />
    <glyph glyph-name="colonmonetary" unicode="&#x20a1;" horiz-adv-x="755" 
d="M654 577l-48 -354q48 17 86 44l11 -9v-208q-55 -32 -124 -48l-14 -103h-111l12 88q-14 -1 -41 -1q-19 0 -28 1l-12 -88h-112l15 108q-116 37 -186.5 138t-70.5 258q0 108 42.5 197t125.5 143.5t199 60.5l12 86h111l-12 -89q32 -3 68 -11l14 100h111l-19 -137l20 -11v-179
l-11 -9q-14 11 -38 23zM557 611q-28 6 -61 6q-12 0 -17 -1l-56 -404q37 -8 73 -8h5zM299.5 517q-26.5 -45 -26.5 -104q0 -96 56 -150l44 325q-47 -26 -73.5 -71z" />
    <glyph glyph-name="franc" unicode="&#x20a3;" horiz-adv-x="700" 
d="M47 792h641v-304h-141l-31 132h-125v-137h109v-125h-109v-46h93v-85h-93v-47h93v-180h-437v180h94v47h-94v85h94v308h-94v172z" />
    <glyph glyph-name="lira" unicode="&#x20a4;" horiz-adv-x="603" 
d="M583 166v-152q-69 -23 -133 -23q-124 0 -124 83q-51 -84 -167 -84q-55 0 -138 24v152q27 -7 46 -7q33 0 43.5 23t10.5 72v8h-60v88h60v60h-60v88h60v91q0 40 17 74t46 58q40 31 100 47.5t127 16.5q92 0 155 -22v-152q-60 6 -101 6q-55 0 -83.5 -16t-28.5 -56v-47h124v-88
h-124v-60h124v-88h-124v-84q64 -17 144 -17q31 0 86 5z" />
    <glyph glyph-name="uni20A6" unicode="&#x20a6;" horiz-adv-x="904" 
d="M877 620h-77v-94h77v-85h-77v-61h77v-85h-77v-295h-296l-139 295h-92v-115h78v-180h-311v180h79v115h-77v85h77v61h-77v85h77v95h-77v171h359l136 -266h107v94h-78v172h311v-172zM273 380h53l-53 112v-112zM644 316v125h-64z" />
    <glyph glyph-name="peseta" unicode="&#x20a7;" horiz-adv-x="1643" 
d="M40 180h76v440h-74v172h357q140 0 211.5 -65t71.5 -184q0 -135 -70 -195t-208 -60q-38 0 -73 4v-112h71v-180h-362v180zM826 39.5q-43 48.5 -43 147.5v193h-64v143h64v112l205 36v-148h94v-143h-94v-176q0 -22 16.5 -36.5t40.5 -14.5q19 0 37 3v-136q-57 -29 -125 -29
q-88 0 -131 48.5zM351 447q111 0 111 91q0 39 -24.5 60.5t-65.5 21.5h-40v-173h19zM1233 44l-16 -44h-90v193h109q6 -36 34.5 -66t64.5 -30q14 0 25 8t11 26t-20.5 32.5t-62.5 34.5q-50 25 -82 45.5t-55.5 54t-23.5 80.5q0 75 51.5 115t142.5 40q50 0 89.5 -16t63.5 -41
l6 57h86v-166h-93q-12 36 -34.5 56.5t-51.5 20.5q-18 0 -28.5 -8.5t-10.5 -23.5q0 -23 21.5 -38.5t67.5 -36.5q48 -22 80.5 -42t55.5 -55t23 -86q0 -52 -25.5 -89t-67.5 -55.5t-92 -18.5q-100 0 -178 53z" />
    <glyph glyph-name="uni20A9" unicode="&#x20a9;" horiz-adv-x="1262" 
d="M1238 620h-82l-26 -96h94v-85h-117l-16 -59h133v-85h-156l-79 -295h-265l-94 345l-99 -345h-262l-81 295h-154v85h131l-16 59h-115v85h91l-26 96h-80v172h435v-172h-74l26 -96h106l73 268h200l73 -268h100l26 96h-68v172h322v-172zM488 439h-60l30 -111zM908 343l26 96
h-52z" />
    <glyph glyph-name="dong" unicode="&#x20ab;" horiz-adv-x="739" 
d="M645 606v-459h62v-147h-301v63q-24 -32 -61 -51.5t-83 -20.5q-71 0 -122.5 37.5t-78 101t-26.5 139.5q0 70 27 130.5t77.5 97t118.5 36.5q50 0 85.5 -16t66.5 -48v137h-210v109h210v77h235v-77h62v-109h-62zM410 356q-11 13 -30 23.5t-40 10.5q-38 0 -62 -31t-24 -90
q0 -60 22 -97.5t64 -37.5q23 0 41.5 11t28.5 26v185zM50 -194v138h657v-138h-657z" />
    <glyph glyph-name="Euro" unicode="&#x20ac;" horiz-adv-x="732" 
d="M177 60q-78 70 -108 192h-59v110h43v31v30h-43v110h58q31 129 110.5 200.5t193.5 71.5q60 0 103 -10.5t72 -38.5l16 35h152l1 -309h-146q2 63 -28.5 104.5t-85.5 41.5q-67 0 -89 -97h89v-109h-101v-62h101v-109h-88q23 -84 88 -84q62 0 89 45.5t25 100.5h146l-1 -309
h-152l-16 35q-29 -28 -72 -38.5t-103 -10.5q-117 0 -195 70z" />
    <glyph glyph-name="uni20AD" unicode="&#x20ad;" horiz-adv-x="886" 
d="M771 175h67v-175h-226l-221 315v-315h-328v180h78v174h-78v119h78v147h-78v172h390v-172h-62v-184l129 184v172h304v-172h-67l-111 -147h129v-119h-131z" />
    <glyph glyph-name="uni20B1" unicode="&#x20b1;" horiz-adv-x="867" 
d="M786 521q0 -25 -3 -48h74v-51h-83q-26 -93 -103.5 -135.5t-208.5 -42.5q-40 0 -73 5v-69h71v-180h-420v180h76v242h-76v51h76v48h-76v50h76v49h-74v172h416q150 0 230.5 -55t94.5 -166h74v-50h-71zM390 571h118q-11 24 -31 36.5t-46 12.5h-41v-49zM520 521h-130v-48h129
q2 20 2 33q0 10 -1 15zM503 422h-113v-48h20q67 0 93 48z" />
    <glyph glyph-name="uni20B2" unicode="&#x20b2;" horiz-adv-x="841" 
d="M797 68q-66 -35 -141 -55.5t-151 -25.5v-88h-111v91q-103 12 -185 59.5t-130 134t-48 210.5q0 116 40.5 207t122 145.5t200.5 59.5v84h111v-95q60 -17 91 -55l16 52h169v-288h-151q-13 54 -48 85t-77 39v-442q52 2 88 17v69h-50v145h254v-349zM334 287.5
q21 -50.5 60 -76.5v393q-38 -26 -59.5 -76t-21.5 -120t21 -120.5z" />
    <glyph glyph-name="uni20B5" unicode="&#x20b5;" horiz-adv-x="768" 
d="M563 473v16q0 45 -15.5 79t-45.5 50v-414q59 1 109.5 21t80.5 42l11 -9v-208q-83 -49 -201 -61v-90h-111v88q-101 7 -182.5 55.5t-129.5 139.5t-48 220q0 114 40.5 206t119 145.5t189.5 53.5h11v83h111v-123q30 -24 45 -55l20 80h152v-319h-156zM333 309q20 -48 58 -74
v380q-38 -22 -58 -72t-20 -121q0 -65 20 -113z" />
    <glyph glyph-name="uni20B9" unicode="&#x20b9;" horiz-adv-x="643" 
d="M606 639h-147q36 -29 50 -84h97v-110h-91q-8 -64 -40 -101t-85 -59l215 -285h-225l-186 246h-157v120h122q96 0 117 79h-239v110h241q-19 85 -110 85h-131v152h569v-153z" />
    <glyph glyph-name="uni20BA" unicode="&#x20ba;" horiz-adv-x="881" 
d="M809 389q0 -187 -107.5 -288t-311.5 -101h-359v172h78v120l-78 -27v109l78 27v57l-78 -27v109l78 27v225h250v-138l277 96v-109l-277 -96v-58l277 96v-108l-277 -96v-207h31q82 0 119.5 61.5t37.5 155.5h262z" />
    <glyph glyph-name="uni20BC" unicode="&#x20bc;" horiz-adv-x="925" 
d="M888 175v-175h-279l1 372q0 84 -72 112v-484h-151v484q-72 -26 -72 -112v-372h-278v175h62v221q0 130 72.5 194.5t215.5 76.5v124h151v-124q144 -12 216 -77t72 -194v-221h62z" />
    <glyph glyph-name="uni20BD" unicode="&#x20bd;" horiz-adv-x="821" 
d="M389 322v-49h229v-50h-229v-43h71v-180h-420v180h76v43h-76v50h76v347h-74v172h416q165 0 246.5 -59t81.5 -180q0 -125 -81 -180.5t-243 -55.5q-40 0 -73 5zM390 447h20q111 0 111 88q0 40 -24.5 62.5t-65.5 22.5h-41v-173z" />
    <glyph glyph-name="uni2116" unicode="&#x2116;" horiz-adv-x="1571" 
d="M40 0v175h79v431h-77v172h359l243 -462v289h-78v172h311v-172h-77v-605h-296l-231 429v-254h78v-175h-311zM1082 23.5q-67 32.5 -104 95t-37 148.5q0 85 37 145t104 90.5t155 30.5q135 0 216 -69.5t81 -196.5q0 -86 -37 -148.5t-104 -95t-156 -32.5q-88 0 -155 32.5z
M1284.5 165.5q15.5 31.5 15.5 101.5q0 65 -15 94t-48 29q-32 0 -47 -29t-15 -94q0 -70 15.5 -101.5t46.5 -31.5q32 0 47.5 31.5z" />
    <glyph glyph-name="trademark" unicode="&#x2122;" horiz-adv-x="1298" 
d="M117 262v118h54v295h-33l-21 -97h-92v214h476v-214h-91l-21 97h-35v-295h54v-118h-291zM547 376q14 0 26 5q11 5 16 10q6 6 9 19l3 22v29v214h-55v117h273l101 -250l90 250h257v-113h-48v-297h50v-120h-263v120h41v200l-112 -320h-92l-136 326v-151l1 -2v-18q0 -8 2 -14
q3 -9 9 -12q2 -2 7 -4.5t8 -3.5q10 -3 26 -3v-119h-213v115z" />
    <glyph glyph-name="emptyset" unicode="&#x2205;" horiz-adv-x="401" 
d="M366.5 407q16.5 -37 16.5 -82q0 -53 -23 -94.5t-64.5 -65t-94.5 -23.5q-30 0 -59 8l-24 -43h-76l41 74q-31 25 -48 62t-17 82q0 53 23.5 94.5t65 65t94.5 23.5q29 0 59 -8l23 42h76l-40 -73q31 -25 47.5 -62zM132 269l80 145q-3 1 -11 1q-38 0 -62 -25t-24 -65
q0 -33 17 -56zM262 260q24 25 24 65q0 32 -16 56l-81 -145q4 -1 12 -1q37 0 61 25z" />
    <glyph glyph-name="minus" unicode="&#x2212;" horiz-adv-x="351" 
d="M18 258v109h315v-109h-315z" />
    <glyph glyph-name="uni2215" unicode="&#x2215;" horiz-adv-x="428" 
d="M8 0l166 792h246l-167 -792h-245z" />
    <glyph glyph-name="uni2219" unicode="&#x2219;" horiz-adv-x="327" 
d="M63 284q-39 33 -39 89t39 87q38 33 97 33q62 0 101 -33q39 -31 39 -87t-40 -89t-99 -33l-1 -1q-57 0 -97 34z" />
    <glyph glyph-name="approxequal" unicode="&#x2248;" horiz-adv-x="413" 
d="M248 321.5q-14 4.5 -39 14.5q-22 9 -35 13.5t-28 4.5q-23 0 -39 -8.5t-42 -29.5l-47 31q17 51 46.5 84t76.5 33q17 0 32 -4.5t39 -14.5q20 -9 33.5 -13.5t28.5 -4.5q21 0 37 9t38 29l46 -31q-19 -58 -47.5 -87.5t-69.5 -29.5q-16 0 -30 4.5zM246 154q-15 5 -37 15
q-22 9 -35 13.5t-28 4.5q-23 0 -39 -8.5t-42 -29.5l-47 31q17 51 46.5 84t76.5 33q17 0 32 -4.5t39 -14.5q20 -9 33.5 -13.5t28.5 -4.5q22 0 37.5 8.5t37.5 28.5l46 -30q-19 -59 -47.5 -88.5t-69.5 -29.5q-17 0 -32 5z" />
    <glyph glyph-name="notequal" unicode="&#x2260;" horiz-adv-x="351" 
d="M333 341h-83l-23 -71h106v-109h-143l-15 -44h-115l15 44h-57v109h94l23 71h-117v109h154l15 44h115l-15 -44h46v-109z" />
    <glyph glyph-name="lessequal" unicode="&#x2264;" horiz-adv-x="384" 
d="M367 166l-349 242v103l349 242v-188l-163 -106l163 -105v-188zM18 21v109h349v-109h-349z" />
    <glyph glyph-name="greaterequal" unicode="&#x2265;" horiz-adv-x="384" 
d="M18 166v188l162 105l-162 106v188l349 -242v-103zM367 21h-349v109h349v-109z" />
    <glyph glyph-name="i.loclTRK" horiz-adv-x="396" 
d="M44 0v146h40v219h-43v127l278 31v-377h41v-146h-316zM103.5 624q-39.5 33 -39.5 89q0 55 38.5 87.5t99.5 32.5t99.5 -33t38.5 -87q0 -56 -39.5 -89t-98.5 -33t-98.5 33z" />
    <glyph glyph-name="f_f_ij" horiz-adv-x="1605" 
d="M938.5 589q-38.5 33 -38.5 89q0 54 38 86.5t98 32.5q62 0 101 -32.5t39 -86.5q0 -56 -40 -89t-100 -33q-59 0 -97.5 33zM1324 588.5q-39 33.5 -39 88.5t38 87.5t98 32.5q62 0 101 -33t39 -87q0 -56 -39.5 -89t-100.5 -33q-58 0 -97 33.5zM899 0v146h40v225h-192v-225h54
v-146h-332v146h41v225h-41v152h40l-0.5 11t-0.5 55q0 197 186 197q38 0 81 -6.5t69 -15.5v-152q-28 6 -47 6q-34 0 -45 -23.5t-9 -70.5l817 -1v-460q0 -90 -27 -145.5t-91.5 -83t-175.5 -27.5l-1 159h7q18 0 31.5 8t13.5 23v376h-144v-223h40v-150h-314zM81 569
q0 197 174 197q39 0 82.5 -7t71.5 -16v-143q-37 6 -51 6q-43 0 -43 -66v-17h87v-152h-84v-225h54v-146h-332v146h41v225h-41v152h41v46z" />
    <glyph glyph-name="f_ij" horiz-adv-x="1176" 
d="M509.5 589q-38.5 33 -38.5 89q0 54 38 86.5t97 32.5q62 0 101.5 -32.5t39.5 -86.5q0 -56 -40 -89t-100 -33q-59 0 -97.5 33zM895 588.5q-39 33.5 -39 88.5t38 87.5t98 32.5q62 0 101 -33t39 -87q0 -56 -40 -89t-100 -33q-58 0 -97 33.5zM470 0v146h40v225h-192v-225h54
v-146h-332v146h41v225h-41v152h40l-0.5 11t-0.5 55q0 197 186 197q38 0 81 -6.5t69 -15.5v-152q-29 6 -47 6q-34 0 -45 -23.5t-9 -70.5l817 -1v-460q0 -90 -27 -145.5t-91.5 -83t-176.5 -27.5l-1 159h8q18 0 31.5 8t13.5 23v376h-144v-223h40v-150h-314z" />
    <glyph glyph-name="periodcentered.loclCAT.case" horiz-adv-x="327" 
d="M62.5 280.5q-38.5 34.5 -38.5 92.5q0 59 38.5 92t97.5 33q62 0 101 -33t39 -92q0 -58 -39 -92.5t-101 -34.5q-59 0 -97.5 34.5z" />
    <glyph glyph-name="periodcentered.loclCAT" horiz-adv-x="327" 
d="M62.5 280.5q-38.5 34.5 -38.5 92.5q0 59 38.5 92t97.5 33q62 0 101 -33t39 -92q0 -58 -39 -92.5t-101 -34.5q-59 0 -97.5 34.5z" />
    <glyph glyph-name="caroncomb.alt" 
d="M0 469v290h156l-39 -290h-117z" />
    <glyph glyph-name="uni0308.case" 
d="M-230 624.5q-31 30.5 -31 76.5q0 45 31.5 74.5t79.5 29.5q49 0 79.5 -29.5t30.5 -75.5q0 -45 -31 -75.5t-79 -30.5q-49 0 -80 30.5zM70.5 624q-30.5 30 -30.5 76t31 75.5t79 29.5q49 0 79.5 -29.5t30.5 -76.5q0 -45 -31 -75t-79 -30q-49 0 -79.5 30z" />
    <glyph glyph-name="uni0307.case" 
d="M-101.5 624.5q-36.5 28.5 -36.5 78.5q0 51 36.5 79.5t101.5 28.5t101.5 -28.5t36.5 -79.5q0 -50 -36.5 -78.5t-101.5 -28.5t-101.5 28.5z" />
    <glyph glyph-name="gravecomb.case" 
d="M110 591l-271 94l66 134l256 -159z" />
    <glyph glyph-name="acutecomb.case" 
d="M-110 591l-44 73l249 155l66 -134z" />
    <glyph glyph-name="uni030B.case" 
d="M-63 580l-81 29l75 257l146 -58zM92 581l-70 48l150 228l127 -93z" />
    <glyph glyph-name="uni0302.case" 
d="M-125 584l-75 50l134 154h132l134 -154l-75 -50l-125 105z" />
    <glyph glyph-name="uni030C.case" 
d="M-66 588l-134 155l75 49l125 -110l125 110l75 -49l-134 -155h-132z" />
    <glyph glyph-name="uni0306.case" 
d="M-146 637q-51 44 -51 126h123q0 -32 20.5 -51.5t53.5 -19.5t53.5 19.5t20.5 51.5h123q0 -82 -51.5 -126t-145.5 -44q-95 0 -146 44z" />
    <glyph glyph-name="uni030A.case" 
d="M-98 600.5q-37 34.5 -37 83.5q0 48 36.5 80.5t98.5 32.5t98.5 -33t36.5 -81t-37.5 -82.5t-97.5 -34.5q-61 0 -98 34.5zM56.5 634q21.5 19 21.5 49q0 29 -21 47.5t-57 18.5q-38 0 -59 -18.5t-21 -47.5q0 -30 21.5 -49t58.5 -19q35 0 56.5 19z" />
    <glyph glyph-name="tildecomb.case" 
d="M43.5 604q-21.5 5 -56.5 16q-21 7 -42.5 12.5t-35.5 5.5q-20 0 -36 -10t-35 -34l-55 36q28 69 59.5 101t72.5 32q24 0 46 -6t54 -17q49 -19 73 -19q21 0 38 10.5t36 34.5l55 -37q-28 -61 -56.5 -95.5t-77.5 -34.5q-18 0 -39.5 5z" />
    <glyph glyph-name="uni0304.case" 
d="M-216 770h433v-146h-433v146z" />
    <glyph glyph-name="uni030F.case" 
d="M84 590l-140 228l146 58l75 -257zM-71 590l-207 183l127 94l150 -228z" />
    <glyph glyph-name="uni0311.case" 
d="M145.5 729q51.5 -44 51.5 -126h-123q0 32 -20.5 51.5t-53.5 19.5t-53.5 -19.5t-20.5 -50.5h-123q0 82 51 125.5t146 43.5q94 0 145.5 -44z" />
    <glyph glyph-name="dotbelowcomb.case" 
d="M-85 -253.5q-34 29.5 -34 77.5t33 76.5t86 28.5t86 -28.5t33 -76.5q0 -49 -34 -78t-85 -29t-85 29.5z" />
    <glyph glyph-name="uni03060301" 
d="M-122 792l-25 82l260 107l42 -128zM-146 622.5q-51 43.5 -51 125.5h123q0 -32 21 -51.5t53 -19.5t53 20.5t21 51.5h123q0 -83 -51.5 -126.5t-145.5 -43.5q-95 0 -146 43.5z" />
    <glyph glyph-name="uni03060300" 
d="M129 792l-276 61l42 128l260 -107zM-146 622.5q-51 43.5 -51 125.5h123q0 -32 21 -51.5t53 -19.5t53 20.5t21 51.5h123q0 -83 -51.5 -126.5t-145.5 -43.5q-95 0 -146 43.5z" />
    <glyph glyph-name="uni03060309" 
d="M72.5 966.5q31.5 -24.5 31.5 -72.5q0 -47 -23.5 -78.5t-75.5 -69.5l-47 44q25 19 36 34.5t11 35.5q0 22 -13.5 34.5t-38.5 12.5q-20 0 -49 -9l-11 77q46 16 95 16q53 0 84.5 -24.5zM-146 622.5q-51 43.5 -51 125.5h123q0 -32 21 -51.5t53 -19.5t53 20.5t21 51.5h123
q0 -83 -51.5 -126.5t-145.5 -43.5q-95 0 -146 43.5z" />
    <glyph glyph-name="uni03060303" 
d="M36.5 810.5q-17.5 6.5 -44.5 20.5q-23 11 -38.5 17t-29.5 6q-21 0 -40.5 -10t-45.5 -38l-55 36q23 55 56 90t86 35q18 0 34.5 -6t43.5 -19q22 -12 39.5 -18.5t35.5 -6.5q24 0 41 10.5t43 38.5l55 -36q-24 -54 -57.5 -90t-86.5 -36q-19 0 -36.5 6.5zM-146 622.5
q-51 43.5 -51 125.5h123q0 -32 21 -51.5t53 -19.5t53 20.5t21 51.5h123q0 -83 -51.5 -126.5t-145.5 -43.5q-95 0 -146 43.5z" />
    <glyph glyph-name="uni03020301" 
d="M229 726h-83l62 159h147zM115 565l75 49l-124 155h-132l-124 -155l75 -49l115 112z" />
    <glyph glyph-name="uni03020300" 
d="M193 726l-125 159h146l63 -159h-84zM115 565l75 49l-124 155h-132l-124 -155l75 -49l115 112z" />
    <glyph glyph-name="uni03020309" 
d="M248 932.5q32 -24.5 32 -73.5q0 -46 -24 -78t-75 -70l-48 44q25 19 36.5 34.5t11.5 36.5q0 22 -13.5 34.5t-38.5 12.5q-20 0 -49 -9l-12 76q46 17 96 17q52 0 84 -24.5zM115 565l75 49l-124 155h-132l-124 -155l75 -49l115 112z" />
    <glyph glyph-name="uni03020303" 
d="M36.5 825.5q-17.5 6.5 -44.5 20.5q-23 11 -38.5 17t-29.5 6q-21 0 -40.5 -10t-45.5 -38l-55 36q23 54 56 89t86 35q18 0 34.5 -6t43.5 -19q22 -12 39.5 -18.5t35.5 -6.5q24 0 41 10.5t43 39.5l55 -37q-24 -54 -57.5 -89.5t-86.5 -35.5q-19 0 -36.5 6.5zM115 565l75 49
l-124 155h-132l-124 -155l75 -49l115 112z" />
  </font>
</defs>
</svg>
